<svg id="Capa_1" enable-background="new 0 0 512 512" height="512" viewBox="0 0 512 512" width="512" xmlns="http://www.w3.org/2000/svg"><g><g><g><g><g><g><path d="m402.792 424.98h-293.197c-16.843 0-31.318-11.947-34.513-28.484l-37.712-195.211h437.646l-37.711 195.211c-3.194 16.537-17.67 28.484-34.513 28.484z" fill="#f4f8f8"/><path d="m432.991 201.285-37.711 195.211c-3.195 16.537-17.67 28.484-34.513 28.484h42.026c16.843 0 31.318-11.947 34.513-28.484l37.711-195.211z" fill="#e5ecf1"/><path d="m490.535 207.44h-469.07c-7.713 0-13.965-6.252-13.965-13.965v-18.831c0-7.713 6.252-13.965 13.965-13.965h469.07c7.712 0 13.965 6.252 13.965 13.965v18.831c0 7.713-6.252 13.965-13.965 13.965z" fill="#fc5692"/><path d="m490.535 160.68h-26.898v32.796c0 7.712-6.252 13.965-13.964 13.965h40.863c7.712 0 13.965-6.252 13.965-13.965v-18.831c-.001-7.713-6.253-13.965-13.966-13.965z" fill="#fb3580"/></g></g><g><g><path d="m171.249 379.426c-7.15 0-13.484-5.126-14.766-12.411l-15.77-89.57c-1.438-8.165 4.016-15.95 12.181-17.388 8.159-1.436 15.95 4.016 17.387 12.181l15.77 89.57c1.438 8.165-4.016 15.95-12.181 17.388-.88.155-1.757.23-2.621.23z" fill="#d6e4ea"/></g><g><path d="m256 379.423c-8.291 0-15.012-6.721-15.012-15.012v-89.57c0-8.291 6.721-15.012 15.012-15.012s15.012 6.721 15.012 15.012v89.57c0 8.291-6.721 15.012-15.012 15.012z" fill="#d6e4ea"/></g><g><path d="m340.751 379.426c-.864 0-1.74-.075-2.62-.23-8.166-1.438-13.619-9.223-12.181-17.388l15.77-89.57c1.437-8.165 9.22-13.618 17.387-12.181 8.166 1.438 13.619 9.223 12.181 17.388l-15.77 89.57c-1.283 7.284-7.618 12.411-14.767 12.411z" fill="#d6e4ea"/></g></g><g fill="#d6e4ea"><path d="m112.69 174.156 109.4-114.697c7.507-7.87 19.972-8.165 27.842-.658 7.87 7.507 8.165 19.972.658 27.842l-109.4 114.697c-7.507 7.87-19.972 8.165-27.842.658-7.87-7.507-8.165-19.972-.658-27.842z"/><path d="m262.068 58.801c7.87-7.507 20.335-7.212 27.842.658l109.4 114.697c7.507 7.87 7.212 20.335-.658 27.842-7.87 7.507-20.335 7.212-27.842-.658l-109.4-114.698c-7.506-7.87-7.212-20.335.658-27.841z"/></g></g></g><g><g><circle cx="391.674" cy="387.42" fill="#fce25c" r="71.21"/><path d="m391.532 316.21c-6.952 0-13.664 1.014-20.016 2.872 29.58 8.651 51.195 35.962 51.195 68.338s-21.614 59.688-51.195 68.338c6.352 1.857 13.063 2.872 20.016 2.872 39.328 0 71.21-31.882 71.21-71.21s-31.881-71.21-71.21-71.21z" fill="#fbd307"/></g></g></g><g><g><path d="m490.535 153.181h-100.867l-94.331-98.898c-10.349-10.851-27.597-11.258-38.445-.908-.306.292-.602.592-.892.895-.29-.303-.585-.603-.892-.895-10.85-10.35-28.096-9.941-38.446.908l-94.331 98.898h-45.442c-4.142 0-7.5 3.357-7.5 7.5s3.358 7.5 7.5 7.5h31.135l-.762.799c-8.128 8.522-9.617 20.989-4.626 30.961-8.857 0-71.19 0-81.171 0-3.565 0-6.465-2.9-6.465-6.465v-18.83c0-3.564 2.9-6.465 6.465-6.465h20.215c4.142 0 7.5-3.357 7.5-7.5s-3.358-7.5-7.5-7.5h-20.215c-11.836 0-21.465 9.628-21.465 21.464v18.83c0 11.836 9.629 21.465 21.465 21.465h10.905l35.348 182.979c3.869 20.025 21.48 34.561 41.877 34.561h186.03c4.143 0 7.5-3.357 7.5-7.5s-3.357-7.5-7.5-7.5h-186.03c-13.223 0-24.641-9.423-27.149-22.406l-34.799-180.134h417.092l-17.899 92.657c-.785 4.067 1.875 8.001 5.941 8.787.48.093.959.137 1.431.137 3.521 0 6.663-2.492 7.356-6.078l18.449-95.503h10.518c11.836 0 21.465-9.629 21.465-21.465v-18.83c0-11.836-9.629-21.464-21.465-21.464zm-223.29-88.954c4.859-4.635 12.577-4.48 17.238.408l109.399 114.696c4.641 4.865 4.458 12.599-.407 17.239-4.743 4.521-12.477 4.585-17.238-.408l-109.4-114.697c-4.731-4.959-4.336-12.713.408-17.238zm-11.245 27.61 58.511 61.343h-117.021zm-28.483-27.201c4.737-4.967 12.465-4.963 17.238-.408 4.741 4.522 5.163 12.254.408 17.238l-109.4 114.697c-4.746 4.978-12.475 4.949-17.238.406-4.875-4.649-5.059-12.36-.407-17.236zm-44.335 103.545h145.636l30.293 31.76h-206.222zm313.818 25.294c0 3.564-2.9 6.465-6.465 6.465-10.158 0-71.235 0-81.153 0 1.78-3.544 2.766-7.468 2.863-11.55.294-12.44-8.086-19.929-8.27-20.21h86.56c3.564 0 6.465 2.9 6.465 6.465z"/><path d="m151.594 252.671c-12.252 2.158-20.426 13.82-18.268 26.075l15.77 89.568c2.157 12.257 13.777 20.423 26.073 18.269 12.252-2.158 20.426-13.82 18.268-26.075l-15.77-89.568c-2.151-12.229-13.793-20.424-26.073-18.269zm20.98 119.138c-4.181.731-7.995-2.063-8.705-6.096l-15.77-89.569c-.719-4.088 2.007-7.981 6.095-8.7 4.085-.718 7.981 2.008 8.7 6.096l15.771 89.569c.72 4.092-2.011 7.981-6.091 8.7z"/><path d="m233.488 274.842v89.57c0 12.412 10.099 22.511 22.512 22.511s22.512-10.099 22.512-22.511v-89.57c0-12.413-10.099-22.512-22.512-22.512s-22.512 10.099-22.512 22.512zm30.024 0v89.57c0 4.142-3.37 7.511-7.512 7.511s-7.512-3.369-7.512-7.511v-89.57c0-4.142 3.37-7.512 7.512-7.512s7.512 3.37 7.512 7.512z"/><path d="m416.352 358.797-38.014 40.665-15.362-19.235c-2.585-3.235-7.302-3.764-10.541-1.18-3.236 2.585-3.765 7.304-1.18 10.541l20.776 26.015c1.359 1.702 3.392 2.729 5.568 2.813.098.004.195.006.292.006 2.072 0 4.058-.858 5.479-2.378l43.938-47.003c2.829-3.026 2.669-7.772-.356-10.601-3.026-2.83-7.772-2.668-10.6.357z"/><path d="m391.675 308.71c-6.434 0-12.684.793-18.674 2.257l5.673-32.221c2.156-12.255-6.012-23.917-18.269-26.075-12.224-2.151-23.922 6.045-26.073 18.267l-15.085 85.68c-4.041 9.466-6.283 19.876-6.283 30.802 0 43.4 35.31 78.71 78.711 78.71 43.4 0 78.71-35.31 78.71-78.71s-35.31-78.71-78.71-78.71zm-42.57-35.172c.718-4.078 4.62-6.816 8.7-6.094 4.088.719 6.816 4.612 6.095 8.7l-7.181 40.781c-6.295 3.134-12.113 7.084-17.315 11.715zm42.57 177.592c-35.13 0-63.711-28.58-63.711-63.71s28.581-63.71 63.711-63.71 63.71 28.58 63.71 63.71-28.58 63.71-63.71 63.71z"/></g></g></g></svg>