<?xml version="1.0" encoding="iso-8859-1"?>
<!-- Generator: Adobe Illustrator 19.0.0, SVG Export Plug-In . SVG Version: 6.00 Build 0)  -->
<svg version="1.1" id="Layer_1" xmlns="http://www.w3.org/2000/svg" xmlns:xlink="http://www.w3.org/1999/xlink" x="0px" y="0px"
	 viewBox="0 0 512.002 512.002" style="enable-background:new 0 0 512.002 512.002;" xml:space="preserve">
<path style="fill:#D1D6E4;" d="M323.023,61.621C288.116,26.713,241.707,7.49,192.342,7.49S96.567,26.713,61.662,61.62
	C26.755,96.525,7.53,142.935,7.53,192.302s19.224,95.776,54.131,130.681c34.901,34.902,81.31,54.127,130.695,54.13h0.009
	c49.35,0,95.752-19.224,130.657-54.131c34.906-34.905,54.131-81.315,54.131-130.68C377.153,142.935,357.929,96.525,323.023,61.621z
	 M91.298,91.79c27.05-27.049,63.015-41.947,101.268-41.947c38.254,0,74.219,14.897,101.268,41.946
	c55.839,55.842,55.839,146.698,0.001,202.536c-27.048,27.049-63.012,41.947-101.265,41.947c-38.254,0-74.22-14.899-101.27-41.95
	c-27.047-27.047-41.945-63.012-41.946-101.266C49.355,154.801,64.25,118.837,91.298,91.79z"/>
<path style="fill:#60B7E2;" d="M290.019,95.604c-26.031-26.031-60.639-40.366-97.453-40.366c-36.813,0-71.422,14.336-97.452,40.367
	c-26.03,26.028-40.365,60.636-40.365,97.451c0.001,36.814,14.338,71.423,40.367,97.452c26.03,26.033,60.641,40.37,97.454,40.37
	h0.004c36.807,0,71.416-14.336,97.446-40.367C343.756,236.776,343.754,149.341,290.019,95.604z M193.067,90.612
	c-27.738,0-53.814,10.802-73.427,30.415c-1.121,1.121-2.612,1.738-4.197,1.738c-1.586,0-3.076-0.617-4.196-1.737
	c-1.121-1.121-1.738-2.611-1.738-4.197c0-1.585,0.616-3.075,1.737-4.196c21.855-21.856,50.912-33.892,81.819-33.892
	c30.907,0.001,59.964,12.037,81.819,33.891c5.691,5.692,10.709,11.879,15.036,18.465c-4.004,0.785-7.538,3.003-10.154,6.153
	c-3.831-5.782-8.264-11.217-13.274-16.227C246.881,101.414,220.805,90.613,193.067,90.612z M306.383,181.52
	c-0.941,1.275-2.322,2.107-3.892,2.344c-0.292,0.045-0.593,0.068-0.892,0.068c-2.904,0-5.422-2.172-5.857-5.051
	c-0.458-3.035-1.056-6.026-1.769-8.978c4.214-0.21,8.046-1.984,11.02-4.813c1.026,3.94,1.869,7.947,2.483,12.023
	C307.711,178.68,307.324,180.246,306.383,181.52z"/>
<g>
	<path style="fill:#EF5440;" d="M491.994,439.63l-76.168-76.167l-52.319,52.317l76.168,76.168c3.868,3.869,9.012,6,14.484,6
		s10.616-2.132,14.483-6l23.351-23.348C499.98,460.615,499.981,447.619,491.994,439.63z"/>
	
		<rect x="334.436" y="357.469" transform="matrix(-0.7071 0.7071 -0.7071 -0.7071 896.68 371.3632)" style="fill:#EF5440;" width="73.985" height="27.843"/>
</g>
<g style="opacity:0.15;">
	<path style="fill:#30302F;" d="M479.75,480.4c-3.868,3.869-9.01,5.999-14.483,5.999c-5.472,0-10.617-2.132-14.484-5.999
		l-75.317-75.318l-18.431,18.43l76.168,76.168c3.868,3.869,9.012,5.999,14.484,5.999s10.616-2.132,14.483-5.999l23.351-23.348
		c1.7-1.7,3.016-3.636,3.993-5.694L479.75,480.4z"/>
</g>
<g style="opacity:0.15;">
	<polygon style="fill:#30302F;" points="366.223,395.841 347.385,377.003 328.954,395.433 348.643,415.12 400.961,362.802 
		400.112,361.952 	"/>
</g>
<g style="opacity:0.15;">
	<path style="fill:#30302F;" d="M111.099,290.508c-26.03-26.029-40.366-60.638-40.367-97.452c0-36.815,14.335-71.423,40.365-97.451
		c23.344-23.345,53.589-37.275,86.134-39.903c-3.745-0.302-7.519-0.464-11.318-0.464c-36.813,0-71.422,14.336-97.452,40.367
		c-26.03,26.028-40.365,60.636-40.365,97.451c0.001,36.814,14.338,71.423,40.367,97.452c26.03,26.033,60.641,40.37,97.454,40.37
		h0.004c3.797,0,7.571-0.161,11.315-0.464C164.69,327.785,134.443,313.853,111.099,290.508z"/>
</g>
<path style="fill:#D1D6E4;" d="M338.039,316.283l-1.514,1.799c-2.794,3.321-5.755,6.55-8.801,9.596
	c-3.05,3.049-6.279,6.011-9.598,8.803l-1.801,1.514l26.013,26.01l21.712-21.713L338.039,316.283z"/>
<g>
	<path style="fill:#30302F;" d="M192.571,344.902c0.002,0-0.001,0,0.002,0c40.555,0,78.687-15.796,107.365-44.475
		c59.202-59.202,59.202-155.534-0.001-214.74c-28.68-28.679-66.812-44.474-107.371-44.474S113.877,57.007,85.198,85.686
		c-28.679,28.678-44.473,66.81-44.473,107.369c0.001,40.559,15.796,78.69,44.474,107.369
		C113.878,329.106,152.01,344.902,192.571,344.902z M96.64,97.13c25.623-25.624,59.69-39.735,95.927-39.735
		s70.305,14.111,95.928,39.734c52.895,52.897,52.895,138.963,0.001,191.855c-25.623,25.624-59.69,39.736-95.924,39.735
		c-36.238,0-70.306-14.112-95.929-39.737c-25.623-25.622-39.734-59.69-39.735-95.927C56.907,156.818,71.017,122.751,96.64,97.13z"/>
	<path style="fill:#30302F;" d="M121.166,122.552c19.205-19.206,44.741-29.784,71.9-29.784s52.696,10.578,71.9,29.784
		c6.142,6.141,11.461,13.01,15.817,20.416c0.001,0.003,0.003,0.005,0.004,0.009c0.448,0.761,0.885,1.527,1.311,2.297
		c1.475,2.67,4.24,4.179,7.089,4.179c1.324,0,2.666-0.325,3.905-1.01c3.911-2.161,5.329-7.084,3.17-10.995
		c-0.495-0.897-1.004-1.789-1.525-2.675c-0.003-0.006-0.008-0.012-0.012-0.017c-5.048-8.583-11.209-16.539-18.314-23.646
		c-22.263-22.263-51.861-34.522-83.344-34.523c-0.001,0,0.001,0-0.001,0c-31.481,0-61.082,12.262-83.343,34.524
		c-3.16,3.16-3.16,8.283,0.001,11.442C112.881,125.712,118.006,125.713,121.166,122.552z"/>
	<path style="fill:#30302F;" d="M290.196,164.291c1.504,4.858,2.651,9.874,3.411,14.914c0.605,4.01,4.055,6.885,7.99,6.885
		c0.402,0,0.809-0.029,1.218-0.092c4.419-0.667,7.46-4.789,6.793-9.208c-0.88-5.839-2.212-11.653-3.953-17.283
		c-1.322-4.269-5.847-6.661-10.123-5.338C291.265,155.49,288.875,160.023,290.196,164.291z"/>
	<path style="fill:#30302F;" d="M501.912,429.713L393.467,321.269c-3.161-3.159-8.283-3.159-11.443,0l-9.582,9.582l-24.878-24.877
		c24.111-32.776,37.141-72.222,37.141-113.674c-0.001-51.383-20.01-99.69-56.343-136.022c-75.003-75.002-197.039-75.002-272.042,0
		c-57.514,57.513-72.647,145.456-37.657,218.836c1.924,4.034,6.756,5.745,10.785,3.821c4.034-1.922,5.745-6.752,3.821-10.785
		C1.224,200.944,15.086,120.398,67.764,67.722c68.691-68.693,180.464-68.693,249.155,0c33.277,33.275,51.603,77.518,51.603,124.579
		c0,47.059-18.326,91.302-51.602,124.577c-33.276,33.277-77.519,51.603-124.579,51.603c-47.059,0.001-91.302-18.325-124.578-51.601
		c-7.337-7.336-14.047-15.331-19.943-23.761c-2.559-3.662-7.604-4.557-11.267-1.993c-3.662,2.561-4.554,7.606-1.993,11.267
		c6.436,9.202,13.757,17.926,21.76,25.929c36.333,36.333,84.639,56.341,136.021,56.34c41.453,0,80.899-13.031,113.675-37.142
		l24.878,24.878l-9.581,9.581c-3.16,3.161-3.16,8.283,0,11.443l108.444,108.444c6.518,6.517,15.183,10.106,24.402,10.106
		c9.217,0,17.883-3.589,24.4-10.106l23.351-23.348C515.365,465.064,515.366,443.171,501.912,429.713z M319.514,338.132
		c3.376-2.839,6.63-5.823,9.734-8.928c3.106-3.106,6.091-6.361,8.926-9.732l22.824,22.821l-9.048,9.049l-9.614,9.614
		L319.514,338.132z M348.058,378.121l0.001-0.001l1.824-1.824l37.861-37.861l16.638,16.638l-49.268,49.268l-16.638-16.637
		L348.058,378.121z M490.468,467.076l-23.351,23.348c-3.461,3.462-8.063,5.368-12.958,5.368c-4.896,0-9.498-1.906-12.959-5.368
		l-74.643-74.642l49.268-49.268l74.642,74.642C497.614,448.302,497.614,459.93,490.468,467.076z"/>
</g>
<g>
</g>
<g>
</g>
<g>
</g>
<g>
</g>
<g>
</g>
<g>
</g>
<g>
</g>
<g>
</g>
<g>
</g>
<g>
</g>
<g>
</g>
<g>
</g>
<g>
</g>
<g>
</g>
<g>
</g>
</svg>
