<?xml version="1.0" encoding="utf-8"?>
<!-- Generator: Adobe Illustrator 19.2.1, SVG Export Plug-In . SVG Version: 6.00 Build 0)  -->
<svg version="1.1" id="Capa_1" xmlns="http://www.w3.org/2000/svg" xmlns:xlink="http://www.w3.org/1999/xlink" x="0px" y="0px"
	 width="512px" height="512px" viewBox="0 0 512 512" style="enable-background:new 0 0 512 512;" xml:space="preserve">
<style type="text/css">
	.st0{fill:#F9F7F8;}
	.st1{fill:#EFEDEF;}
	.st2{fill:#BFBFBF;}
	.st3{fill:#FFE3CB;}
	.st4{fill:#FECA9C;}
	.st5{fill:#F7DA89;}
	.st6{fill:#5A5A5A;}
	.st7{fill:#444444;}
	.st8{fill:#FF9494;}
	.st9{fill:#DB6B6B;}
	.st10{fill:#9C9C9C;}
	.st11{fill:#838383;}
	.st12{fill:#D8ECFE;}
	.st13{fill:#C4E2FF;}
	.st14{fill:#333333;}
</style>
<g>
	<g>
		<path class="st0" d="M504.5,434.8V22.7c0-8.3-6.7-15-15-15h-328c-8.3,0-15,6.7-15,15v481.6h284.6L504.5,434.8z"/>
	</g>
	<g>
		<path class="st1" d="M504.5,23v412.1l-19.7,18.1V23c0-8.3-6.7-15-15-15h19.7C497.8,8,504.5,14.7,504.5,23z"/>
	</g>
	<g>
		<path class="st2" d="M431.2,504.3v-53.6c0-9.3,7.6-16.9,16.9-16.9h56.4L431.2,504.3z"/>
	</g>
	<g>
		<path class="st3" d="M7.5,164.4v329.9c0,5.5,4.5,10,10,10h264.9c5.5,0,10-4.5,10-10V119.1c0-5.5-4.5-10-10-10H65.9L7.5,164.4z"/>
	</g>
	<g>
		<path class="st4" d="M292.4,119.1v375.2c0,5.5-4.5,10-10,10h-20c5.5,0,10-4.5,10-10V119.1c0-5.5-4.5-10-10-10h20
			C287.9,109.1,292.4,113.6,292.4,119.1z"/>
	</g>
	<g>
		<path class="st5" d="M65.9,109.1v42.6c0,7.4-6,13.5-13.5,13.5H7.5L65.9,109.1z"/>
	</g>
	<g>
		<path class="st6" d="M271,353.9h42.8v42.8H271L271,353.9z"/>
	</g>
	<g>
		<path class="st7" d="M292.4,353.9h21.4v42.8h-21.4L292.4,353.9z"/>
	</g>
	<g>
		<path class="st8" d="M332.9,504.3h-81v-97.6c0-5.5,4.5-10,10-10h61c5.5,0,10,4.5,10,10L332.9,504.3L332.9,504.3z"/>
	</g>
	<g>
		<path class="st9" d="M332.9,406.7v97.6h-19.6v-97.6c0-5.5-4.5-10-10-10h19.6C328.4,396.7,332.9,401.2,332.9,406.7z"/>
	</g>
	<g>
		<circle class="st10" cx="292.4" cy="255.8" r="106.7"/>
	</g>
	<g>
		<path class="st11" d="M399.1,255.8c0,58.9-47.8,106.7-106.7,106.7c-23.3,0-44.8-7.4-62.3-20.1c13.6,6.3,28.8,9.8,44.7,9.8
			c58.9,0,106.7-47.8,106.7-106.7c0-35.7-17.5-67.3-44.4-86.7C373.7,175.7,399.1,212.8,399.1,255.8L399.1,255.8z"/>
	</g>
	<g>
		<circle class="st12" cx="292.4" cy="255.8" r="69.9"/>
	</g>
	<g>
		<path class="st13" d="M362.3,255.8c0,38.6-31.3,69.9-69.9,69.9c-15.8,0-30.3-5.2-42-14c7.8,3,16.2,4.6,25.1,4.6
			c38.6,0,69.9-31.3,69.9-69.9c0-22.8-11-43.1-27.9-55.9C343.7,200.6,362.3,226,362.3,255.8z"/>
	</g>
	<g>
		<path class="st14" d="M451.4,58.8H199.7c-4.1,0-7.5,3.4-7.5,7.5c0,4.1,3.4,7.5,7.5,7.5h251.7c4.1,0,7.5-3.4,7.5-7.5
			C458.9,62.1,455.5,58.8,451.4,58.8z"/>
		<path class="st14" d="M451.4,106.1h-93c-4.1,0-7.5,3.4-7.5,7.5c0,4.1,3.4,7.5,7.5,7.5h93c4.1,0,7.5-3.4,7.5-7.5
			C458.9,109.5,455.5,106.1,451.4,106.1z"/>
		<path class="st14" d="M451.4,153.5H414c-4.1,0-7.5,3.4-7.5,7.5c0,4.1,3.4,7.5,7.5,7.5h37.3c4.1,0,7.5-3.4,7.5-7.5
			C458.9,156.8,455.5,153.5,451.4,153.5z"/>
		<path class="st14" d="M451.4,200.8H429c-4.1,0-7.5,3.4-7.5,7.5c0,4.1,3.4,7.5,7.5,7.5h22.3c4.1,0,7.5-3.4,7.5-7.5
			C458.9,204.2,455.5,200.8,451.4,200.8z"/>
		<path class="st14" d="M451.4,248.2H433c-4.1,0-7.5,3.4-7.5,7.5c0,4.1,3.4,7.5,7.5,7.5h18.3c4.1,0,7.5-3.4,7.5-7.5
			S455.5,248.2,451.4,248.2L451.4,248.2z"/>
		<path class="st14" d="M451.4,295.6h-22.5c-4.1,0-7.5,3.4-7.5,7.5c0,4.1,3.4,7.5,7.5,7.5h22.5c4.1,0,7.5-3.4,7.5-7.5
			C458.9,298.9,455.5,295.6,451.4,295.6z"/>
		<path class="st14" d="M451.4,342.9H422c-4.1,0-7.5,3.4-7.5,7.5c0,4.1,3.4,7.5,7.5,7.5h29.3c4.1,0,7.5-3.4,7.5-7.5
			C458.9,346.3,455.5,342.9,451.4,342.9z"/>
		<path class="st14" d="M451.4,390.3H375c-4.1,0-7.5,3.4-7.5,7.5s3.4,7.5,7.5,7.5h76.3c4.1,0,7.5-3.4,7.5-7.5
			S455.5,390.3,451.4,390.3z"/>
		<path class="st14" d="M160.9,194.2H73.2c-4.1,0-7.5,3.4-7.5,7.5s3.4,7.5,7.5,7.5h87.6c4.1,0,7.5-3.4,7.5-7.5
			S165,194.2,160.9,194.2z"/>
		<path class="st14" d="M142.2,229.2h-69c-4.1,0-7.5,3.4-7.5,7.5s3.4,7.5,7.5,7.5h69c4.1,0,7.5-3.4,7.5-7.5S146.4,229.2,142.2,229.2
			z"/>
		<path class="st14" d="M142.2,264.2h-69c-4.1,0-7.5,3.4-7.5,7.5s3.4,7.5,7.5,7.5h69c4.1,0,7.5-3.4,7.5-7.5S146.4,264.2,142.2,264.2
			z"/>
		<path class="st14" d="M489.5,0.2h-328c-12.4,0-22.5,10.1-22.5,22.5v78.9H72.3c-3.8,0-8.7-0.7-11.6,2.1c0,0,0,0,0,0l0,0L2.3,159
			c-1.5,1.4-2.3,3.4-2.3,5.4v329.9c0,9.6,7.9,17.5,17.5,17.5h413.7c0.1,0,0.2,0,0.3,0c5.5-0.2,16.1-12,16.1-12
			c9.1-8.7,17.3-17,26.4-25.7c11.9-11.3,23.8-22.6,35.8-33.9c1.5-1.4,2.3-3.4,2.3-5.4V22.7C512,10.3,501.9,0.2,489.5,0.2L489.5,0.2z
			 M58.4,126.7v25c0,3.3-2.7,6-6,6H26.1L58.4,126.7z M325.4,496.8h-66v-90.1c0-1.4,1.1-2.5,2.5-2.5h61c1.4,0,2.5,1.1,2.5,2.5
			L325.4,496.8L325.4,496.8z M278.5,389.2v-20.1c4.6,0.6,9.2,0.8,13.9,0.8c4.7,0,9.3-0.3,13.9-0.8v20.1L278.5,389.2L278.5,389.2z
			 M438.7,486.7v-36c0-5.2,4.2-9.4,9.4-9.4h37.8L438.7,486.7z M497,426.3h-48.9c-13.5,0-24.4,11-24.4,24.4v46.1h-83.3v-90.1
			c0-9.6-7.8-17.5-17.5-17.5h-1.6v-22.9c20.2-5.2,38.6-16,53.5-31.5c2.9-3,2.8-7.7-0.2-10.6c-3-2.9-7.7-2.8-10.6,0.2
			c-18.9,19.7-44.3,30.5-71.6,30.5c-54.7,0-99.2-44.5-99.2-99.2c0-54.7,44.5-99.2,99.2-99.2c54.7,0,99.2,44.5,99.2,99.2
			c0,14.7-3.2,28.9-9.4,42.2c-1.8,3.7-0.2,8.2,3.6,10c3.8,1.8,8.2,0.2,10-3.6c7.2-15.2,10.8-31.6,10.8-48.6
			c0-60.5-47.2-110.1-106.7-114v-22.7c0-9.6-7.9-17.5-17.5-17.5H224c-4.1,0-7.5,3.4-7.5,7.5c0,4.1,3.4,7.5,7.5,7.5h58.4
			c1.4,0,2.5,1.1,2.5,2.5v22.7c-59.5,3.9-106.7,53.5-106.7,114c0,53,36.3,97.7,85.3,110.5v22.9h-1.6c-9.6,0-17.5,7.8-17.5,17.5v90.1
			H17.5c-1.4,0-2.5-1.1-2.5-2.5V172.7h37.4c11.6,0,21-9.4,21-21v-35.1h116c4.1,0,7.5-3.4,7.5-7.5c0-4.1-3.4-7.5-7.5-7.5H154V22.7
			c0-4.1,3.4-7.5,7.5-7.5h328c4.1,0,7.5,3.4,7.5,7.5V426.3z"/>
		<path class="st14" d="M292.4,178.3c-42.7,0-77.4,34.7-77.4,77.4s34.7,77.4,77.4,77.4c42.7,0,77.4-34.7,77.4-77.4
			S335.1,178.3,292.4,178.3L292.4,178.3z M292.4,318.2c-34.4,0-62.4-28-62.4-62.4c0-34.4,28-62.4,62.4-62.4s62.4,28,62.4,62.4
			C354.8,290.2,326.8,318.2,292.4,318.2z"/>
	</g>
</g>
</svg>
