<?xml version="1.0" encoding="utf-8"?>
<!-- Generator: Adobe Illustrator 19.2.1, SVG Export Plug-In . SVG Version: 6.00 Build 0)  -->
<svg version="1.1" id="Capa_1" xmlns="http://www.w3.org/2000/svg" xmlns:xlink="http://www.w3.org/1999/xlink" x="0px" y="0px"
	 width="512px" height="512px" viewBox="0 0 512 512" style="enable-background:new 0 0 512 512;" xml:space="preserve">
<style type="text/css">
	.st0{fill:#9C9C9C;}
	.st1{fill:#838383;}
	.st2{fill:#F9F7F8;}
	.st3{fill:#F2D679;}
	.st4{fill:#EABD6C;}
	.st5{fill:#333333;}
</style>
<g>
	<g>
		<path class="st0" d="M504.5,271.3v-30.5c0-8.7-7.1-15.8-15.8-15.8h-21.4c-7.4,0-13.8-5.2-15.4-12.4c-5.1-23.3-14.3-45-26.7-64.5
			c-4-6.2-3-14.3,2.2-19.5l15.1-15.1c6.2-6.2,6.2-16.1,0-22.3l-21.6-21.6c-6.2-6.2-16.1-6.2-22.3,0l-15.1,15.1
			c-5.2,5.2-13.3,6.1-19.6,2.2c-19.5-12.5-41.3-21.7-64.6-26.8c-7.2-1.6-12.4-8-12.4-15.4V23.3c0-8.7-7.1-15.8-15.8-15.8h-30.5
			c-8.7,0-15.8,7.1-15.8,15.8v21.3c0,7.4-5.2,13.8-12.4,15.4c-23.3,5.1-45.1,14.3-64.6,26.8c-6.2,4-14.3,3-19.6-2.2l-15.1-15.1
			c-6.2-6.2-16.1-6.2-22.3,0L69.5,91.1c-6.2,6.2-6.2,16.1,0,22.3l15.1,15.1c5.2,5.2,6.1,13.3,2.2,19.5
			c-12.4,19.5-21.6,41.2-26.7,64.5c-1.6,7.2-8,12.4-15.4,12.4H23.3c-8.7,0-15.8,7.1-15.8,15.8v30.5c0,8.7,7.1,15.8,15.8,15.8h21.5
			c7.4,0,13.8,5.2,15.4,12.4c5.1,23.2,14.3,45,26.8,64.4c4,6.2,3,14.3-2.2,19.6l-15.3,15.3c-6.2,6.2-6.2,16.1,0,22.3l21.6,21.6
			c6.2,6.2,16.1,6.2,22.3,0l15.3-15.3c5.2-5.2,13.3-6.1,19.5-2.2c19.4,12.4,41.1,21.6,64.4,26.7c7.2,1.6,12.4,8,12.4,15.4v21.6
			c0,8.7,7.1,15.8,15.8,15.8h30.5c8.7,0,15.8-7.1,15.8-15.8v-21.6c0-7.4,5.2-13.8,12.4-15.4c23.2-5.1,44.9-14.3,64.4-26.7
			c6.2-4,14.3-3,19.5,2.2l15.3,15.3c6.2,6.2,16.1,6.2,22.3,0l21.6-21.6c6.2-6.2,6.2-16.1,0-22.3l-15.3-15.3
			c-5.2-5.2-6.1-13.4-2.2-19.6c12.4-19.4,21.6-41.2,26.8-64.4c1.6-7.2,8-12.4,15.4-12.4h21.5C497.4,287,504.5,280,504.5,271.3
			L504.5,271.3z"/>
	</g>
	<g>
		<path class="st1" d="M504.5,240.7v30.5c0,8.7-7.1,15.8-15.8,15.8h-21.5c-7.4,0-13.8,5.2-15.4,12.4c-5.2,23.2-14.3,45-26.8,64.4
			c-4,6.2-3,14.4,2.2,19.6l15.3,15.3c6.2,6.1,6.2,16.1,0,22.3l-21.6,21.6c-6.2,6.2-16.1,6.2-22.3,0l-1.6-1.6l20-20
			c6.2-6.2,6.2-16.1,0-22.3l-15.3-15.3c-5.2-5.2-6.1-13.4-2.2-19.6c12.4-19.4,20.5-41.4,26.8-64.4c11.2-41.1,0.1-86.8,0.1-86.8
			c-5.1-23.3-14.3-45.1-26.7-64.5c-4-6.2-3-14.3,2.2-19.5l15.1-15.1c6.2-6.1,6.2-16.1,0-22.3l-20-20l1.6-1.6
			c6.2-6.1,16.1-6.1,22.3,0l21.6,21.6c6.2,6.2,6.2,16.1,0,22.3l-15.1,15.1c-5.2,5.2-6.1,13.3-2.2,19.5
			c12.4,19.5,21.6,41.2,26.7,64.5c1.6,7.2,8,12.4,15.4,12.4h21.4C497.4,225,504.5,232,504.5,240.7L504.5,240.7z"/>
	</g>
	<g>
		<circle class="st2" cx="256" cy="255.8" r="142.5"/>
	</g>
	<g>
		<path class="st3" d="M271.2,175.9l15.7,31.8c2.5,5,7.2,8.4,12.7,9.2l35,5.1c13.9,2,19.4,19.1,9.4,28.8l-25.4,24.7
			c-4,3.9-5.8,9.5-4.9,15l6,34.9c2.4,13.8-12.1,24.3-24.5,17.8l-31.3-16.5c-4.9-2.6-10.8-2.6-15.7,0l-31.3,16.5
			c-12.4,6.5-26.9-4-24.5-17.8l6-34.9c0.9-5.5-0.9-11.1-4.9-15L168,250.8c-10-9.8-4.5-26.8,9.4-28.8l35-5.1
			c5.5-0.8,10.3-4.3,12.7-9.2l15.7-31.8C247,163.3,265,163.3,271.2,175.9L271.2,175.9z"/>
	</g>
	<g>
		<path class="st4" d="M318.6,275.5c-4,3.9-5.8,9.5-4.9,15l6,34.9c2.4,13.8-12.1,24.3-24.5,17.8l-3.9-2.1c5.1-4,8.2-10.6,6.9-18
			l-6.7-38.8c-1.1-6.1,1-12.3,5.4-16.6l28.2-27.5c5.5-5.3,6.8-12.6,4.9-18.9l4.6,0.7c13.9,2,19.4,19.1,9.4,28.8L318.6,275.5z"/>
	</g>
	<g>
		<path class="st5" d="M385.6,196.2c-3.9,1.5-5.7,5.9-4.2,9.8c6.3,15.9,9.5,32.7,9.5,49.9c0,74.4-60.5,135-135,135
			s-135-60.5-135-135s60.5-135,135-135c43.2,0,84.1,20.9,109.4,56c2.4,3.4,7.1,4.1,10.5,1.7c3.4-2.4,4.1-7.1,1.7-10.5
			c-28.2-38.9-73.6-62.2-121.6-62.2c-82.7,0-150,67.3-150,150s67.3,150,150,150s150-67.3,150-150c0-19.2-3.6-37.8-10.6-55.5
			C393.9,196.5,389.5,194.6,385.6,196.2L385.6,196.2z"/>
		<path class="st5" d="M349.2,256.2c6.7-6.5,9.1-16.1,6.2-25c-2.9-8.9-10.4-15.3-19.7-16.6l-35-5.1c-3.1-0.4-5.7-2.4-7.1-5.1
			l-15.7-31.8c-4.1-8.4-12.5-13.6-21.9-13.6s-17.7,5.2-21.9,13.6l-15.7,31.8c-1.4,2.8-4,4.7-7.1,5.1l-35,5.1
			c-9.3,1.3-16.8,7.7-19.7,16.6c-2.9,8.9-0.5,18.5,6.2,25l25.4,24.7c2.2,2.2,3.2,5.3,2.7,8.3l-0.3,1.7c-0.7,4.1,2,8,6.1,8.7
			c4.1,0.7,8-2,8.7-6.1l0.3-1.7c1.4-7.9-1.3-16-7-21.6l-25.4-24.7c-2.6-2.6-3.5-6.2-2.4-9.6c1.1-3.5,4-5.9,7.6-6.4l35-5.1
			c8-1.2,14.8-6.1,18.4-13.4l15.7-31.8c1.6-3.3,4.8-5.2,8.4-5.2s6.8,2,8.4,5.2l15.7,31.8c3.6,7.2,10.4,12.2,18.4,13.4l35,5.1
			c3.6,0.5,6.5,2.9,7.6,6.4s0.2,7.1-2.4,9.6l-25.4,24.7c-5.8,5.6-8.4,13.7-7,21.6l6,34.9c0.6,3.6-0.8,7-3.7,9.2
			c-3,2.2-6.7,2.4-9.9,0.7l-31.3-16.5c-7.1-3.7-15.6-3.7-22.7,0l-31.3,16.5c-4.5,2.3-8.2,0.4-9.6-0.5c-2.9-1.9-4.5-5.1-4.2-8.6
			c0.4-4.1-2.7-7.8-6.8-8.1c-4.1-0.4-7.8,2.7-8.1,6.8c-0.8,8.8,3.4,17.4,10.8,22.4c4.1,2.7,8.8,4.1,13.5,4.1c3.9,0,7.8-0.9,11.4-2.9
			l31.3-16.5c2.7-1.4,6-1.4,8.7,0l31.3,16.5c8.3,4.4,18.1,3.6,25.7-1.9c7.6-5.5,11.3-14.7,9.7-23.9l-6-34.9c-0.5-3,0.5-6.2,2.7-8.3
			L349.2,256.2z"/>
		<path class="st5" d="M488.7,217.5h-21.4c-3.9,0-7.2-2.7-8.1-6.5c-5.2-23.8-14.6-46.3-27.7-67c-2-3.2-1.5-7.5,1.2-10.2l15.1-15.1
			c9.1-9.1,9.1-23.8,0-32.9l-21.6-21.6c-4.4-4.4-10.2-6.8-16.4-6.8c-6.2,0-12.1,2.4-16.4,6.8l-15.1,15.1c-2.7,2.7-7,3.2-10.2,1.2
			c-20.6-13.2-43.2-22.6-67-27.8c-3.8-0.8-6.5-4.2-6.5-8.1V23.3c0-12.8-10.4-23.3-23.3-23.3h-30.5c-12.8,0-23.3,10.4-23.3,23.3v21.3
			c0,3.9-2.7,7.2-6.5,8.1c-23.8,5.3-46.4,14.6-67,27.8c-3.2,2-7.5,1.6-10.2-1.2l-15.1-15.1c-4.4-4.4-10.2-6.8-16.4-6.8
			c-6.2,0-12.1,2.4-16.4,6.8L64.2,85.8c-4.4,4.4-6.8,10.2-6.8,16.4c0,6.2,2.4,12.1,6.8,16.4l15.1,15.1c2.7,2.7,3.2,7,1.2,10.2
			c-13.2,20.6-22.5,43.1-27.7,67c-0.8,3.8-4.2,6.5-8.1,6.5H23.3C10.4,217.5,0,227.9,0,240.7v30.5c0,12.8,10.4,23.3,23.3,23.3h21.5
			c3.9,0,7.2,2.7,8.1,6.5c5.3,23.8,14.6,46.3,27.8,66.8c2,3.2,1.6,7.5-1.2,10.2l-15.3,15.3c-4.4,4.4-6.8,10.2-6.8,16.4
			c0,6.2,2.4,12.1,6.8,16.4l21.6,21.6c9.1,9.1,23.8,9.1,32.9,0l15.3-15.3c2.7-2.7,7-3.2,10.2-1.2c20.6,13.1,43,22.5,66.8,27.7
			c3.8,0.8,6.5,4.2,6.5,8.1v21.6c0,12.8,10.4,23.3,23.3,23.3h30.5c12.8,0,23.3-10.4,23.3-23.3v-21.6c0-3.9,2.7-7.2,6.5-8.1
			c23.8-5.2,46.2-14.6,66.8-27.7c3.2-2,7.5-1.5,10.2,1.2l15.3,15.3c9.1,9.1,23.8,9.1,32.9,0l21.6-21.6c9.1-9.1,9.1-23.8,0-32.9
			l-15.3-15.3c-2.7-2.7-3.2-7-1.2-10.2c13.2-20.6,22.5-43.1,27.8-66.8c0.8-3.8,4.2-6.5,8.1-6.5h21.5c12.8,0,23.3-10.4,23.3-23.3
			v-30.5C512,227.9,501.6,217.5,488.7,217.5L488.7,217.5z M497,271.3c0,4.5-3.7,8.3-8.3,8.3h-21.5c-11,0-20.3,7.5-22.7,18.3
			c-4.9,22-13.6,42.9-25.8,62c-5.8,9.1-4.5,21.2,3.2,28.9l15.3,15.3c3.2,3.2,3.2,8.5,0,11.7l-21.6,21.6c-3.2,3.2-8.5,3.2-11.7,0
			l-15.3-15.3c-7.7-7.7-19.8-9-28.9-3.2c-19.1,12.2-39.9,20.8-61.9,25.7c-10.8,2.4-18.3,11.7-18.3,22.7v21.6c0,4.5-3.7,8.3-8.3,8.3
			h-30.5c-4.5,0-8.3-3.7-8.3-8.3v-21.6c0-11-7.5-20.3-18.3-22.7c-22-4.9-42.9-13.5-61.9-25.7c-3.8-2.4-8.1-3.6-12.4-3.6
			c-6,0-12,2.3-16.5,6.8l-15.3,15.3c-3.2,3.2-8.4,3.2-11.7,0l-21.6-21.6c-1.6-1.6-2.4-3.6-2.4-5.8c0-2.2,0.9-4.3,2.4-5.8l15.3-15.3
			c7.7-7.7,9-19.8,3.2-28.9c-12.2-19.1-20.9-39.9-25.8-62c-2.4-10.8-11.7-18.3-22.7-18.3H23.3c-4.5,0-8.2-3.7-8.2-8.3v-30.5
			c0-4.5,3.7-8.3,8.2-8.3h21.4c11,0,20.3-7.5,22.7-18.3c4.9-22.1,13.5-43,25.7-62.1c5.8-9.1,4.5-21.2-3.2-28.9l-15.1-15.1
			c-1.6-1.6-2.4-3.6-2.4-5.8c0-2.2,0.9-4.3,2.4-5.8l21.6-21.6c1.6-1.6,3.6-2.4,5.8-2.4s4.3,0.9,5.8,2.4l15.1,15.1
			c7.7,7.7,19.8,9,28.9,3.2c19.1-12.2,40-20.9,62.1-25.8c10.8-2.4,18.3-11.7,18.3-22.7V23.3c0-4.5,3.7-8.3,8.3-8.3h30.5
			c4.5,0,8.3,3.7,8.3,8.3v21.3c0,11,7.5,20.3,18.3,22.7c22.1,4.9,43,13.6,62.1,25.8c9.1,5.8,21.2,4.5,28.9-3.2l15.1-15.1
			c1.6-1.6,3.6-2.4,5.8-2.4c2.2,0,4.3,0.9,5.8,2.4l21.6,21.6c3.2,3.2,3.2,8.5,0,11.7l-15.1,15.1c-7.7,7.7-9,19.8-3.2,28.9
			c12.2,19.1,20.9,40,25.7,62.1c2.4,10.8,11.7,18.3,22.7,18.3h21.4c4.5,0,8.3,3.7,8.3,8.3L497,271.3L497,271.3z"/>
	</g>
</g>
</svg>
