<?xml version="1.0" encoding="utf-8"?>
<!-- Generator: Adobe Illustrator 19.2.1, SVG Export Plug-In . SVG Version: 6.00 Build 0)  -->
<svg version="1.1" id="Слой_1" xmlns="http://www.w3.org/2000/svg" xmlns:xlink="http://www.w3.org/1999/xlink" x="0px" y="0px"
	 width="512px" height="512px" viewBox="0 0 512 512" style="enable-background:new 0 0 512 512;" xml:space="preserve">
<style type="text/css">
	.st0{fill:#E9E9E9;}
	.st1{fill:#D3D2D8;}
	.st2{fill:#FFD3A4;}
	.st3{fill:#FFAC73;}
	.st4{fill:#D19266;}
	.st5{fill:#DBB695;}
	.st6{fill:#FF9494;}
</style>
<path class="st0" d="M95.3,284.9c0,38,71.9,68.8,160.7,68.8s160.7-30.8,160.7-68.8L256,268L95.3,284.9z"/>
<path class="st1" d="M416.7,284.9L256,268l-160.7,17c0,11.5,6.6,22.4,18.3,31.9h56.2c26.3,14.3,55.9,21.8,86.1,21.8
	s59.8-7.5,86.1-21.8h56.2C410,307.3,416.7,296.4,416.7,284.9z"/>
<path class="st2" d="M92.7,264.5l-57.4,22.3C34,308.7,20.7,329.4,13,339.7c-3.4,4.6-4.7,10.4-3.5,16c2.1,9.6,10.9,16.2,20.6,15.5
	c109.5-7.4,147.8-84.4,147.8-84.4L92.7,264.5z"/>
<path class="st2" d="M419.3,264.5l57.4,22.3c1.2,21.9,14.5,42.6,22.3,52.9c3.4,4.6,4.7,10.4,3.5,16c-2.1,9.6-10.9,16.2-20.6,15.5
	c-109.5-7.4-147.8-84.4-147.8-84.4L419.3,264.5z"/>
<path class="st3" d="M35.2,231.4l15.8-64.7c14.1-57.7,55.6-104.9,111.1-126.4h187.6c55.5,21.4,96.9,68.6,111.1,126.4l15.8,64.7
	L256,259.1L35.2,231.4z"/>
<path class="st4" d="M65.2,231.4l15.8-64.7c14.1-57.7,55.6-104.9,111.1-126.4h-30c-55.5,21.4-96.9,68.6-111.1,126.4l-15.8,64.7
	L256,259.1l15-1.9L65.2,231.4z"/>
<path class="st5" d="M484.8,316.3c-4.1-8.9-7.5-19-8.1-29.4l-57.4-22.3l-85.2,22.3c0,0,6.8,13.6,22.8,30h119.8
	C479.5,316.8,482.2,316.6,484.8,316.3z"/>
<path class="st5" d="M35.2,286.8c-0.6,10.4-3.9,20.5-8.1,29.4c2.6,0.4,5.3,0.6,8.1,0.6h119.8c16-16.4,22.8-30,22.8-30l-85.2-22.3
	L35.2,286.8z"/>
<path class="st0" d="M476.8,231.4H35.2c-15.3,0-27.7,12.4-27.7,27.7s12.4,27.7,27.7,27.7h441.5c15.3,0,27.7-12.4,27.7-27.7
	S492.1,231.4,476.8,231.4z"/>
<path class="st1" d="M37.5,259.1c0-15.3,12.4-27.7,27.7-27.7h-30c-15.3,0-27.7,12.4-27.7,27.7s12.4,27.7,27.7,27.7h30
	C49.9,286.8,37.5,274.4,37.5,259.1z"/>
<path class="st2" d="M406.6,158.1c0,83.2-67.4,150.6-150.6,150.6s-150.6-67.4-150.6-150.6C105.4,74.9,172.8,7.5,256,7.5
	S406.6,74.9,406.6,158.1z"/>
<path class="st5" d="M135.4,158.1C135.4,80,194.9,15.8,271,8.2c-4.9-0.5-9.9-0.7-15-0.7c-83.2,0-150.6,67.4-150.6,150.6
	c0,83.2,67.4,150.6,150.6,150.6c5.1,0,10.1-0.3,15-0.7C194.9,300.4,135.4,236.2,135.4,158.1z"/>
<path class="st6" d="M191,221.7h-19.9c-4.1,0-7.5-3.4-7.5-7.5c0-4.1,3.4-7.5,7.5-7.5H191c4.1,0,7.5,3.4,7.5,7.5
	C198.5,218.3,195.1,221.7,191,221.7z"/>
<path class="st6" d="M340.9,221.7H321c-4.1,0-7.5-3.4-7.5-7.5c0-4.1,3.4-7.5,7.5-7.5h19.9c4.1,0,7.5,3.4,7.5,7.5
	C348.4,218.3,345,221.7,340.9,221.7z"/>
<path d="M181,200.2c4.1,0,7.5-3.4,7.5-7.5v-14.6c0-4.1-3.4-7.5-7.5-7.5c-4.1,0-7.5,3.4-7.5,7.5v14.6
	C173.5,196.9,176.9,200.2,181,200.2z"/>
<path d="M331,200.2c4.1,0,7.5-3.4,7.5-7.5v-14.6c0-4.1-3.4-7.5-7.5-7.5c-4.1,0-7.5,3.4-7.5,7.5v14.6
	C323.5,196.9,326.8,200.2,331,200.2z"/>
<path d="M256,220.8c7.4,0,14.3-3.1,19.1-8.5c2.7-3.1,2.4-7.9-0.7-10.6c-3.1-2.7-7.9-2.4-10.6,0.7c-1.9,2.1-4.7,3.4-7.8,3.4
	s-5.9-1.2-7.8-3.4c-2.7-3.1-7.5-3.4-10.6-0.7c-3.1,2.7-3.4,7.5-0.7,10.6C241.7,217.7,248.6,220.8,256,220.8z"/>
<path d="M28.8,378.8c0.6,0,1.2,0,1.8-0.1c50.2-3.4,85.7-21.2,108.8-38.3c31.3,13.4,72.4,20.8,116.6,20.8s85.3-7.4,116.6-20.8
	c23,17.1,58.6,34.9,108.8,38.3c0.6,0,1.2,0.1,1.8,0.1c12.7,0,23.9-9,26.6-21.5c1.7-7.7-0.1-15.8-4.8-22.1
	c-6.4-8.6-16.8-24.6-19.9-41.9c15.4-3.8,26.9-17.7,26.9-34.2c0-17.4-12.7-31.9-29.2-34.7l-14.6-59.5c-4.1-16.8-10.5-33-19.1-48.1
	c-2-3.6-6.6-4.9-10.2-2.8c-3.6,2-4.9,6.6-2.8,10.2c7.8,13.9,13.8,28.8,17.5,44.3l13.6,55.4h-67.4c8.2-17.9,13-37.3,14.1-57
	c1.9-34.7-7.7-69.5-27.4-98.2c12.6,9.1,24,19.9,33.8,32.1c2.6,3.2,7.3,3.7,10.5,1.1c3.2-2.6,3.7-7.3,1.1-10.5
	c-20.7-25.7-47.8-45.6-78.4-57.7C326.6,12.6,292.7,0,256,0c-36.7,0-70.6,12.6-97.4,33.7c-26.1,10.3-50,26.5-69.2,47
	c-19.3,20.7-34,45.9-42.4,72.8c-1.2,4,1,8.2,4.9,9.4c4,1.2,8.2-1,9.4-4.9c7.8-24.9,21.3-48,39-67.1c7.6-8.2,16.1-15.6,25.2-22.2
	c-14.9,21.6-24.1,46.7-26.8,73.2c0,0.1,0,0.1,0,0.2c-2.8,27.9,1.8,56.4,13.5,81.8H44.8l9.2-37.4c1-4-1.5-8.1-5.5-9.1
	c-4-1-8.1,1.5-9.1,5.5l-10.2,41.5C12.7,227.2,0,241.7,0,259.1c0,16.6,11.5,30.5,26.9,34.2c-3.1,17.3-13.5,33.3-19.9,41.9
	c-4.7,6.3-6.5,14.4-4.8,22.1C4.8,369.6,16.3,378.8,28.8,378.8z M256,346.2c-38.2,0-75-6-103.3-16.6c0.9-0.8,1.8-1.6,2.6-2.4
	c12.8-12,20.9-23.2,25.3-30.1c7.8,4.2,16,7.8,24.3,10.6c32.7,11.2,69.2,11.3,102.1,0c8.4-2.9,16.5-6.4,24.4-10.7
	c-0.2,0.2,6.8,9.6,7.6,10.7c6,7.7,12.7,14.9,19.9,21.4c0.1,0.1,0.3,0.3,0.4,0.4C331,340.2,294.2,346.2,256,346.2z M495.2,354.1
	c-1.3,5.9-6.7,10.1-12.8,9.6c-52-3.5-103.6-26.3-134.7-69.4H470c3.3,21,15.5,39.9,23,49.9C495.1,347,495.9,350.7,495.2,354.1z
	 M476.8,238.9c11.2,0,20.2,9.1,20.2,20.2s-9.1,20.2-20.2,20.2H357.4c13.6-11.4,25.3-25.1,34.5-40.5H476.8z M397.3,136.1
	c13.8,84.6-56.3,165-141.3,165c-77.5,0-143.1-65.5-143.1-143.1C112.9,80.5,177.9,15,256,15C325.8,15,386.3,68.8,397.3,136.1z
	 M15,259.1c0-11.2,9.1-20.2,20.2-20.2h84.9c9.1,15.4,20.8,29.1,34.5,40.5H35.2C24.1,279.3,15,270.3,15,259.1z M16.8,354.1
	c-0.8-3.5,0-7.1,2.1-9.9c7.5-10,19.6-28.9,23-49.9h122.3c-14.9,20.7-55.4,64.1-134.7,69.4C23.7,364.2,18.1,360,16.8,354.1z"/>
</svg>
