<?xml version="1.0" encoding="utf-8"?>
<!-- Generator: Adobe Illustrator 19.2.1, SVG Export Plug-In . SVG Version: 6.00 Build 0)  -->
<svg version="1.1" id="Capa_1" xmlns="http://www.w3.org/2000/svg" xmlns:xlink="http://www.w3.org/1999/xlink" x="0px" y="0px"
	 width="512px" height="512px" viewBox="0 0 512 512" style="enable-background:new 0 0 512 512;" xml:space="preserve">
<style type="text/css">
	.st0{fill:#FFAC73;}
	.st1{fill:#98CBEA;}
	.st2{fill:#71AEC6;}
</style>
<g>
	<path class="st0" d="M407.4,87.3c0,9.2-1.6,25.9-3.5,47.2l82-35.9l-84.7-41.8C405.2,66.3,407.4,76.6,407.4,87.3z"/>
	<path class="st1" d="M403.9,134.5c1.9-21.2,3.5-37.9,3.5-47.2c0-10.7-2.2-21-6.1-30.4C375.2-5.9,227.1-27.3,204,133.1
		c-0.7,5.1-1.5,10.1-2.3,15.1c56-31.8,130.8,3.6,125.8,79.2c-15,104.5-130.7,131.9-210.2,130.7c-7.6,13.6-14,22.8-19.1,29.9
		c19.5,10.8,44.3,17.4,71.2,19.6c31.6,2.6,66.2-0.8,98.7-10.5c68.5-20.5,127.4-69,128.7-148C397.4,207.2,401.1,165.9,403.9,134.5z"
		/>
	<path class="st2" d="M327.5,227.4c5-75.6-69.8-110.9-125.8-79.2c-22.2,12.6-41.5,35.8-51.5,71.3c-27.3,96.4-88.8,97.8-106.4,115.2
		C33,345.4,66,356.7,113,358c1.4,0,2.9,0.1,4.3,0.1C196.8,359.3,312.5,331.9,327.5,227.4z"/>
	<path class="st1" d="M169.4,407.6c-26.9-2.2-51.7-8.8-71.2-19.6l-49.8,69.5C100.7,470,156.1,446.5,169.4,407.6z"/>
	<path class="st2" d="M169.4,407.6c-13.3,38.9-68.7,62.4-120.9,49.9l-22.4,31.3c106.7,37.5,226.9-8.3,242-91.7
		C235.6,406.8,201,410.2,169.4,407.6z"/>
</g>
<path d="M490.4,89.7l-81.5-40.2c-7.6-15.7-21.9-29.1-40.5-38.1c-19.7-9.5-42.7-13.3-64.8-10.5c-26.4,3.3-50.2,15.6-68.6,35.5
	c-21.3,22.9-35,55-40.8,95.3c-0.5,3.4-1,6.9-1.6,10.3c-21.9,13.8-41.4,37.6-52,74.8c-19.3,68-56.4,85.6-81,97.1
	c-9.2,4.4-17.2,8.1-22.8,13.7c-4.8,4.7-6.2,10.9-4,16.6c3.1,7.8,12.3,13.3,29.2,17.6c10.7,2.7,23.9,4.6,38.2,5.6
	c-3.6,5.6-6.9,10.4-10,14.8l-49.7,69.4c0,0,0,0,0,0.1L17.9,483c-1.8,2.6-2.4,5.8-1.4,8.8c0.9,3,3.3,5.4,6.2,6.4
	c26.3,9.2,54,13.8,81.4,13.8c39.2,0,77.5-9.4,109-27.7c33.5-19.5,55.9-47.5,63.6-79.4c16.6-5.4,32.2-12.2,46.4-20.4
	c25.1-14.5,45-32.8,59.2-54.2c15.8-23.9,24-51.1,24.5-81c0.6-38.9,3.9-77.8,6.6-108l76.6-33.5c3.6-1.6,5.9-5,6-8.9
	C496,95,493.9,91.4,490.4,89.7z M55.1,338.6c3.4-2.1,8-4.2,13-6.6c26.1-12.3,69.9-33,91.7-109.8c15.8-55.8,54.6-75.7,85.7-75.7
	c20.5,0,39.9,8.2,53.2,22.5c13.7,14.7,20.2,34.5,18.8,57.3c-6.2,42.4-30.8,74.7-73,95.9c-44.9,22.5-95.9,25.9-122.4,25.9
	c0,0,0,0,0,0c-1.6,0-3.1,0-4.7,0c0,0,0,0,0,0c-1.4,0-2.8,0-4.2-0.1C83.3,347.2,63.5,342.4,55.1,338.6z M101.4,400.8
	c15.4,7.2,33.3,12.4,52.8,15.1c-15.8,23.7-52,37.8-88.2,34.3L101.4,400.8z M203,467c-45,26.2-105.5,32.1-160.8,16.4l10.6-14.8
	c8.1,1.5,16.3,2.2,24.3,2.2c43.2,0,83.5-20.7,98.8-52.8c4.7,0.3,9.4,0.4,14.2,0.4c4.4,0,8.9-0.1,13.3-0.3c17-0.8,33.9-3.2,50.3-6.9
	C245.2,433.2,227.7,452.7,203,467z M313,367.2c-14.5,8.4-30.5,15.1-47.2,20.2c-0.4,0.1-0.8,0.2-1.3,0.4c-30.1,9-62.4,12.5-92.3,10.3
	c-1.3-0.4-2.7-0.5-4-0.3c-20.1-1.8-38.9-6.3-55.2-13.5c3.1-4.7,6.5-9.9,10-16.1c28.5-0.1,82.4-3.9,130.4-28
	c22.4-11.3,40.8-25.7,54.6-42.8c15.7-19.5,25.5-42.5,29.3-68.5c0-0.3,0.1-0.5,0.1-0.8c1.9-28.6-6.4-53.8-24.1-72.7
	c-17.1-18.3-41.9-28.8-67.8-28.8c-10,0-20.6,1.6-31.1,5.1c10.1-64.5,43.4-104.9,91.7-111c36.9-4.7,74.7,12.9,85.9,40
	c3.5,8.5,5.3,17.5,5.3,26.6c0,8.4-1.4,23.9-3.2,43.6c-0.1,0.9-0.2,1.8-0.3,2.8c0,0,0,0,0,0c-2.8,31.2-6.5,73.1-7.2,115.3
	C385.8,312,346.1,348,313,367.2z M415.4,118.6c1.2-13.5,2-24.3,2-31.3c0-3.9-0.3-7.9-0.8-11.7l45.7,22.5L415.4,118.6z"/>
<path d="M232.7,310.3c1.5,0,3-0.3,4.5-1.1c37-18.6,59.6-47.7,65.3-83.9c0.9-5.5-2.9-10.6-8.3-11.4c-5.5-0.9-10.6,2.9-11.4,8.3
	c-4.7,30.1-23,53.3-54.5,69.2c-4.9,2.5-6.9,8.5-4.4,13.4C225.6,308.3,229.1,310.3,232.7,310.3z"/>
<path d="M324.4,56.7c-16.7-1.2-31.7,7.2-37.4,21c-2.1,5.1,0.3,10.9,5.4,13c5.1,2.1,10.9-0.3,13-5.4c2.7-6.6,10.9-9.1,17.4-8.7
	c3.3,0.2,11.1,1.6,13,9.4c1.1,4.6,5.2,7.6,9.7,7.6c0.8,0,1.6-0.1,2.4-0.3c5.4-1.3,8.6-6.8,7.3-12.1C351.9,67.2,340,57.8,324.4,56.7z
	"/>
</svg>
