<?xml version="1.0" encoding="utf-8"?>
<!-- Generator: Adobe Illustrator 19.2.1, SVG Export Plug-In . SVG Version: 6.00 Build 0)  -->
<svg version="1.1" id="Слой_1" xmlns="http://www.w3.org/2000/svg" xmlns:xlink="http://www.w3.org/1999/xlink" x="0px" y="0px"
	 width="512px" height="512px" viewBox="0 0 512 512" style="enable-background:new 0 0 512 512;" xml:space="preserve">
<style type="text/css">
	.st0{fill:#E9E9E9;}
	.st1{fill:#D3D2D8;}
</style>
<path class="st0" d="M95.9,350.2c-2.6-2.6-3.8-6.3-3.2-10c0.9-6.4-3.4-12.3-9.8-13.4c-3.6-0.6-6.8-2.9-8.5-6.2c-3-5.7-10-8-15.8-5.1
	c-3.3,1.6-7.2,1.6-10.5,0c-5.8-2.8-12.8-0.6-15.8,5.1c-1.7,3.3-4.9,5.5-8.5,6.2c-6.3,1.1-10.7,7.1-9.8,13.4c0.5,3.6-0.7,7.3-3.2,10
	c-4.5,4.6-4.5,12,0,16.6c2.6,2.6,3.8,6.3,3.2,10c-0.9,6.4,3.4,12.3,9.8,13.4c3.6,0.6,6.8,2.9,8.5,6.2c3,5.7,10,8,15.8,5.1
	c3.3-1.6,7.2-1.6,10.5,0c5.8,2.8,12.8,0.6,15.8-5.1c1.7-3.3,4.9-5.5,8.5-6.2c6.3-1.1,10.7-7.1,9.8-13.4c-0.5-3.6,0.7-7.3,3.2-10
	C100.4,362.2,100.4,354.9,95.9,350.2z"/>
<path class="st1" d="M82.9,390.3c6.3-1.1,10.7-7.1,9.8-13.4c-0.5-3.6,0.7-7.3,3.2-10c4.5-4.6,4.5-12,0-16.6c-2.6-2.6-3.8-6.3-3.2-10
	c0.8-5.7-2.6-11.1-7.9-12.9c-2.2,1.9-4.4,3.9-6.5,6c-18.8,18.8-30.3,43.1-33,69.2c1-0.2,2-0.5,2.9-1c3.3-1.6,7.2-1.6,10.5,0
	c5.8,2.8,12.8,0.6,15.8-5.1C76.2,393.2,79.3,390.9,82.9,390.3z"/>
<g>
	<path class="st0" d="M264.7,504.5c12.9,0,20.8-14,14.4-25.1c-4.7-8.1-11.9-15-22.7-15c35.4-21.2,47.5-62.5,47.5-62.5L239,372.5
		c-15.1-28.5-45-47.8-79.5-47.8c-49.6,0-89.9,40.3-89.9,89.9c0,49.7,40.3,89.9,89.9,89.9L264.7,504.5L264.7,504.5z"/>
	<path class="st0" d="M221.9,54.8c33.2,79.9,44.5,151.1,25.3,159.1c-19.2,8-61.8-50.3-95-130.1C119,4,188.7-25,221.9,54.8z"/>
	<path class="st0" d="M352.8,54.8c-33.2,79.9-44.5,151.1-25.3,159.1c19.2,8,61.8-50.3,95-130.1S386-25,352.8,54.8z"/>
</g>
<path class="st1" d="M247.2,213.9c11.3-4.7,12.1-31.4,3.9-68.9c-21.3,4-39.8,11.8-55.4,23.3C216.5,200.4,235.9,218.6,247.2,213.9z"
	/>
<path class="st1" d="M327.5,213.9c11.3,4.7,30.7-13.5,51.5-45.6c-15.6-11.5-34.1-19.3-55.4-23.3
	C315.5,182.5,316.2,209.2,327.5,213.9z"/>
<path class="st1" d="M239,372.5c-15.1-28.5-45-47.8-79.5-47.8c-4.7,0-9.2,0.4-13.7,1c0.4,14.9,3.2,39.7,21.5,61.1
	c23.2,27.2,62.5,40.5,120.1,40.5c1.6,0,3.2,0,4.8,0c8.4-13.9,11.8-25.4,11.8-25.4L239,372.5z"/>
<path class="st0" d="M287.4,402.4c-113.9,0-116.6-56.6-116.6-83.6c0-27-10.1-147,116.6-147c126.7,0,116.6,120,116.6,147
	C404,345.7,401.3,402.4,287.4,402.4z"/>
<path d="M229.1,307.4c4.1,0,7.5-3.4,7.5-7.5v-10.5c0-4.1-3.4-7.5-7.5-7.5s-7.5,3.4-7.5,7.5v10.5C221.6,304,224.9,307.4,229.1,307.4z
	"/>
<path d="M345.6,307.4c4.1,0,7.5-3.4,7.5-7.5v-10.5c0-4.1-3.4-7.5-7.5-7.5c-4.1,0-7.5,3.4-7.5,7.5v10.5
	C338.1,304,341.5,307.4,345.6,307.4z"/>
<path d="M273.5,303.5c4.2,1.8,8.9,2.8,13.8,2.8s9.6-1,13.8-2.8c4.4-1.9,3.1-8.5-1.7-8.5h-24.2C270.4,295,269.1,301.6,273.5,303.5z"
	/>
<path d="M274.5,332.8c4.6,0,9.1-1.3,12.9-3.6c3.8,2.3,8.3,3.6,12.9,3.6c7.2,0,13.9-3,18.5-8.3c2.7-3.1,2.4-7.9-0.7-10.6
	s-7.9-2.4-10.6,0.7c-1.7,2-4.4,3.1-7.2,3.1s-5.5-1.1-7.2-3.1c-2.9-3.4-8.4-3.4-11.3,0c-1.7,2-4.4,3.1-7.2,3.1
	c-2.9,0-5.5-1.1-7.2-3.1c-2.7-3.1-7.5-3.4-10.6-0.7c-3.1,2.7-3.4,7.5-0.7,10.6C260.5,329.8,267.3,332.8,274.5,332.8z"/>
<path d="M22.6,397.6c1.4,0.2,2.5,1.1,3.2,2.3c3.4,6.4,10,10.3,17.2,10.3c3,0,5.8-0.7,8.5-2c1.2-0.6,2.7-0.6,3.9,0
	c2.2,1.1,4.5,1.7,6.8,1.9c-0.1,1.5-0.1,2.9-0.1,4.4c0,53.7,43.7,97.4,97.4,97.4h105.2c18.3,0,30.1-20.5,20.8-36.4
	c-3.9-6.6-8.2-11-12.6-13.9c21.7-18.2,32.6-42.3,36.5-52.7c39.8-2.9,68.3-14.2,84.8-33.5c15.1-17.7,17-40,17.5-62.3
	c0.4-24,1.5-80.3-34.3-116.7c-1.7-1.8-3.5-3.5-5.4-5.1c16.7-21.7,35.1-53.9,51-89.7c1.7-3.8,0-8.2-3.8-9.9c-3.8-1.7-8.2,0-9.9,3.8
	c-15.6,34.9-33.3,66.1-49.4,86.9c-8.4-5.3-17.7-9.4-28-12.4c-0.2-0.1-4.8-1.3-4.8-1.3c3.9-29.9,15.6-69.9,32.7-111.1
	c14.7-35.4,35.8-46.4,49.1-41.7c16.7,5.9,17.4,31.5,11.1,52.7c-1.2,4,1.1,8.1,5,9.3s8.1-1.1,9.3-5c11.9-39.8-1.7-64.4-20.4-71.1
	c-11.5-4.1-24.4-1.6-36.5,6.9C364.8,17.7,354,32.6,345.9,52c-17.4,41.9-29.5,82.9-33.6,114c-7.9-1.1-16.2-1.7-24.9-1.7
	c-8.7,0-17,0.6-24.9,1.7c-4.2-31.1-16.2-72.1-33.6-114C209.7,6.1,179.4-5.8,159.3,2.5c-32.5,13.5-24.4,59.1-14,84.2
	c7.6,18.2,15.8,35.7,24.4,51.9c1.9,3.7,6.5,5.1,10.1,3.1c3.7-1.9,5.1-6.5,3.1-10.1c-8.4-15.8-16.4-32.9-23.8-50.7
	c-7-16.8-17.6-54.8,5.9-64.6c13.9-5.8,35.5,6.6,49.9,41.4c17.1,41.2,28.9,81.2,32.7,111.1c0,0-4.6,1.3-4.8,1.3
	c-10.3,3-19.6,7.1-28,12.4c-5.6-7.3-11.5-15.8-17.5-25.6c-2.2-3.5-6.8-4.6-10.3-2.5c-3.5,2.2-4.6,6.8-2.5,10.3
	c6.2,10.1,12.3,19,18.2,26.7c-1.9,1.6-3.7,3.3-5.4,5.1c-35.8,36.4-34.7,92.7-34.3,116.7c0,1.5,0.1,2.8,0.1,4
	c-1.2-0.1-2.5-0.1-3.7-0.1c-21.7,0-42.3,7.1-59.2,20.1c-0.6-8.8-7-16.3-16-17.8c-1.4-0.2-2.5-1.1-3.2-2.3
	c-4.8-9.1-16.4-12.9-25.7-8.4c-1.2,0.6-2.7,0.6-3.9,0c-9.3-4.6-20.9-0.8-25.7,8.4c-0.6,1.2-1.8,2.1-3.2,2.3
	c-10.4,1.8-17.4,11.4-15.9,21.9c0.2,1.4-0.2,2.7-1.2,3.7c-7.3,7.6-7.3,19.5,0,27c1,1,1.4,2.3,1.2,3.7
	C5.2,386.2,12.2,395.8,22.6,397.6z M208.1,207.1c20.6-21,50.7-27.8,79.2-27.8c28.4,0,58.7,6.8,79.2,27.8
	c31.3,31.9,30.4,83.8,30,105.9c-0.3,18.9-0.9,37.6-13.9,52.9c-21.6,25.4-60.1,28.6-91.2,29c-30,0.4-65.7-1.6-90.6-20.6
	c0,0-0.1-0.1-0.1-0.1c-19.1-14.7-22.3-38.6-22.7-61.2C177.7,290.8,176.8,239,208.1,207.1z M159.5,332.2c1.4,0,2.8,0,4.2,0.1
	c0.2,2.1,0.4,4.3,0.8,6.6c3.7,23.8,17.9,43.4,39.1,54.7c0,0,0,0,0,0c27.4,13.4,58.8,16.8,89,16.2c0.1,0,0.2,0,0.2,0
	c-5.7,12.8-18.1,34.8-40.3,48.1c-3.3,2-4.5,6.4-2.9,9.8c1.3,2.5,3.9,4.2,6.7,4.2c6.5,0,11.8,3.7,16.2,11.3
	c3.5,6.1-0.9,13.8-7.9,13.8h-36c2.9-6.9,2.4-14.7-1.5-21.4c-6.5-11.2-14.5-16-21.5-17.8c-0.2-7.7-1.7-20.2-8.2-30.9
	c-2.2-3.5-6.8-4.7-10.3-2.5s-4.7,6.8-2.5,10.3c7.4,12.1,5.9,28.8,5.9,28.9c-0.4,4.4,3.1,8.2,7.5,8.2c6.5,0,11.8,3.7,16.2,11.3
	c3.5,6-0.9,13.8-7.9,13.8h-46.9c-45.4,0-82.4-37-82.4-82.4c0-21.8,8.9-43.1,24.4-58.5C117,340.7,137.6,332.2,159.5,332.2z
	 M16.3,355.5c4.2-4.3,6.1-10.3,5.3-16.2c-0.3-2.4,1.3-4.6,3.6-5c5.9-1,11-4.7,13.8-10c1.1-2.1,3.8-2.9,5.9-1.9
	c5.3,2.6,11.8,2.6,17.1,0c2.1-1,4.8-0.2,5.9,1.9c2.8,5.3,7.9,9,13.8,10c2.4,0.4,4,2.6,3.6,5c-0.5,3.7,0,7.4,1.5,10.6
	c-0.1,0.1-0.1,0.1-0.2,0.2c-11.3,12.8-19.2,28.5-22.6,45.2c-0.7,0-1.4-0.1-2.1-0.4c-5.3-2.6-11.8-2.6-17.1,0c-2.1,1-4.8,0.2-5.9-1.9
	c-2.8-5.3-7.9-9-13.8-10c-2.4-0.4-4-2.6-3.6-5c0.8-6-1.1-11.9-5.3-16.2C14.6,359.9,14.6,357.2,16.3,355.5z"/>
</svg>
