<?xml version="1.0" encoding="utf-8"?>
<!-- Generator: Adobe Illustrator 19.2.1, SVG Export Plug-In . SVG Version: 6.00 Build 0)  -->
<svg version="1.1" id="Слой_1" xmlns="http://www.w3.org/2000/svg" xmlns:xlink="http://www.w3.org/1999/xlink" x="0px" y="0px"
	 width="512px" height="512px" viewBox="0 0 512 512" style="enable-background:new 0 0 512 512;" xml:space="preserve">
<style type="text/css">
	.st0{fill:#DDC1AF;}
	.st1{fill:#FF9494;}
	.st2{fill:#C4AEA1;}
	.st3{fill:#E9E9E9;}
	.st4{fill:#D3D2D8;}
	.st5{fill:#EEE07D;}
	.st6{fill:#424952;}
</style>
<path class="st0" d="M319.3,309.6l-128.6-64.3L62.2,309.6c-22.5,38.3-45.7,108.8,25.5,179.2c10.2,10.1,24.1,15.7,38.4,15.7h129.2
	c14.4,0,28.2-5.6,38.4-15.7C365,418.4,341.8,347.9,319.3,309.6z"/>
<path class="st1" d="M319.3,309.6c-12.6,6.5-26.9,11.7-42.9,15.6c-24.3,6-53.1,9-85.7,9s-61.4-3-85.7-9c-16-3.9-30.3-9.2-42.9-15.6
	c10.8-18.3,21.3-29.3,21.3-29.3H298C298,280.4,308.6,291.3,319.3,309.6z"/>
<path class="st0" d="M99.4,34.8c0,0-27.3-24.1-69.8-17.9c-9.8,1.4-17.7,9-19.6,18.7c-4.8,24.1-7.3,72.8,34.5,118.4L99.4,34.8z"/>
<path class="st0" d="M282.1,34.8c0,0,27.3-24.1,69.8-17.9c9.8,1.4,17.7,9,19.6,18.7c4.8,24.1,7.3,72.8-34.5,118.4L282.1,34.8z"/>
<path class="st2" d="M308.8,31.7c-2.7-2.7-5.5-5.4-8.4-7.9c-11.7,5.2-18.3,11-18.3,11L337,154.1c7.3-7.9,13.2-16,18-23.9
	C351.2,104.5,340.2,63.5,308.8,31.7z"/>
<path class="st2" d="M26.6,130.1c4.8,8,10.7,16,18,23.9L99.4,34.8c0,0-6.6-5.8-18.3-11c-2.9,2.5-5.7,5.1-8.4,7.9
	C41.3,63.5,30.4,104.5,26.6,130.1z"/>
<path class="st3" d="M48.7,49.5L48.7,49.5c-4.7,0-8.5,3.6-9,8.1c-2.2,21.3,0.7,54.3,29.5,85.7L87.3,62
	C86.6,61.4,71.9,49.5,48.7,49.5z"/>
<path class="st3" d="M332.9,49.5L332.9,49.5c4.7,0,8.5,3.6,9,8.1c2.2,21.3-0.7,54.3-29.5,85.7L294.2,62
	C294.9,61.4,309.6,49.5,332.9,49.5z"/>
<path class="st4" d="M324.1,50.1c-18.2,2.4-29.3,11.5-29.9,12l18.1,81.3c19.4-21.2,27-43,29.3-61.5
	C337.2,71.3,331.5,60.4,324.1,50.1z"/>
<path class="st4" d="M39.9,81.8c2.3,18.5,9.9,40.3,29.3,61.5L87.3,62c-0.6-0.5-11.7-9.6-29.9-12C50,60.4,44.3,71.3,39.9,81.8z"/>
<path class="st0" d="M337,154.1c0,0,1.4-146.6-146.2-146.6S44.5,154.1,44.5,154.1s-54.4,106.3,69,136.6c20.5,5,45.9,7.9,77.2,7.9
	s56.7-2.9,77.2-7.9C391.4,260.4,337,154.1,337,154.1z"/>
<path class="st3" d="M165.8,142.5c-17.1,6.1-24.9,18.3-28.5,28c-3.3,8.9-8.8,16.7-16,22.8c-16.4,14.1-38.9,45.2-7.7,97.3v0
	c20.5,5,45.9,7.9,77.2,7.9s56.7-2.9,77.2-7.9v0c31.2-52,8.7-83.2-7.7-97.3c-7.2-6.2-12.7-14-16-22.8c-3.6-9.6-11.4-21.8-28.4-28
	l-0.1,0H165.8z"/>
<path class="st5" d="M208.6,344.4c0,9.9-8,17.9-17.9,17.9s-17.9-8-17.9-17.9c0-9.9,8-17.9,17.9-17.9S208.6,334.5,208.6,344.4z"/>
<path class="st6" d="M190.8,138.6c-10,0-18.2,1.5-25,3.9c1.9,12.1,12.3,21.4,25,21.4s23.1-9.3,25-21.4
	C209,140.1,200.7,138.6,190.8,138.6z"/>
<path d="M114.4,135.2c-4.1,0-7.5,3.4-7.5,7.5v13.8c0,4.1,3.4,7.5,7.5,7.5c4.1,0,7.5-3.4,7.5-7.5v-13.8
	C121.9,138.6,118.6,135.2,114.4,135.2z"/>
<path d="M267.1,135.2c-4.1,0-7.5,3.4-7.5,7.5v13.8c0,4.1,3.4,7.5,7.5,7.5c4.1,0,7.5-3.4,7.5-7.5v-13.8
	C274.6,138.6,271.2,135.2,267.1,135.2z"/>
<path d="M153.4,192.2c5.3,6.1,13.2,9.6,21.5,9.6c5.7,0,11.2-1.7,15.8-4.7c4.6,3,10.1,4.7,15.8,4.7c8.3,0,16.2-3.5,21.5-9.6
	c2.7-3.1,2.4-7.9-0.7-10.6c-3.1-2.7-7.9-2.4-10.6,0.7c-5.2,5.9-15.2,5.9-20.4,0c-2.9-3.4-8.4-3.4-11.3,0c-5.2,5.9-15.2,5.9-20.4,0
	c-2.7-3.1-7.5-3.4-10.6-0.7C151,184.3,150.7,189.1,153.4,192.2z"/>
<path d="M378.8,34.2c-2.6-12.9-13-22.8-25.9-24.7c-5-0.7-10-1.1-15-1.1c-27.5,0-47.3,11.1-56,17.1C257.6,8.6,227,0,190.8,0
	c-36.3,0-66.8,8.6-91.2,25.5c-8.7-6-28.5-17.1-56-17.1C25.5,8.4,6.7,14,2.7,34.2c-5.1,25.5-7.3,74.5,33,121.2
	c-5.6,13.2-19.1,51.6-2.9,87c7.6,16.7,20.6,30.1,38.9,40.3c-4.2,5.3-10,13.1-15.9,23.1c-16,27.2-32.1,69.7-18.1,117.3
	c1,3.3,3.9,5.4,7.2,5.4c0.7,0,1.4-0.1,2.1-0.3c4-1.2,6.2-5.3,5.1-9.3c-11.5-39.2,0-74.8,13.2-99.5c23.3,10.8,48.7,16.5,74.1,19.4
	c1,0.1,26.2,2.8,26.2,2.2c0,0.1,0,0.2,0,0.3c-0.7,5.6,0.6,11.4,3.5,16.2c4.5,7.5,12.9,12.2,21.7,12.2c8.7,0,17.2-4.8,21.7-12.2
	c3-4.9,4.1-10.6,3.5-16.2c0-0.1,0-0.2,0-0.3c1-0.1,2-0.1,3.1-0.2c14.5-0.9,29.1-2.4,43.4-5c3.7-0.7,6.4-4.2,6.1-8
	c-0.3-4.3-4.5-7.6-8.8-6.8c-16.2,2.9-32.6,4.5-49,5.2c-0.7,0-1.4,0.1-2,0.1c-4.3-4.3-10.1-7-16.6-7.3c-0.8,0-1.7,0-2.5,0
	c-6.5,0.3-12.3,3.1-16.6,7.3c-0.2,0-0.4,0-0.7,0c-9.7-0.4-19.6-1.1-29.3-2.2c-24-2.7-47.9-7.8-69.9-17.7c5-7.7,9.6-13.5,12.6-17
	c0.2,0.1,0.3,0.1,0.5,0.2c33,13.6,69.4,16.5,104.8,16.5c35.2,0,71.8-2.8,104.8-16.5c0.2-0.1,0.3-0.1,0.5-0.2c3,3.5,7.6,9.3,12.6,17
	c-0.2,0.1-14.1,5.7-20.9,7.9c-3.9,1.2-6.1,5.5-4.9,9.4c1.2,3.9,5.5,6.1,9.4,4.9c8.1-2.5,24.1-9.2,24.2-9.2c9,16.8,18.2,40.7,18,67.7
	c-0.3,34.3-15.7,66.7-45.7,96.3c-8.9,8.7-20.6,13.6-33.2,13.6h-4.3c9.3-16.2,23.5-47.8,23.5-89.9c0-4.1-3.4-7.5-7.5-7.5
	c-4.1,0-7.5,3.4-7.5,7.5c0,47.1-19.8,80.3-26.2,89.9h-35.1v-89.9c0-4.1-3.4-7.5-7.5-7.5c-4.1,0-7.5,3.4-7.5,7.5V497h-35.1
	c-6.5-9.6-26.2-42.6-26.2-89.9c0-4.1-3.4-7.5-7.5-7.5s-7.5,3.4-7.5,7.5c0,42.2,14.2,73.7,23.5,89.9h-4.3c-12.5,0-24.3-4.8-33.2-13.6
	c-12.5-12.3-22.6-25.3-29.9-38.6c-2-3.6-6.6-4.9-10.2-2.9c-3.6,2-4.9,6.6-2.9,10.2c8.1,14.5,19,28.6,32.5,42
	c11.7,11.5,27.2,17.9,43.7,17.9h129.2c16.5,0,32-6.4,43.7-17.9c75.6-74.7,49.2-150,26.7-188.3c-5.9-10-11.7-17.8-15.9-23.1
	c18.2-10.2,31.2-23.7,38.9-40.3c16.2-35.4,2.7-73.8-2.9-87C386.1,108.7,383.9,59.7,378.8,34.2z M184.1,336.5
	c1.8-1.6,4.2-2.5,6.6-2.5c5.6,0,10.4,4.8,10.4,10.4c0,5.7-4.7,10.4-10.4,10.4c-5.6,0-10.4-4.8-10.4-10.4
	C180.4,341.3,181.9,338.5,184.1,336.5z M332.2,91.7c-4.1-10.6-9.5-21.6-16.7-32.1c4.8-1.5,10.7-2.6,17.4-2.6c0.7,0,1.4,0.6,1.5,1.4
	C335.3,67,335.4,78.7,332.2,91.7z M47.1,58.4c0.1-0.8,0.7-1.4,1.5-1.4c6.6,0,12.5,1.1,17.3,2.6c-7.2,10.6-12.6,21.5-16.7,32.1
	C46.2,78.7,46.2,67,47.1,58.4z M17.4,37.1C19.9,24.5,33,23.4,43.6,23.4c19.8,0,35.1,6.9,43.5,12c-1.9,1.7-3.7,3.4-5.4,5.2
	c-2.1,2.1-6,6.5-6,6.5c-6.8-2.7-16-5.1-27-5.1c-8.4,0-15.5,6.4-16.4,14.9c-1.5,14.3-1,36,9.7,59.1c-1.6,6.9-2.7,13.2-3.4,18.7
	C11.3,96.3,13.3,57.9,17.4,37.1z M161.2,152.9c5.3,11.1,16.6,18.5,29.5,18.5c12.9,0,24.2-7.4,29.5-18.5c7.2,4.1,13.3,10.5,16.9,20.2
	c3.7,9.9,10,18.9,18.2,25.9c17.3,14.9,32.5,41.6,7.7,85c-23.7,5.4-48.1,7-72.3,7s-48.6-1.6-72.3-7c-24.8-43.4-9.6-70.1,7.7-85
	c8.2-7,14.5-16,18.2-25.9C147.9,163.4,154.1,157,161.2,152.9z M190.8,146.1c5.1,0,10.3,0.4,15.3,1.5c-3.1,5.3-8.9,8.8-15.3,8.8
	s-12.2-3.5-15.3-8.8C177.1,147.3,187.3,146.1,190.8,146.1z M335.1,236.1c-9,19.6-27.5,32.6-47,40.3c-1.7,0.7-3.5,1.4-5.4,2
	c8.1-18.6,10.3-36.2,6.5-52.4c-4.3-18.3-15.5-31-24.1-38.4c-6.3-5.4-11.1-12.2-13.9-19.8c-3.7-10-12.5-24.9-32.7-32.3
	c-8.8-3.2-18.4-4.5-27.8-4.5c-9.3,0-19.1,1-27.8,4.5c-20.2,7.4-29,22.3-32.7,32.3c-2.8,7.5-7.6,14.4-13.9,19.8
	c-8.6,7.4-19.8,20.1-24.1,38.4c-3.8,16.2-1.6,33.8,6.5,52.4c-3.9-1.4-7.7-2.9-11.4-4.6c-19.9-9.1-33.6-21.7-41-37.7
	c-16.5-36,4.6-78.3,4.8-78.7c0.5-1.1,0.8-2.3,0.8-3.5c0-0.7,0.1-73.6,51.9-113.2c0.1,0,0.1-0.1,0.2-0.1
	C126.6,23.6,155.7,15,190.8,15c35.1,0,64.1,8.6,86.6,25.7c0.1,0,0.1,0.1,0.2,0.1c48.4,36.9,51.7,102.9,51.9,112.1
	c0,1.5,0.1,3.2,0.8,4.6C330.5,157.9,351.6,200,335.1,236.1z M343,134.7c-0.7-5.4-1.8-11.8-3.4-18.7c10.6-23.2,11.2-44.8,9.7-59.2
	c-0.9-8.5-7.9-14.8-16.5-14.8c-10.9,0-20.1,2.4-26.9,5.1c0,0-9.6-10.1-11.5-11.7c8.4-5,23.6-11.9,43.5-11.9
	c10.6,0,23.6,1.1,26.1,13.7C368.2,57.9,370.2,96.3,343,134.7z"/>
</svg>
