<?xml version="1.0" encoding="utf-8"?>
<!-- Generator: Adobe Illustrator 19.2.1, SVG Export Plug-In . SVG Version: 6.00 Build 0)  -->
<svg version="1.1" id="Слой_1" xmlns="http://www.w3.org/2000/svg" xmlns:xlink="http://www.w3.org/1999/xlink" x="0px" y="0px"
	 width="512px" height="512px" viewBox="0 0 512 512" style="enable-background:new 0 0 512 512;" xml:space="preserve">
<style type="text/css">
	.st0{fill:#8DD8D6;}
	.st1{fill:#72C2C4;}
	.st2{fill:#ADD6EA;}
	.st3{fill:#A6ADB9;}
	.st4{fill:#FF9494;}
	.st5{fill:#D88484;}
	.st6{fill:#D3D2D8;}
	.st7{fill:#8895A2;}
</style>
<path class="st0" d="M396.7,8.5H115.3c-18.2,0-33,14.8-33,33s14.8,33,33,33L256,90.4l140.7-15.9c18.2,0,33-14.8,33-33
	S415,8.5,396.7,8.5z"/>
<path class="st1" d="M145.3,74.5c-18.2,0-33-14.8-33-33s14.8-33,33-33h-30c-18.2,0-33,14.8-33,33s14.8,33,33,33L256,90.4l15-1.7
	L145.3,74.5z"/>
<path class="st2" d="M396.7,74.5H115.3C50.2,119.3,7.5,194.3,7.5,279.3c0,65.4,25.3,124.9,66.5,169.2c20.6,22.1,49.5,34.6,79.8,34.6
	h204.4c30.2,0,59.2-12.5,79.8-34.6c41.3-44.4,66.5-103.8,66.5-169.2C504.5,194.3,461.8,119.3,396.7,74.5z"/>
<path class="st0" d="M402.1,129c-10-9.8-24.3-13.8-38.1-11c-114.8,23.5-118.5-33.2-223.2-8c-8.7,2.1-16.8,6.2-23.5,12.1
	c-44.8,39.6-71,96.7-71,157.2c0,53.2,19.9,103.9,56.1,142.8c13.2,14.1,31.9,22.3,51.3,22.3h204.4c19.5,0,38.2-8.1,51.3-22.3
	c36.2-38.9,56.1-89.6,56.1-142.8C465.7,222.2,442.4,168.2,402.1,129z"/>
<path class="st1" d="M132.5,422.1c-36.2-38.9-56.1-89.6-56.1-142.8c0-60.5,26.2-117.7,71-157.2c6.7-5.9,14.8-10,23.5-12.1
	c13-3.1,24.4-5,34.7-5.9c-17.3-1.6-37.6-0.6-64.7,5.9c-8.7,2.1-16.8,6.2-23.5,12.1c-44.8,39.6-71,96.7-71,157.2
	c0,53.2,19.9,103.9,56.1,142.8c13.2,14.1,31.9,22.3,51.3,22.3h30C164.3,444.3,145.6,436.2,132.5,422.1z"/>
<path class="st3" d="M314.4,252.9h43.8v191.5h-43.8V252.9z"/>
<path class="st3" d="M197.6,444.3h-43.8V252.9h43.8V444.3z"/>
<path class="st4" d="M267.6,263.8c-6.8-5.3-16.4-5.3-23.2,0L191,305.6l65,12.3l65-12.3L267.6,263.8z"/>
<path class="st5" d="M221,305.6l50-39.1l-3.4-2.7c-6.8-5.3-16.4-5.3-23.2,0L191,305.6l65,12.3l15-2.9L221,305.6z"/>
<path class="st6" d="M191,305.6H321v138.7H191V305.6z"/>
<path class="st7" d="M314.4,252.9h43.8v42.4h-43.8V252.9z"/>
<path class="st4" d="M368.1,255.4l-23.6-25.8c-4.4-4.8-12-4.8-16.4,0l-23.6,25.8c-3.4,3.8-0.8,9.8,4.3,9.8h55
	C368.9,265.3,371.6,259.2,368.1,255.4z"/>
<path class="st5" d="M324.5,255.4l21.8-23.9l-1.8-2c-4.4-4.8-12-4.8-16.4,0l-23.6,25.8c-3.4,3.8-0.8,9.8,4.3,9.8h20
	C323.7,265.3,321,259.2,324.5,255.4z"/>
<path class="st7" d="M153.8,252.9h43.8v42.4h-43.8V252.9z"/>
<path class="st4" d="M143.9,255.4l23.6-25.8c4.4-4.8,12-4.8,16.4,0l23.6,25.8c3.4,3.8,0.8,9.8-4.3,9.8h-55
	C143.1,265.3,140.4,259.2,143.9,255.4z"/>
<path class="st5" d="M163.9,255.4l21.8-23.9l-1.8-2c-4.4-4.8-12-4.8-16.4,0l-23.6,25.8c-3.4,3.8-0.8,9.8,4.3,9.8h20
	C163.1,265.3,160.4,259.2,163.9,255.4z"/>
<path class="st7" d="M270.2,351.2h-28.4c-6.1,0-11.1,5-11.1,11.1v82h50.6v-82C281.3,356.2,276.3,351.2,270.2,351.2z"/>
<path class="st2" d="M294.5,198.8c0,13-10.6,23.6-23.6,23.6s-23.6-10.6-23.6-23.6c0-13,10.6-23.6,23.6-23.6S294.5,185.7,294.5,198.8
	z"/>
<path class="st2" d="M357.1,172.3c0,9.6-7.8,17.3-17.3,17.3s-17.3-7.8-17.3-17.3c0-9.6,7.8-17.3,17.3-17.3S357.1,162.7,357.1,172.3z
	"/>
<path d="M358.2,451.8c21.5,0,42.3-9,56.8-24.6c22.5-24.1,38.8-52.3,48.5-83.7c1.2-4-1-8.2-4.9-9.4c-4-1.2-8.2,1-9.4,5
	c-9,29.2-24.2,55.4-45.1,77.9c-10,10.8-23.7,17.6-38.3,19.4V272.6c4.6-0.6,8.4-3.5,10.3-7.8c2.2-4.9,1.3-10.4-2.4-14.4
	c0,0-23.6-25.8-23.6-25.8c-7.3-8-20.2-7.9-27.5,0c0,0-23.6,25.8-23.6,25.8c-7.1,7.8-2.5,20.8,8,22.3v12.5c0,0-34.7-27.2-34.7-27.2
	c-9.4-7.4-23-7.4-32.4,0l-34.7,27.2v-12.5c4.6-0.6,8.4-3.5,10.3-7.8c2.2-4.9,1.3-10.4-2.4-14.4c0,0-23.6-25.8-23.6-25.8
	c-7.3-8-20.2-7.9-27.5,0l-23.6,25.8c-7,7.7-2.6,20.8,8,22.3v163.8c-14.6-1.8-28.3-8.6-38.3-19.4c-34.9-37.5-54.1-86.4-54.1-137.7
	c0-57.9,25-113.2,68.5-151.6c5.7-5,12.7-8.6,20.3-10.5c50.1-12.1,76.1-4.7,103.5,3.2c29.5,8.4,59.9,17.1,119.4,4.9
	c11.4-2.3,23.1,1,31.3,9c38.9,37.9,61.3,90.7,61.3,145c0,10.5-0.8,21.2-2.5,31.6c-0.6,4.1,2.2,7.9,6.2,8.6c4.1,0.6,7.9-2.2,8.6-6.2
	c1.8-11.2,2.7-22.7,2.7-34c0-29.3-5.8-57.8-17.3-84.8c-11.4-26.8-27.7-50.6-48.6-70.9c-11.8-11.5-28.5-16.3-44.8-13
	c-55.9,11.4-84.6,3.3-112.3-4.6c-28.1-8-57.2-16.3-111.2-3.3c-10,2.4-19.2,7.2-26.7,13.8c-46.7,41.3-73.5,100.6-73.5,162.9
	c0,55.1,20.6,107.6,58.1,147.9c14.6,15.7,35.3,24.6,56.8,24.6H358.2z M198.5,313.1h114.9v123.7h-24.7v-74.5
	c0-10.3-8.3-18.6-18.6-18.6h-28.4c-10.3,0-18.6,8.3-18.6,18.6v74.5h-24.7V313.1z M238.2,436.8v-74.5c0-2,1.6-3.6,3.6-3.6h28.4
	c2,0,3.6,1.6,3.6,3.6v74.5H238.2z M333.6,234.6c0.9-1,2.1-1.2,2.7-1.2c0.6,0,1.7,0.2,2.7,1.2l21.1,23.1h-47.6L333.6,234.6z
	 M321.9,272.8h28.8v164.1h-22.3V305.6c0-2.3-1.1-4.5-2.9-5.9l-3.7-2.9V272.8z M249,269.7c4-3.2,9.9-3.2,13.9,0l36.3,28.4h-86.4
	C212.8,298.1,249,269.8,249,269.7z M186.4,299.7c-1.7,1.5-2.9,3.6-2.9,5.9v131.2h-22.3V272.8h28.8v24.1
	C190.1,296.8,186.4,299.7,186.4,299.7z M173,234.6c0.9-1,2.1-1.2,2.7-1.2c0.6,0,1.7,0.2,2.7,1.2l21.1,23.1h-47.6L173,234.6z"/>
<path d="M239.8,198.8c0,17.2,14,31.1,31.1,31.1s31.1-14,31.1-31.1c0-17.2-14-31.1-31.1-31.1S239.8,181.6,239.8,198.8z M287,198.8
	c0,8.9-7.2,16.1-16.1,16.1s-16.1-7.2-16.1-16.1c0-8.9,7.2-16.1,16.1-16.1S287,189.9,287,198.8z"/>
<path d="M315,172.3c0,13.7,11.1,24.8,24.8,24.8s24.8-11.1,24.8-24.8c0-13.7-11.1-24.8-24.8-24.8S315,158.6,315,172.3z M349.6,172.3
	c0,5.4-4.4,9.8-9.8,9.8s-9.8-4.4-9.8-9.8c0-5.4,4.4-9.8,9.8-9.8S349.6,166.9,349.6,172.3z"/>
<path d="M153.8,490.7h204.4c32.3,0,63.4-13.5,85.3-37c44.2-47.5,68.5-109.4,68.5-174.3c0-78.8-36.3-152.9-97.8-201.3
	c13.6-6.5,23.1-20.5,23.1-36.5c0-22.3-18.2-40.5-40.5-40.5H115.3C92.9,1,74.8,19.2,74.8,41.5c0,16.1,9.4,30,23.1,36.6
	c-12.3,9.7-23.8,20.5-34.2,32.3c-2.7,3.1-2.4,7.9,0.7,10.6c3.1,2.7,7.9,2.4,10.6-0.7C87.6,105.9,102,93,117.6,82h276.8
	C458.7,127.2,497,200.8,497,279.3c0,61.1-22.9,119.4-64.5,164.1c-19.1,20.5-46.1,32.2-74.3,32.2H153.8c-28.1,0-55.2-11.8-74.3-32.2
	C37.9,398.7,15,340.4,15,279.3c0-49.1,14.7-96.3,42.5-136.6c2.4-3.4,1.5-8.1-1.9-10.4c-3.4-2.3-8.1-1.5-10.4,1.9
	C15.6,177,0,227.2,0,279.3c0,64.9,24.3,126.8,68.5,174.3C90.4,477.2,121.5,490.7,153.8,490.7z M89.8,41.5
	c0-14.1,11.4-25.5,25.5-25.5h281.5c14.1,0,25.5,11.4,25.5,25.5S410.8,67,396.7,67H115.3C101.2,67,89.8,55.6,89.8,41.5z"/>
</svg>
