<?xml version="1.0" encoding="utf-8"?>
<!-- Generator: Adobe Illustrator 19.2.1, SVG Export Plug-In . SVG Version: 6.00 Build 0)  -->
<svg version="1.1" id="Слой_1" xmlns="http://www.w3.org/2000/svg" xmlns:xlink="http://www.w3.org/1999/xlink" x="0px" y="0px"
	 width="512px" height="512px" viewBox="0 0 512 512" style="enable-background:new 0 0 512 512;" xml:space="preserve">
<style type="text/css">
	.st0{fill:#FFBF8F;}
	.st1{fill:#E9E9E9;}
	.st2{fill:#E89A64;}
	.st3{fill:#FF9494;}
	.st4{fill:#D3D2D8;}
	.st5{fill:#E1BA68;}
</style>
<path class="st0" d="M108.6,136.9c0,0-41.4-67.3-14.8-118.7c50.7-28,108.8,7.8,108.8,7.8L108.6,136.9z"/>
<path class="st0" d="M87.2,268.2c7.4,18.9,10.3,36.7,12.9,52.6c3,18.6,5.4,33.3,14,44.6c3.6,4.7,14.6,19.2,59.5,30.2
	c12.2,3,19.7,15.3,16.7,27.6c-2.6,10.4-11.9,17.4-22.1,17.4c-1.8,0-3.6-0.2-5.4-0.6c-41.4-10.1-68.4-25-85-46.9
	c-15.4-20.3-19.1-43-22.7-64.8c-1.8-11-3.6-21.8-6.7-32.7l12.7-33.2L87.2,268.2z"/>
<path class="st1" d="M87.2,268.2c-12.3,12.7-26.4,21.4-38.9,27.3c-5.3-18-14.4-35.9-33.9-55c-9-8.8-9.2-23.2-0.5-32.2
	c8.8-9,23.2-9.2,32.3-0.5C67.5,228.4,79.7,248.9,87.2,268.2z"/>
<path class="st2" d="M173.6,395.5c-27-6.6-41.7-14.4-49.9-20.7c-2.7,11.2-4.5,23.3-4.1,36.5c0.1,4.8,0.5,9.6,1.2,14.4
	c12,5.5,25.9,10.2,42.1,14.1c1.8,0.4,3.6,0.7,5.4,0.7c10.3,0,19.6-7,22.1-17.4C193.3,410.8,185.8,398.5,173.6,395.5z"/>
<path class="st1" d="M333.1,337.8H168.5c-14.8,38.9-41.9,86.5,18.9,154.3c7.1,7.9,17.1,12.4,27.7,12.4h71.4
	c10.6,0,20.7-4.5,27.7-12.4C375.1,424.3,347.9,376.6,333.1,337.8z"/>
<path class="st0" d="M393,136.9c0,0,41.4-67.3,14.8-118.7C357.1-9.8,299,26,299,26L393,136.9z"/>
<path class="st2" d="M408.6,102.5c-16.5-38.5-46.7-69.9-84.5-87.8C308.9,19.9,299,26,299,26L393,136.9
	C393,136.9,401.7,122.8,408.6,102.5z"/>
<path class="st2" d="M93,102.5c6.9,20.3,15.6,34.5,15.6,34.5L202.7,26c0,0-9.9-6.1-25.2-11.3C139.7,32.6,109.5,63.9,93,102.5z"/>
<path class="st1" d="M386.4,53.5c-0.7-7.5-6.5-13.5-13.9-14.6c-3.1-0.5-6.2-0.7-9.3-0.7c-24.3,0-45.9,12.8-46.2,13l52.2,67.1
	C375.7,107.4,388.8,78.8,386.4,53.5z"/>
<path class="st1" d="M115.2,53.5c0.7-7.5,6.5-13.5,13.9-14.6c3.1-0.5,6.2-0.7,9.3-0.7c24.3,0,45.9,12.8,46.2,13l-52.2,67.1
	C125.9,107.4,112.8,78.8,115.2,53.5z"/>
<path class="st3" d="M333.1,337.8c-25.5,12.5-53.7,19.1-82.3,19.1c-28.6,0-56.8-6.6-82.3-19.1c4.9-13,8.5-25,6.9-36.5h150.8
	C324.6,312.7,328.2,324.8,333.1,337.8z"/>
<path class="st4" d="M115.1,64.9c1.4,22,11.8,44.2,17.4,53.4l52.2-67.1c-0.3-0.2-20.6-12.2-43.9-12.9
	C131.3,46.2,122.7,55.1,115.1,64.9z"/>
<path class="st4" d="M386.5,64.9c-7.6-9.8-16.2-18.7-25.6-26.6c-23.3,0.8-43.7,12.8-43.9,12.9l52.2,67.1
	C374.7,109.1,385,86.9,386.5,64.9z"/>
<path class="st0" d="M175.4,301.3c-45.5-26.1-76.2-75.2-76.2-131.5c0-83.7,67.9-151.6,151.6-151.6c83.7,0,151.6,67.9,151.6,151.6
	c0,56.3-30.7,105.4-76.2,131.5H175.4z"/>
<path class="st1" d="M326.2,301.3C326.2,301.3,326.2,301.3,326.2,301.3c-22.2,12.8-47.9,20.1-75.4,20.1c-27.4,0-53.2-7.3-75.4-20
	c0,0,0,0,0,0c-45.6-64.5-7.3-97.5,14.6-109.8c7.3-4.1,13.6-9.8,18.3-16.7c6.6-9.8,19.6-22.7,42.6-22.7c23,0,36,12.9,42.6,22.7
	c4.7,6.9,11,12.6,18.3,16.7C333.5,203.8,371.8,236.7,326.2,301.3z"/>
<path class="st5" d="M270.6,368c0,10.9-8.9,19.8-19.8,19.8c-10.9,0-19.8-8.9-19.8-19.8c0-10.9,8.9-19.8,19.8-19.8
	C261.7,348.2,270.6,357,270.6,368z"/>
<path d="M175.4,154.7V168c0,4.1,3.4,7.5,7.5,7.5c4.1,0,7.5-3.4,7.5-7.5v-13.3c0-4.1-3.4-7.5-7.5-7.5
	C178.7,147.2,175.4,150.6,175.4,154.7z"/>
<path d="M311.2,154.7V168c0,4.1,3.4,7.5,7.5,7.5c4.1,0,7.5-3.4,7.5-7.5v-13.3c0-4.1-3.4-7.5-7.5-7.5
	C314.6,147.2,311.2,150.6,311.2,154.7z"/>
<path d="M234.2,185.5c5,2.2,10.7,3.4,16.6,3.4c5.9,0,11.5-1.2,16.6-3.4c5.3-2.3,3.7-10.2-2.1-10.2h-29
	C230.5,175.3,228.9,183.2,234.2,185.5z"/>
<path d="M235.8,218.4c5.4,0,10.6-1.5,15-4.4c4.4,2.8,9.6,4.4,15,4.4c8,0,15.6-3.4,20.7-9.2c2.7-3.1,2.4-7.9-0.7-10.6
	c-3.1-2.7-7.9-2.4-10.6,0.7c-2.3,2.6-5.7,4.1-9.4,4.1s-7.1-1.5-9.4-4.1c-2.9-3.3-8.4-3.3-11.3,0c-2.3,2.6-5.7,4.1-9.4,4.1
	c-3.7,0-7.1-1.5-9.4-4.1c-2.7-3.1-7.5-3.4-10.6-0.7c-3.1,2.7-3.4,7.5-0.7,10.6C220.2,215.1,227.7,218.4,235.8,218.4z"/>
<path d="M414.4,14.8c-0.7-1.3-1.7-2.4-3-3.1C397.4,3.9,381.7,0,364.7,0c-30.8,0-57.4,12.8-66.6,17.9c-14.9-4.7-30.8-7.2-47.3-7.2
	c-16.5,0-32.4,2.5-47.3,7.2C193.8,12.6,167.5,0,136.9,0c-17,0-32.7,3.9-46.7,11.7c-1.3,0.7-2.3,1.8-3,3.1
	c-22,42.3-1.8,93.4,9.5,115.8c-3.2,12.5-4.9,25.7-4.9,39.2c0,55.5,29.2,107.2,76.5,136c0.3,8.6-2.5,18.1-6.8,29.3
	c-1.6,4.1-17.6,42.8-15.6,43.6c-18.1-7.7-23.6-15-25.8-17.9c-7.5-9.8-9.7-23.7-12.6-41.3c-2.6-16.1-5.6-34.4-13.3-54.1
	c-9.1-23.3-23.1-43.9-42.8-63.1c-11.9-11.5-31.4-11.2-42.9,0.6c-11.6,12-11.4,31.2,0.6,42.9c16.3,15.8,26.1,31.8,32,51.7
	c3.1,10.4,4.7,20.8,6.5,31.8c3,18.2,6,36.9,15.7,55.1c2,3.6,6.5,5,10.2,3.1c3.7-2,5-6.5,3.1-10.2c-8.5-15.9-11.4-33.5-14.2-50.4
	c-1.5-9-3-18.2-5.3-27.4c0,0,0.1,0,0.1,0c9.4-4.9,18.4-10.8,26.5-17.7c0,0,0.1-0.1,0.1-0.1c4.5,14.3,6.7,28,8.7,40.4
	c3.1,18.8,5.7,35.1,15.4,47.9c3,4,10.8,14.2,34.8,23.9c0,0.3-0.1,0.5-0.1,0.8c-1.3,10.6-1.1,21.5,0.8,32.1
	c-21.8-7.2-38.4-16.4-50.6-27.8c-3-2.8-7.8-2.7-10.6,0.3s-2.7,7.8,0.3,10.6c15.5,14.6,36.9,25.7,65.4,34
	c6.3,17.8,17.4,35.5,33.6,53.4c8.5,9.5,20.6,14.9,33.3,14.9h71.4c12.7,0,24.8-5.4,33.3-14.9c26-29,39.1-57.3,39.8-86.4
	c0.7-26.8-10.1-51.2-19.5-75.6c-4.3-11.3-7.1-20.7-6.8-29.4c27.1-16.5,48.5-40.3,61.9-69.2c1.7-3.8,0.1-8.2-3.7-10
	c-3.8-1.7-8.2-0.1-10,3.7c-7.8,16.8-18.9,32-32.4,44.7c0.1-0.1,0.1-0.3,0.2-0.4c6.2-16.3,7.9-34.6,1.6-51.1
	c-6.4-16.8-20.2-29.7-35.6-38.5c-9.8-5.5-15.1-15.2-22.8-23c-25.5-26.2-70.4-21.5-90.6,8.7c-3.8,5.7-9.3,10.7-15.7,14.3
	c-14.4,8.2-32.8,23-38.2,47.1c-3.2,14.2-0.9,29.1,4.2,42.6c0.1,0.1,0.1,0.3,0.2,0.4c-28.7-26.9-45.7-65-45.7-105.2
	c0-13.6,1.9-26.8,5.4-39.3c0-0.1,0.1-0.3,0.1-0.4c17.3-60.2,72.8-104.4,138.5-104.4c65.7,0,121.2,44.2,138.5,104.4
	c0,0.1,0.1,0.3,0.1,0.4c3.5,12.5,5.4,25.7,5.4,39.3c0,11.3-1.3,22.6-3.9,33.6c-1,4,1.5,8.1,5.6,9c4,1,8.1-1.5,9-5.6
	c2.9-12.1,4.4-24.6,4.4-37.1c0-13.5-1.7-26.6-4.9-39.2C416.2,108.1,436.4,57.1,414.4,14.8z M19.6,235.1c-6.1-5.9-6.2-15.6-0.3-21.6
	c5.8-6,15.7-6.1,21.7-0.3c16.8,16.3,29.1,33.8,37.4,53.2c-0.1,0.1-0.2,0.2-0.2,0.2c-5.3,5-11.1,9.4-17.2,13.3
	c-0.6,0.4-8.3,4.8-8.2,4.8C45.9,266.2,35.3,250.3,19.6,235.1z M167.5,272.4c-5-11.8-7.6-24.6-4.8-37.1c3-13.6,11.8-23.6,20.9-30.6
	c10.8-8.4,22.9-13.8,30.9-25.7c8.2-12.2,21.7-19.4,36.3-19.4c14.6,0,28.2,7.2,36.3,19.4c6,8.9,14,14.9,23.1,20.4
	c11.4,6.9,24.8,18.4,28.7,36c2.4,10.7,0.7,21.8-2.9,32.1c-3.5,9.9-8.8,19.2-14.7,27.8c-0.1,0.1-0.2,0.3-0.3,0.4
	c-7.2,4-14.8,7.4-22.6,10.2c-15.1,5.3-31.4,8.1-47.6,8.1c-24.4,0-48.9-6.3-70.2-18.3C175.5,288.3,171,280.6,167.5,272.4z
	 M322.9,334.3c-16.4,7.2-33.9,11.9-51.8,13.9c-0.4,0-1.3,0.1-1.4,0.2c-0.1-0.1-0.6-0.5-0.7-0.6c-4.3-3.9-9.6-6.3-15.4-6.9
	c-1.9-0.2-3.8-0.2-5.7,0c-5.8,0.6-11.1,3-15.4,6.9c-0.1,0.1-0.6,0.5-0.7,0.6c-0.1,0-0.2,0-0.3,0c-8.7-0.9-17.3-2.5-25.7-4.7
	c-9.6-2.5-19-5.7-28-9.8c2.5-7.1,4.3-13.8,5-20.2c17.3,8.2,36.1,13.1,55.2,14.7c9.1,0.7,18.2,0.7,27.3-0.2
	c18.2-1.7,36.6-6.6,53.3-14.5c0.8,6.4,2.6,13.1,5,20.2C323.4,334,323.2,334.1,322.9,334.3z M239.1,371.6
	c-2.6-7.7,3.7-15.9,11.7-15.9c6.6,0,12.3,5.7,12.3,12.3c0,6.6-5.6,12.3-12.3,12.3C245.5,380.3,240.7,376.5,239.1,371.6z
	 M308.6,487.1c-3.2,3.5-7.1,6.2-11.4,7.9c4.7-16.7,12.3-48.2,12.3-77.3c0-4.1-3.4-7.5-7.5-7.5c-4.1,0-7.5,3.4-7.5,7.5
	c0,31.1-9.6,66.4-13.5,79.4h-22.7v-79.4c0-4.1-3.4-7.5-7.5-7.5c-4.1,0-7.5,3.4-7.5,7.5V497h-22.7c-3.9-12.9-13.5-48.2-13.5-79.4
	c0-4.1-3.4-7.5-7.5-7.5c-4.1,0-7.5,3.4-7.5,7.5c0,29.2,7.6,60.7,12.3,77.3c-4.3-1.7-8.3-4.4-11.4-7.9
	c-17.1-19.1-26.9-36.3-31.8-52.2c-4.6-14.7-5.2-29.7-2.4-44.7c2.6-14.1,7.8-27.2,12.8-39.7c0.4-0.9,0.7-1.8,1.1-2.6
	c0.1,0,0.2,0.1,0.3,0.1c16,7,33,11.8,50.4,14.3c0.3,0,0.6,0.1,0.8,0.1c-0.3,1.3-0.4,2.5-0.5,3.8c-0.9,15.5,11.7,29,27.2,29
	c14.8,0,27.3-12.5,27.3-27.3c0-1.8-0.2-3.7-0.6-5.5c0.3,0,0.6-0.1,0.9-0.1c17.3-2.5,34.3-7.3,50.3-14.3c0.1,0,0.2-0.1,0.3-0.1
	c0.3,0.9,0.7,1.7,1.1,2.6C344.7,387.1,361.2,428.4,308.6,487.1z M122.7,54.3c0.4-4.1,3.5-7.3,7.5-7.9c2.6-0.4,5.4-0.6,8.2-0.6
	c3.7,0,7.5,0.3,11.4,1c-9.8,8-18.5,17.1-26.1,27.2C122.5,66.8,122.1,60.1,122.7,54.3z M99.5,23.7c11.2-5.8,23.8-8.7,37.4-8.7
	c18.6,0,35.8,5.5,47.3,10.3c-6.3,2.9-12.4,6.2-18.2,9.9c-13.4-4.1-26.3-5.4-37.9-3.7c-10.9,1.6-19.2,10.4-20.3,21.3
	c-1.1,11.4,0.5,24.2,4.8,38.2c-3.4,6-6.4,12.2-9,18.6C85.4,65.3,93.6,36.3,99.5,23.7z M377.8,73.9c-7.6-10.1-16.4-19.2-26.1-27.2
	c6.9-1.1,13.6-1.3,19.7-0.4c4.1,0.6,7.1,3.9,7.5,7.9C379.5,60.1,379.1,66.8,377.8,73.9z M398.1,109.6c-2.6-6.4-5.6-12.6-9-18.6
	c4.3-14,5.9-26.8,4.8-38.2c-1-10.9-9.4-19.7-20.3-21.3c-11.6-1.7-24.5-0.5-37.9,3.7c-5.8-3.7-11.9-7-18.2-9.9
	c11.5-4.8,28.7-10.3,47.3-10.3c13.6,0,26.2,2.9,37.4,8.7C408,36.3,416.2,65.3,398.1,109.6z"/>
</svg>
