<svg id="Layer_1" enable-background="new 0 0 512 512" height="512" viewBox="0 0 512 512" width="512" xmlns="http://www.w3.org/2000/svg"><path d="m406 7.5h-200l-150 150v237c0 27.614 22.386 50 50 50h300c27.614 0 50-22.386 50-50v-337c0-27.614-22.386-50-50-50z" fill="#ebebf5"/><path d="m56 157.5v237c0 27.614 22.386 50 50 50h40c-27.614 0-50-22.386-50-50v-141.152c0-30.844 25.004-55.848 55.848-55.848 29.907 0 54.152-24.245 54.152-54.152v-135.848z" fill="#e1e1f0"/><path d="m57.5 504.5h397c27.614 0 50-22.386 50-50v-187c0-25.419-18.969-46.408-43.523-49.584-3.893-.504-7.829.562-11.01 2.862z" fill="#b5efff"/><path d="m290.138 336.321 204.574 147.891c-9.108 12.306-23.726 20.288-40.212 20.288h-397z" fill="#a3d4ff"/><path d="m454.5 504.5h-397c-27.614 0-50-22.386-50-50v-187c0-25.419 18.969-46.408 43.523-49.584 3.893-.504 7.829.562 11.011 2.862z" fill="#b5efff"/><path d="m47.5 454.5v-187c0-17.207 8.694-32.382 21.927-41.378l-7.394-5.345c-3.181-2.3-7.117-3.365-11.011-2.862-24.553 3.177-43.522 24.166-43.522 49.585v187c0 27.614 22.386 50 50 50h40c-27.614 0-50-22.386-50-50z" fill="#a3d4ff"/><path d="m206 7.5v95.848c0 29.907-24.245 54.152-54.152 54.152h-95.848z" fill="#f5f5fc"/><ellipse cx="176.443" cy="229.829" fill="#ffa1ac" rx="29.355" ry="23.377"/><ellipse cx="335.557" cy="229.829" fill="#ffa1ac" rx="29.355" ry="23.377"/><path d="m193.551 214.826c-4.143 0-7.5-3.358-7.5-7.5v-12c0-4.142 3.357-7.5 7.5-7.5s7.5 3.358 7.5 7.5v12c0 4.142-3.358 7.5-7.5 7.5z"/><path d="m318.448 214.826c-4.143 0-7.5-3.358-7.5-7.5v-12c0-4.142 3.357-7.5 7.5-7.5s7.5 3.358 7.5 7.5v12c0 4.142-3.357 7.5-7.5 7.5z"/><path d="m256 221.969c-8.478 0-16.539-3.671-22.118-10.073-2.722-3.123-2.396-7.86.727-10.582 3.122-2.721 7.859-2.396 10.582.727 2.729 3.132 6.669 4.928 10.81 4.928s8.08-1.796 10.81-4.928c2.721-3.123 7.457-3.448 10.582-.727 3.122 2.722 3.448 7.459.727 10.582-5.581 6.402-13.642 10.073-22.12 10.073z"/><path d="m463.5 210.717v-81.803c0-4.142-3.357-7.5-7.5-7.5s-7.5 3.358-7.5 7.5v84.005c-1.006.525-1.99 1.104-2.927 1.781l-189.573 137.046-56.933-41.158c-3.354-2.427-8.043-1.673-10.472 1.684-2.427 3.357-1.673 8.045 1.685 10.472l61.21 44.25c.013.01.027.019.04.029l179.794 129.977h-373.824c-23.435 0-42.5-19.065-42.5-42.5v-187c0-21.3 15.9-39.419 36.985-42.146 1.959-.25 3.965.28 5.654 1.502l109.924 79.466c3.354 2.426 8.043 1.673 10.472-1.684 2.427-3.357 1.673-8.045-1.685-10.472l-109.922-79.466c-.937-.677-1.922-1.256-2.928-1.781v-47.919h88.349c33.995 0 61.651-27.657 61.651-61.652v-88.348h192.5c23.435 0 42.5 19.065 42.5 42.5v43.413c0 4.142 3.357 7.5 7.5 7.5s7.5-3.358 7.5-7.5v-43.413c0-31.706-25.794-57.5-57.5-57.5h-200c-1.989 0-3.896.79-5.304 2.197l-150 150c-1.406 1.406-2.196 3.314-2.196 5.303v53.217c-27.757 4.37-48.5 28.496-48.5 56.783v187c0 31.706 25.794 57.5 57.5 57.5h397c31.706 0 57.5-25.794 57.5-57.5v-187c0-28.287-20.743-52.413-48.5-56.783zm-311.651-60.717h-77.743l124.394-124.394v77.742c0 25.724-20.928 46.652-46.651 46.652zm345.151 304.5c0 22.651-17.813 41.217-40.166 42.433l-188.033-135.933 185.56-134.145c1.688-1.222 3.698-1.752 5.653-1.501 21.086 2.727 36.986 20.846 36.986 42.146z"/></svg>