<svg height="511pt" viewBox="-24 0 511 511.99836" width="511pt" xmlns="http://www.w3.org/2000/svg"><path d="m437.925781 275.046875c-13.601562-21.222656-24.675781-43.988281-31.800781-68.164063-15.15625-51.4375-52.53125-93.347656-101.015625-114.636718-3.554687-1.558594-4.074219-6.347656-.945313-8.636719 18.160157-13.289063 27.933594-29.617187 22.414063-39.335937-6.503906-11.457032-31.792969-9.378907-56.484375 4.640624-4.972656 2.824219-9.535156 5.917969-13.609375 9.152344 9.414063-22.460937 8.371094-44.035156-2.847656-49.363281-11.898438-5.652344-30.742188 9.128906-42.082031 33.007813-5.628907 11.851562-8.34375 23.710937-8.203126 33.347656.035157 2.441406-1.667968 4.558594-4.066406 5-67.039062 12.375-121.140625 61.660156-140.433594 126-7.1875 23.957031-17.488281 46.867187-31.246093 67.753906-12.433594 18.882812-19.625 41.5-19.613281 65.804688.101562 219.839843 448.644531 219.839843 448.746093 0 .011719-23.777344-6.871093-45.941407-18.8125-64.570313zm0 0" fill="#fee45a"/><path d="m437.925781 275.046875c-13.601562-21.222656-24.675781-43.988281-31.800781-68.164063-15.15625-51.4375-52.53125-93.347656-101.015625-114.636718-3.554687-1.558594-4.074219-6.347656-.945313-8.636719 18.160157-13.289063 27.933594-29.617187 22.414063-39.335937-4.472656-7.878907-17.824219-9.355469-33.753906-4.957032 2.347656 1.203125 4.183593 2.847656 5.382812 4.957032 5.515625 9.71875-4.257812 26.046874-22.414062 39.335937-3.132813 2.289063-2.609375 7.078125.941406 8.636719 48.484375 21.289062 85.859375 63.199218 101.015625 114.636718 7.125 24.175782 18.199219 46.941407 31.800781 68.164063 11.941407 18.628906 18.824219 40.792969 18.8125 64.570313-.046875 105.28125-102.945312 160.136718-210.183593 164.578124 116.683593 4.835938 238.503906-50.019531 238.558593-164.578124.011719-23.777344-6.871093-45.941407-18.8125-64.570313zm0 0" fill="#fac600"/><path d="m341.214844 271.792969c0 9.925781-8.046875 17.972656-17.976563 17.972656-9.929687 0-17.976562-8.046875-17.976562-17.972656 0-9.929688 8.046875-17.976563 17.976562-17.976563 9.929688 0 17.976563 8.046875 17.976563 17.976563zm0 0" fill="#353535"/><path d="m159.46875 271.792969c0 9.925781-8.046875 17.972656-17.976562 17.972656-9.929688 0-17.976563-8.046875-17.976563-17.972656 0-9.929688 8.046875-17.976563 17.976563-17.976563 9.929687 0 17.976562 8.046875 17.976562 17.976563zm0 0" fill="#353535"/><path d="m68.460938 299.5c-15.257813 0-27.621094 12.363281-27.621094 27.621094v92.023437h55.242187v-92.023437c-.003906-15.257813-12.367187-27.621094-27.621093-27.621094zm0 0" fill="#d6d6d6"/><path d="m156.089844 389.539062c0-12.699218-10.292969-22.992187-22.992188-22.992187 0 0-40.09375 0-63.097656 0-50.496094 0-55.058594 137.949219 0 137.949219h63.097656c12.699219 0 22.992188-10.292969 22.992188-22.992188 0-12.695312-10.292969-22.992187-22.992188-22.992187 12.699219 0 22.992188-10.292969 22.992188-22.992188 0-12.695312-10.292969-22.988281-22.992188-22.988281 12.699219 0 22.992188-10.292969 22.992188-22.992188zm0 0" fill="#e8eaea"/><path d="m156.089844 435.523438c0-12.699219-10.292969-22.992188-22.992188-22.992188 12.699219 0 22.992188-10.292969 22.992188-22.992188 0-12.699218-10.292969-22.992187-22.992188-22.992187 0 0-9.757812 0-22.40625 0 12.699219 0 22.992188 10.292969 22.992188 22.992187 0 12.699219-10.292969 22.992188-22.992188 22.992188 12.699219 0 22.992188 10.292969 22.992188 22.992188 0 12.695312-10.292969 22.992187-22.992188 22.992187 12.699219 0 22.992188 10.292969 22.992188 22.992187 0 12.699219-10.292969 22.992188-22.992188 22.992188h22.410156c12.695313 0 22.992188-10.296875 22.992188-22.992188 0-12.699218-10.296875-22.992187-22.992188-22.992187 12.695313 0 22.988282-10.292969 22.988282-22.992187zm0 0" fill="#c0c4c4"/><path d="m444.234375 271.007812c-14.011719-21.863281-24.414063-44.152343-30.917969-66.246093-15.355468-52.082031-52.183594-94.746094-101.375-117.644531 19.761719-15.679688 28.242188-34.058594 21.152344-46.539063-4.667969-8.226563-14.808594-12.140625-28.550781-11.003906-10.824219.886719-23.195313 4.832031-35.15625 11.179687 3.09375-18.449218-1.316407-33.492187-12.535157-38.820312-16.144531-7.667969-38.53125 8.058594-52.070312 36.566406-5.558594 11.695312-8.691406 23.882812-8.925781 34.585938-22.972657 4.503906-44.660157 13.164062-64.492188 25.761718-3.496093 2.21875-4.527343 6.855469-2.308593 10.351563 2.222656 3.496093 6.855468 4.527343 10.351562 2.308593 18.796875-11.9375 39.398438-20.035156 61.230469-24.0625 6.015625-1.105468 10.308593-6.359374 10.207031-12.484374-.128906-8.929688 2.527344-19.589844 7.484375-30.023438 10.570313-22.261719 26.066406-32.3125 32.085937-29.453125 2.726563 1.296875 4.554688 5.742187 4.890626 11.894531.441406 8.042969-1.597657 17.914063-5.738282 27.800782-1.324218 3.160156-.339844 6.8125 2.394532 8.878906 2.730468 2.066406 6.515624 2.019531 9.195312-.113282 3.824219-3.046874 8.078125-5.90625 12.640625-8.507812 10.851563-6.160156 22.503906-10.140625 31.972656-10.917969 7.140625-.582031 12.753907.773438 14.28125 3.460938 2.476563 4.359375-3.207031 17.0625-20.316406 29.585937-3.660156 2.679688-5.554687 6.964844-5.058594 11.464844.488281 4.496094 3.261719 8.269531 7.414063 10.09375 47.046875 20.65625 82.34375 60.707031 96.839844 109.878906 6.90625 23.457032 17.898437 47.039063 32.675781 70.097656 11.539062 18.003907 17.632812 38.933594 17.625 60.519532-.019531 43.382812-18.914063 80.992187-54.644531 108.765625-28.882813 22.449219-67.601563 37.941406-111.972657 44.796875-39.546875 6.105468-81.820312 4.765625-120.085937-3.699219.691406-2.542969 1.066406-5.214844 1.066406-7.976563 0-9.164062-4.066406-17.394531-10.484375-22.992187 6.417969-5.59375 10.484375-13.824219 10.484375-22.988281 0-9.164063-4.0625-17.398438-10.484375-22.992188 6.421875-5.597656 10.484375-13.828125 10.484375-22.992187 0-16.8125-13.679688-30.492188-30.492188-30.492188h-29.523437v-31.925781c0-19.367188-15.753906-35.121094-35.121094-35.121094-19.363281 0-35.117187 15.753906-35.117187 35.121094v59.609375c-1.773438 3.691406-3.320313 7.644531-4.648438 11.792969-8.738281-17.914063-13.179687-37.652344-13.191406-58.910156-.019531-22.058594 6.335938-43.382813 18.371094-61.667969 13.707031-20.808594 24.53125-44.269531 32.171875-69.730469 9.195312-30.679688 26.777343-58.238281 50.835937-79.695312 3.089844-2.753907 3.363282-7.496094.605469-10.589844-2.757813-3.085938-7.496094-3.359375-10.589844-.601563-26.132812 23.300781-45.226562 53.242188-55.21875 86.578125-7.222656 24.0625-17.425781 46.195313-30.332031 65.789063-13.65625 20.746093-20.867188 44.925781-20.84375 69.929687.019531 29.832032 7.925781 57.019532 23.460938 80.886719-.703126 5.671875-1.058594 11.460937-1.058594 17.242187 0 18.925782 3.75 36.507813 10.558594 49.5 8.355468 15.953126 21.335937 24.742188 36.542968 24.742188h63.097656c8.398438 0 16.015626-3.414062 21.535157-8.925781 24.824219 5.894531 51.375 8.882812 77.949219 8.882812 17.597656 0 35.207031-1.308593 52.316406-3.953125 46.886718-7.246094 88-23.765625 118.890625-47.777344 39.519531-30.71875 60.417969-72.421874 60.4375-120.601562.007812-24.464844-6.902344-48.191406-19.996094-68.617188zm-375.777344 35.996094c11.097657 0 20.121094 9.023438 20.121094 20.117188v31.929687h-18.574219c-8.292968 0-15.519531 2.847657-21.664062 7.769531v-39.699218c0-11.09375 9.023437-20.117188 20.117187-20.117188zm64.644531 189.996094h-63.097656c-9.625 0-17.449218-5.621094-23.257812-16.707031-5.703125-10.882813-8.84375-25.992188-8.84375-42.539063 0-31.3125 12.007812-63.703125 32.101562-63.703125h26.054688.019531.019531 37.003906c8.542969 0 15.492188 6.949219 15.492188 15.488281 0 8.542969-6.949219 15.492188-15.492188 15.492188h-33.757812c-4.144531 0-7.5 3.359375-7.5 7.5 0 4.144531 3.355469 7.5 7.5 7.5h33.757812c8.542969 0 15.492188 6.949219 15.492188 15.492188 0 8.542968-6.949219 15.492187-15.492188 15.492187h-33.757812c-4.144531 0-7.5 3.355469-7.5 7.5s3.355469 7.5 7.5 7.5h33.757812c8.542969 0 15.492188 6.949219 15.492188 15.492187 0 8.539063-6.949219 15.492188-15.492188 15.492188zm0 0"/><path d="m288.171875 350.816406c2.949219-2.90625 2.984375-7.65625.078125-10.605468-2.90625-2.953126-7.65625-2.984376-10.605469-.078126-11.964843 11.789063-28.042969 18.28125-45.28125 18.28125-17.234375 0-33.3125-6.492187-45.277343-18.28125-2.949219-2.90625-7.695313-2.875-10.605469.078126-2.90625 2.949218-2.871094 7.699218.078125 10.605468 14.789062 14.570313 34.605468 22.59375 55.804687 22.59375 21.203125 0 41.019531-8.023437 55.808594-22.59375zm0 0"/><path d="m297.761719 271.796875c0 14.046875 11.429687 25.472656 25.472656 25.472656 14.050781 0 25.476563-11.425781 25.476563-25.472656s-11.425782-25.476563-25.476563-25.476563c-14.046875 0-25.472656 11.429688-25.472656 25.476563zm35.953125 0c0 5.777344-4.703125 10.472656-10.476563 10.472656-5.777343 0-10.476562-4.695312-10.476562-10.472656s4.699219-10.476563 10.476562-10.476563c5.773438 0 10.476563 4.699219 10.476563 10.476563zm0 0"/><path d="m141.496094 246.320312c-14.050782 0-25.476563 11.429688-25.476563 25.476563 0 14.042969 11.425781 25.472656 25.476563 25.472656 14.046875 0 25.472656-11.429687 25.472656-25.472656 0-14.046875-11.425781-25.476563-25.472656-25.476563zm0 35.949219c-5.777344 0-10.476563-4.695312-10.476563-10.472656s4.699219-10.476563 10.476563-10.476563c5.773437 0 10.472656 4.699219 10.472656 10.476563s-4.699219 10.472656-10.472656 10.472656zm0 0"/><path d="m358.136719 222.636719c2.054687 0 4.101562-.835938 5.582031-2.488281 2.769531-3.078126 2.515625-7.820313-.566406-10.589844-15.417969-13.847656-42.65625-18.902344-62.011719-11.511719-3.871094 1.480469-5.808594 5.8125-4.332031 9.683594 1.480468 3.867187 5.816406 5.808593 9.683594 4.332031 14.074218-5.375 35.429687-1.410156 46.636718 8.65625 1.429688 1.285156 3.222656 1.917969 5.007813 1.917969zm0 0"/><path d="m163.589844 198.046875c-19.355469-7.390625-46.59375-2.335937-62.011719 11.511719-3.082031 2.769531-3.335937 7.511718-.566406 10.589844 1.480469 1.652343 3.527343 2.488281 5.582031 2.488281 1.785156 0 3.578125-.632813 5.007812-1.917969 11.210938-10.070312 32.566407-14.03125 46.636719-8.65625 3.867188 1.476562 8.207031-.464844 9.683594-4.332031 1.476563-3.867188-.460937-8.203125-4.332031-9.683594zm0 0"/></svg>