<svg height="511pt" viewBox="-24 0 511 511.99973" width="511pt" xmlns="http://www.w3.org/2000/svg"><path d="m437.929688 275.046875c-13.605469-21.21875-24.675782-43.984375-31.800782-68.164063-15.160156-51.4375-52.53125-93.347656-101.015625-114.636718-3.554687-1.558594-4.078125-6.34375-.945312-8.636719 18.160156-13.289063 27.933593-29.617187 22.414062-39.335937-6.503906-11.457032-31.792969-9.378907-56.484375 4.640624-4.976562 2.824219-9.535156 5.917969-13.609375 9.152344 9.414063-22.457031 8.371094-44.035156-2.847656-49.363281-11.902344-5.652344-30.742187 9.128906-42.082031 33.007813-5.628906 11.851562-8.347656 23.710937-8.207032 33.351562.035157 2.4375-1.664062 4.554688-4.0625 5-67.042968 12.371094-121.140624 61.65625-140.4375 125.996094-7.183593 23.960937-17.488281 46.867187-31.242187 67.757812-12.433594 18.878906-19.625 41.496094-19.613281 65.800782.101562 219.84375 448.644531 219.84375 448.746094 0 .011718-23.777344-6.875-45.941407-18.8125-64.570313zm0 0" fill="#fee45a"/><path d="m437.929688 275.046875c-13.605469-21.21875-24.675782-43.984375-31.800782-68.164063-15.160156-51.4375-52.53125-93.347656-101.015625-114.636718-3.554687-1.558594-4.078125-6.34375-.945312-8.636719 18.160156-13.289063 27.933593-29.617187 22.414062-39.335937-4.472656-7.875-17.824219-9.355469-33.757812-4.953126 2.351562 1.199219 4.1875 2.84375 5.382812 4.953126 5.519531 9.71875-4.253906 26.046874-22.414062 39.335937-3.132813 2.292969-2.609375 7.078125.945312 8.636719 48.484375 21.289062 85.859375 63.199218 101.015625 114.636718 7.125 24.179688 18.199219 46.945313 31.800782 68.164063 11.941406 18.628906 18.824218 40.792969 18.8125 64.570313-.046876 105.285156-102.949219 160.136718-210.1875 164.582031 116.6875 4.832031 238.507812-50.023438 238.5625-164.582031.011718-23.777344-6.875-45.941407-18.8125-64.570313zm0 0" fill="#fac600"/><path d="m338.71875 259.734375c0 9.925781-8.050781 17.976563-17.976562 17.976563-9.929688 0-17.976563-8.050782-17.976563-17.976563 0-9.929687 8.046875-17.976563 17.976563-17.976563 9.925781 0 17.976562 8.046876 17.976562 17.976563zm0 0" fill="#353535"/><path d="m161.972656 259.734375c0 9.925781-8.050781 17.976563-17.976562 17.976563-9.929688 0-17.976563-8.050782-17.976563-17.976563 0-9.929687 8.046875-17.976563 17.976563-17.976563 9.925781 0 17.976562 8.046876 17.976562 17.976563zm0 0" fill="#353535"/><path d="m118.144531 296.964844c-1.183593-1.433594-3.371093-1.433594-4.554687 0-6.863282 8.332031-26.890625 33.78125-26.890625 47.128906 0 16.109375 13.058593 29.167969 29.167969 29.167969 16.109374 0 29.167968-13.058594 29.167968-29.167969 0-13.347656-20.023437-38.796875-26.890625-47.128906zm0 0" fill="#99e6fc"/><path d="m356.3125 201.003906c-2.851562-3.007812-7.597656-3.132812-10.601562-.285156-12.390626 11.734375-32.550782 11.734375-44.941407 0-3.003906-2.847656-7.753906-2.71875-10.601562.285156-2.847657 3.007813-2.71875 7.753906.289062 10.605469 9.039063 8.558594 20.910157 12.839844 32.785157 12.839844 11.871093 0 23.746093-4.28125 32.78125-12.839844 3.007812-2.851563 3.136718-7.597656.289062-10.605469zm0 0"/><path d="m166.464844 200.71875c-12.390625 11.734375-32.546875 11.734375-44.9375 0-3.007813-2.847656-7.753906-2.71875-10.601563.285156-2.851562 3.007813-2.722656 7.753906.285157 10.605469 9.039062 8.558594 20.910156 12.839844 32.785156 12.839844 11.871094 0 23.746094-4.28125 32.785156-12.839844 3.003906-2.851563 3.132812-7.597656.285156-10.605469-2.847656-3.007812-7.59375-3.136718-10.601562-.285156zm0 0"/><path d="m444.238281 271.003906c-14-21.84375-24.402343-44.128906-30.917969-66.238281-15.351562-52.089844-52.179687-94.75-101.375-117.652344 19.761719-15.675781 28.242188-34.054687 21.15625-46.539062-8.523437-15.007813-35.5625-14.796875-63.710937.175781 3.097656-18.445312-1.3125-33.488281-12.53125-38.816406-16.148437-7.664063-38.535156 8.050781-52.078125 36.566406-5.554688 11.699219-8.6875 23.886719-8.917969 34.582031-22.976562 4.503907-44.664062 13.164063-64.492187 25.757813-3.5 2.222656-4.53125 6.855468-2.3125 10.355468 2.222656 3.496094 6.855468 4.53125 10.351562 2.308594 18.792969-11.9375 39.398438-20.03125 61.238282-24.0625 6-1.109375 10.292968-6.359375 10.203124-12.484375-.128906-8.929687 2.527344-19.589843 7.480469-30.023437 10.574219-22.261719 26.066407-32.308594 32.09375-29.449219 2.722657 1.292969 4.546875 5.738281 4.886719 11.890625.4375 8.039062-1.601562 17.910156-5.742188 27.796875-1.324218 3.15625-.339843 6.808594 2.386719 8.875 2.730469 2.066406 6.511719 2.027344 9.191407-.101563 3.890624-3.085937 8.148437-5.949218 12.652343-8.503906 22.953125-13.035156 43.042969-13.121094 46.257813-7.460937 2.472656 4.355469-3.210938 17.058593-20.320313 29.582031-3.664062 2.679688-5.554687 6.964844-5.0625 11.460938.492188 4.5 3.269531 8.269531 7.421875 10.09375 47.046875 20.660156 82.34375 60.710937 96.835938 109.886718 6.914062 23.472656 17.910156 47.054688 32.675781 70.09375 11.542969 18.007813 17.640625 38.933594 17.628906 60.519532-.027343 61-36.3125 97.503906-66.746093 117.382812-39.484376 25.792969-92.800782 40-150.125 40-57.324219 0-110.636719-14.207031-150.125-40-30.433594-19.878906-66.714844-56.382812-66.746094-117.382812-.007813-22.074219 6.347656-43.402344 18.378906-61.675782 13.710938-20.820312 24.535156-44.28125 32.164062-69.726562 9.203126-30.6875 26.785157-58.242188 50.847657-79.691406 3.089843-2.753907 3.363281-7.496094.605469-10.589844-2.753907-3.089844-7.496094-3.363282-10.585938-.605469-26.132812 23.292969-45.230469 53.230469-55.234375 86.582031-7.210937 24.046875-17.410156 46.179688-30.320313 65.78125-13.652343 20.730469-20.863281 44.914063-20.851562 69.933594.023438 53.589844 25.457031 98.519531 73.542969 129.933594 41.890625 27.367187 98.121093 42.441406 158.324219 42.441406 60.199218 0 116.433593-15.074219 158.328124-42.441406 48.085938-31.410156 73.519532-76.34375 73.542969-129.933594.011719-24.464844-6.90625-48.191406-20-68.621094zm0 0"/><path d="m295.265625 259.738281c0 14.046875 11.429687 25.472657 25.472656 25.472657 14.046875 0 25.476563-11.425782 25.476563-25.472657s-11.429688-25.476562-25.476563-25.476562-25.472656 11.429687-25.472656 25.476562zm35.949219 0c0 5.773438-4.699219 10.472657-10.476563 10.472657-5.773437 0-10.472656-4.699219-10.472656-10.472657 0-5.777343 4.699219-10.476562 10.472656-10.476562 5.777344 0 10.476563 4.699219 10.476563 10.476562zm0 0"/><path d="m169.472656 259.738281c0-14.046875-11.429687-25.476562-25.476562-25.476562s-25.476563 11.429687-25.476563 25.476562 11.429688 25.472657 25.476563 25.472657 25.476562-11.425782 25.476562-25.472657zm-25.476562 10.472657c-5.777344 0-10.476563-4.699219-10.476563-10.472657 0-5.777343 4.699219-10.476562 10.476563-10.476562s10.476562 4.699219 10.476562 10.476562c0 5.773438-4.699218 10.472657-10.476562 10.472657zm0 0"/><path d="m232.367188 311.65625c-27.128907 0-52.183594 16.558594-63.828126 42.183594-1.710937 3.773437-.042968 8.21875 3.726563 9.933594 3.773437 1.714843 8.21875.046874 9.933594-3.726563 9.214843-20.28125 28.910156-33.390625 50.167969-33.390625 21.261718 0 40.957031 13.109375 50.171874 33.390625 1.257813 2.765625 3.980469 4.398437 6.832032 4.398437 1.039062 0 2.09375-.214843 3.101562-.671874 3.769532-1.714844 5.4375-6.160157 3.722656-9.933594-11.644531-25.625-36.699218-42.183594-63.828124-42.183594zm0 0"/><path d="m115.867188 288.394531c-3.128907 0-6.070313 1.386719-8.0625 3.804688-24.886719 30.203125-28.601563 45.480469-28.601563 51.898437 0 20.214844 16.449219 36.664063 36.664063 36.664063 20.21875 0 36.667968-16.449219 36.667968-36.664063 0-6.417968-3.714844-21.695312-28.601562-51.898437-1.992188-2.417969-4.933594-3.804688-8.066406-3.804688zm0 77.367188c-11.945313 0-21.664063-9.71875-21.664063-21.664063 0-6.496094 8.566406-21.425781 21.664063-38.007812 13.101562 16.582031 21.667968 31.511718 21.667968 38.007812 0 11.945313-9.71875 21.664063-21.667968 21.664063zm0 0"/></svg>