<?xml version="1.0"?>
<svg xmlns="http://www.w3.org/2000/svg" id="icon" viewBox="0 0 512 512" width="512" height="512"><title>dog</title><ellipse cx="102.273" cy="373.427" rx="39.356" ry="41.974" style="fill:#ddc1af"/><path d="M262.807,204.911l-27.44-22.724s-28.575,26.575-54.2,76.095a88.371,88.371,0,0,1-25.141,30.027q-1.294.976-2.6,1.938C109.982,322.272,79.315,372.694,94.01,439.47c0,0,6.015,25.648,23.609,42.712a13.926,13.926,0,0,0,9.71,3.956h35.205c8.026,0,14.532-6.939,14.532-15.5V457.186s57.67,9.444,84.24-8.177L241.579,290.54Z" style="fill:#f4e1d4"/><path d="M234.8,458.068l.008-.008L233.542,431.9,193.891,284.178s-29.476,51.859-4.267,120.637c4.735,12.917-2.593,27.454-15.923,30.855a35.075,35.075,0,0,1-5.048.89s8.412,7.172,8.412,20.626C177.065,457.186,207.852,462.226,234.8,458.068Z" style="fill:#ddc1af"/><path d="M347.126,190.093S475.346,263.5,395.187,426.02v44.138a15.98,15.98,0,0,1-15.98,15.98H346.665a15.981,15.981,0,0,1-15.98-15.98V434.845s-16.355,3-31.369,0v35.313a15.98,15.98,0,0,1-15.98,15.98H249.522a15.98,15.98,0,0,1-15.98-15.98V431.9s-40.672-30.167-46.2-96.992a179.712,179.712,0,0,1,27.375-111.257c16.731-26.267,43.689-53.455,84.6-57.142Z" style="fill:#f4e1d4"/><path d="M257.77,47.861S222.5,40.236,190.654,56.3a53.4,53.4,0,0,0-28.946,43.227,280.9,280.9,0,0,0-.164,48.489,22.433,22.433,0,0,0,22.4,20.263h0a22.516,22.516,0,0,0,17.582-8.45l18.759-23.449S222.681,81.355,257.77,47.861Z" style="fill:#ddc1af"/><path d="M403.185,250.675c-22.037-41.1-56.059-60.582-56.059-60.582l-47.81-23.581c-32.884,2.964-52.025,13.779-68.814,34.427h0a27.765,27.765,0,0,0,5.853,20.155,107.277,107.277,0,0,0,38.518,29.942v4.454a32.057,32.057,0,0,0,32.057,32.057h0a32.063,32.063,0,0,0,31.175-24.6C356.837,262.367,378.423,258.735,403.185,250.675Z" style="fill:#ddc1af"/><path d="M351.873,47.861s35.266-7.625,67.116,8.44a53.4,53.4,0,0,1,28.946,43.227,280.9,280.9,0,0,1,.164,48.489,22.433,22.433,0,0,1-22.4,20.263h0a22.516,22.516,0,0,1-17.582-8.45l-18.759-23.449S386.962,81.355,351.873,47.861Z" style="fill:#ddc1af"/><path d="M304.821,25.862s-93.305-1.128-94.1,115.3c0,0,.8,94.1,94.1,94.1s94.1-94.1,94.1-94.1C398.127,24.734,304.821,25.862,304.821,25.862Z" style="fill:#f4e1d4"/><path d="M307.9,162.992h-7.438a8.489,8.489,0,0,0-6.693,13.71l7.438,9.535a8.489,8.489,0,0,0,13.387,0l7.437-9.535a8.488,8.488,0,0,0-6.693-13.71Z" style="fill:#333"/><path d="M307.9,191.8c-6.948,17.467-26.15,13.51-26.15,13.51v27.316a26.15,26.15,0,0,0,26.15,26.15h0a26.15,26.15,0,0,0,26.15-26.15V205.31S314.844,209.267,307.9,191.8Z" style="fill:#ff9494"/><path d="M337.773,383.989c-15.062,20.061-35.751,15.65-35.751,15.65a39.238,39.238,0,0,1-13.507,2.581c-12.928.147-24.693-7.034-31.516-18.016a24.545,24.545,0,0,0-2.437-3.3c-11.167-11.614-9.63-24.143-9.63-24.143a65.072,65.072,0,0,0-1.671,6.386,58.846,58.846,0,0,0,7.559,43.777c14.9,23.331,38.723,24.465,38.723,24.465,12.149,6.029,29.179,4.965,36.963,4.051l.232-.028.563-.069.46-.059.24-.032.5-.068.058-.008c.759-.107,1.333-.2,1.692-.257l.029,0,.192-.032.079-.014.078-.014.052-.009c55.575-7.7,47.516-76.276,47.516-76.276C366.046,398.772,337.773,383.989,337.773,383.989Z" style="fill:#ddc1af"/><path d="M334.046,205.31s-19.2,3.957-26.15-13.51c-6.948,17.467-26.15,13.51-26.15,13.51v15.973c6.962-.312,15.079-1.22,20.98-3.529a16.1,16.1,0,0,1,11.884.182,78.888,78.888,0,0,0,19.436,5.181Z" style="fill:#db6b6b"/><path d="M57.153,373.427a49.117,49.117,0,0,0,12.164,32.61,5.763,5.763,0,1,0,8.636-7.634,37.6,37.6,0,0,1-9.274-24.976c0-19.966,15.07-36.211,33.593-36.211.212,0,.423.013.635.017q-2.355,4.118-4.428,8.357a5.763,5.763,0,1,0,10.355,5.06c10.318-21.124,26.471-39.885,48.011-55.763q1.162-.858,2.315-1.724a94.352,94.352,0,0,0,26.974-31.94,340.606,340.606,0,0,1,26.37-43.012,5.763,5.763,0,1,0-9.345-6.748,352.484,352.484,0,0,0-27.268,44.472,82.717,82.717,0,0,1-23.659,28.015q-1.109.834-2.225,1.659a173.948,173.948,0,0,0-40.221,40.754,43.172,43.172,0,0,0-7.514-.673C77.393,325.69,57.153,347.1,57.153,373.427Z" style="fill:#333"/><path d="M91.321,388.542a5.77,5.77,0,0,0-6.247,5.233A155.253,155.253,0,0,0,88.4,440.786c.261,1.114,6.614,27.5,25.209,45.533a19.618,19.618,0,0,0,13.721,5.581h35.2c11.191,0,20.3-9.537,20.3-21.26v-6.858a246.776,246.776,0,0,0,28.244,1.694h.161a5.763,5.763,0,0,0,0-11.525,1.3,1.3,0,0,0-.153,0,237.636,237.636,0,0,1-28.809-1.856A38.18,38.18,0,0,0,162.024,424.8a31.456,31.456,0,0,1-14.835-17.529,5.763,5.763,0,0,0-11.129,3,42.637,42.637,0,0,0,20.612,24.738A26.8,26.8,0,0,1,171.3,457.187V470.64c0,5.367-3.934,9.735-8.77,9.735h-35.2a8.153,8.153,0,0,1-5.7-2.329c-16.119-15.633-21.957-39.658-22-39.814a143.623,143.623,0,0,1-3.082-43.444A5.762,5.762,0,0,0,91.321,388.542Z" style="fill:#333"/><path d="M191.472,278.531a5.762,5.762,0,0,0-6.793,4.5,186.658,186.658,0,0,0-2.844,19.009c-.015.159-.024.376-.026.536,0,.334-.192,8.213-7.193,11.013a5.763,5.763,0,1,0,4.28,10.7c13.289-5.316,14.35-18.845,14.431-21.344a175.714,175.714,0,0,1,2.647-17.624A5.762,5.762,0,0,0,191.472,278.531Z" style="fill:#333"/><path d="M346.665,491.9h32.543a21.768,21.768,0,0,0,21.743-21.743v-42.8c47.877-98.049,21.879-164.766-8.452-203.524a5.763,5.763,0,0,0-9.077,7.1c28.42,36.314,52.634,99.194,6.6,192.534a5.764,5.764,0,0,0-.595,2.549v44.137a10.23,10.23,0,0,1-10.217,10.218H346.665a10.23,10.23,0,0,1-10.217-10.218V438.889a37.892,37.892,0,0,0,5.968-2.476,5.763,5.763,0,0,0-5.6-10.072,41.881,41.881,0,0,1-8.433,2.925,5.326,5.326,0,0,0-.513.189c-4.406.625-16.287,1.929-27.263-.231a42.329,42.329,0,0,1-8.276-2.88,5.763,5.763,0,0,0-5.608,10.069,40.163,40.163,0,0,0,6.834,2.762v30.982a10.229,10.229,0,0,1-10.216,10.218H249.522a10.23,10.23,0,0,1-10.217-10.218V431.9a5.793,5.793,0,0,0-2.319-4.621c-.273-.2-27.406-20.939-39.106-64.836a5.763,5.763,0,0,0-11.137,2.969c10.863,40.752,33.646,62.906,41.036,69.229v35.512A21.768,21.768,0,0,0,249.522,491.9h33.815a21.767,21.767,0,0,0,21.741-21.743V441.512a103.948,103.948,0,0,0,19.844-.1v28.745A21.768,21.768,0,0,0,346.665,491.9Z" style="fill:#333"/><path d="M421.584,51.155c-22.106-11.148-45.748-11.452-58.6-10.512C336.224,20.067,306.43,20.1,304.891,20.1c-1.733.018-31.685-.026-58.439,20.636a5.8,5.8,0,0,0-1.159-.192c-14.689-.919-36.544.175-57.235,10.611a59.545,59.545,0,0,0-32.091,47.879,282.444,282.444,0,0,0-.162,49.506,28.279,28.279,0,0,0,36.779,24.153,5.763,5.763,0,0,0-3.517-10.977,16.752,16.752,0,0,1-21.784-14.223,277.464,277.464,0,0,1,.168-47.473,47.939,47.939,0,0,1,25.8-38.574c14.13-7.125,29.012-9.331,41.17-9.6a100.72,100.72,0,0,0-16.11,24.078,5.669,5.669,0,0,0-.3.743c-.434,1.353-1.984,3.939-3.108,3.939a5.763,5.763,0,0,0,0,11.526c7.831,0,12.365-7.039,13.936-11.51,23.824-48.859,73.758-48.987,76.051-49,.46.042,46.423-.084,71.638,41.185.065.106.132.208.2.31,1.061,1.509,6.742,9.084,14.418,10.072a5.762,5.762,0,0,0,1.472-11.43c-1.9-.245-4.885-3.115-6.375-5.15a98.041,98.041,0,0,0-11.07-14.747c11.7.275,26.893,2.356,41.215,9.58a47.941,47.941,0,0,1,25.8,38.574,277.581,277.581,0,0,1,.167,47.473,16.755,16.755,0,0,1-21.3,14.37,5.762,5.762,0,1,0-3.2,11.072,28.276,28.276,0,0,0,35.981-24.4,282.336,282.336,0,0,0-.162-49.5A59.542,59.542,0,0,0,421.584,51.155Z" style="fill:#333"/><path d="M261.685,192.268a21.356,21.356,0,0,0,14.3,17.456v22.9a31.913,31.913,0,1,0,63.826,0v-22.9a21.347,21.347,0,0,0,14.3-17.458,5.8,5.8,0,0,0-5.27-6.26,5.718,5.718,0,0,0-6.207,5.228c-.136,1.148-1.233,6.949-9.569,8.4-.029,0-.054.018-.083.023s-.041,0-.061,0c-1.328.254-11.938,1.994-17.749-6.4a14.238,14.238,0,0,0,3.967-3.482l7.438-9.536a14.252,14.252,0,0,0-11.238-23.017H300.458a14.252,14.252,0,0,0-11.237,23.017l7.438,9.537a14.254,14.254,0,0,0,3.967,3.482c-5.813,8.388-16.422,6.651-17.717,6.4-.027-.006-.054,0-.082-.008s-.061-.02-.094-.026c-8.3-1.442-9.425-7.2-9.568-8.383a5.763,5.763,0,0,0-11.48,1.019Zm36.324-21.983a2.649,2.649,0,0,1,2.449-1.53h14.876a2.727,2.727,0,0,1,2.15,4.4l-7.439,9.537a2.727,2.727,0,0,1-4.3,0l-7.439-9.537A2.653,2.653,0,0,1,298.009,170.285Zm4.125,37.062v22.727a5.763,5.763,0,1,0,11.525,0V207.348a30.591,30.591,0,0,0,14.624,4.139v21.139a20.388,20.388,0,0,1-40.775,0V211.487A30.589,30.589,0,0,0,302.134,207.347Z" style="fill:#333"/><path d="M275.843,131.074a5.753,5.753,0,1,0-4.077-1.685A5.792,5.792,0,0,0,275.843,131.074Z" style="fill:#333"/><path d="M335.158,128.511a6.936,6.936,0,0,0,.72.878,5.75,5.75,0,0,0,6.281,1.239,6.262,6.262,0,0,0,.994-.519,5.893,5.893,0,0,0,.864-.72,5.155,5.155,0,0,0,.721-.878,5.844,5.844,0,0,0,.865-2.075,5.956,5.956,0,0,0,.115-1.125,5.862,5.862,0,0,0-1.685-4.077,7.208,7.208,0,0,0-.88-.72,6.426,6.426,0,0,0-.994-.518,5.743,5.743,0,0,0-6.281,1.238,7.017,7.017,0,0,0-.72.879,6.482,6.482,0,0,0-.534,1,5.382,5.382,0,0,0-.316,1.081,5.5,5.5,0,0,0,0,2.247,5.431,5.431,0,0,0,.316,1.08A6.529,6.529,0,0,0,335.158,128.511Z" style="fill:#333"/><path d="M188.319,327.538c-.027.1-2.928,10.39-11.17,15.752a5.763,5.763,0,1,0,6.286,9.66c12.06-7.845,15.873-21.884,16.029-22.477a5.762,5.762,0,1,0-11.145-2.935Z" style="fill:#333"/><path d="M250.818,386.879a43.325,43.325,0,0,1,3.433,6.719,5.762,5.762,0,1,0,10.786-4.06,53.823,53.823,0,0,0-4.362-8.632c-.976-1.611-2.053-3.091-3.071-4.468-7.388-10-7.876-22.263-7.883-22.5a5.763,5.763,0,0,0-5.759-5.609h-.141a5.763,5.763,0,0,0-5.623,5.9c.015.647.489,16.008,10.137,29.062C249.231,384.5,250.1,385.687,250.818,386.879Z" style="fill:#333"/><path d="M300.064,405.058a5.763,5.763,0,0,0,3.917-10.839,36.322,36.322,0,0,1-21.588-20.913,5.763,5.763,0,1,0-10.659,4.384A48.288,48.288,0,0,0,300.064,405.058Z" style="fill:#333"/><path d="M362.516,397.332a5.765,5.765,0,0,0,5.394-3.734,43.752,43.752,0,0,1,3.43-6.715c.726-1.2,1.59-2.384,2.486-3.6,9.648-13.054,10.122-28.415,10.137-29.062a5.763,5.763,0,0,0-5.623-5.9H378.2a5.764,5.764,0,0,0-5.759,5.625c0,.122-.378,12.333-7.883,22.489-1.018,1.377-2.1,2.857-3.073,4.47a55.753,55.753,0,0,0-4.36,8.63,5.766,5.766,0,0,0,5.392,7.794Z" style="fill:#333"/><path d="M325.533,400.316a5.723,5.723,0,0,0,2.823-.744,48.2,48.2,0,0,0,20.858-23.955,5.762,5.762,0,1,0-10.659-4.381,36.807,36.807,0,0,1-15.857,18.3,5.764,5.764,0,0,0,2.835,10.784Z" style="fill:#333"/><path d="M355.475,215.913a5.763,5.763,0,0,0,6.374,9.6c24.792-16.45,35.248-42.367,39.649-61.194,7.973-33.588-1.618-64.7-2.03-66.01a5.763,5.763,0,0,0-11,3.459c.091.291,9.028,29.487,1.807,59.909C386.349,178.494,377.12,201.553,355.475,215.913Z" style="fill:#333"/><path d="M214.719,105.02a5.758,5.758,0,0,0-6.949,4.259c-.338,1.411-8.148,34.922,4.076,67.825,8.516,24.45,23.857,42.887,44.364,53.321a5.763,5.763,0,0,0,5.225-10.274c-18.057-9.186-31.078-24.945-38.745-46.948-11.009-29.639-3.786-60.928-3.711-61.241A5.764,5.764,0,0,0,214.719,105.02Z" style="fill:#333"/></svg>
