<?xml version="1.0"?>
<svg xmlns="http://www.w3.org/2000/svg" id="icon" viewBox="0 0 512 512" width="512" height="512"><title>fish bowl</title><path d="M481.462,216.643c-14.357-81.4-56.838-113.195-56.838-113.195V94.485A12.936,12.936,0,0,0,411.688,81.55H100.312A12.936,12.936,0,0,0,87.376,94.485v8.963s-42.481,31.8-56.838,113.2c-8.8,49.917.587,101.589,28.108,144.155,13.4,20.722,32.119,41.171,58.2,56.38A98.9,98.9,0,0,0,166.7,430.451H345.3a98.9,98.9,0,0,0,49.853-13.273c26.078-15.209,44.8-35.658,58.2-56.38C480.875,318.232,490.266,266.56,481.462,216.643Z" style="fill:#fff"/><path d="M424.624,103.448V94.485A12.936,12.936,0,0,0,411.688,81.55H375.661V97.081a20.735,20.735,0,0,0,7.735,16.1C402,128.25,447.574,173.936,445.275,258.569c-2.082,76.655-77.636,138.2-130.235,171.882H345.3a98.9,98.9,0,0,0,49.853-13.273c26.078-15.209,44.8-35.658,58.2-56.38,27.521-42.566,36.912-94.238,28.108-144.155C467.105,135.244,424.624,103.448,424.624,103.448Z" style="fill:#e6e6e6"/><path d="M462.845,156.319c-13.9-2.65-20.5-7.345-43.86-7.345-32.552,0-32.552,9.113-65.1,9.113s-32.547-9.113-65.094-9.113-32.548,9.113-65.1,9.113-32.547-9.113-65.094-9.113-32.545,9.113-65.092,9.113c-22.208,0-29.268-4.242-41.849-6.938-8.42,16.77-16.333,38.362-21.119,65.494-8.8,49.917.587,101.589,28.108,144.155,13.4,20.722,32.119,41.171,58.2,56.38A98.9,98.9,0,0,0,166.7,430.451H345.3a98.9,98.9,0,0,0,49.853-13.273c26.078-15.209,44.8-35.658,58.2-56.38,27.521-42.566,36.912-94.238,28.108-144.155A240.518,240.518,0,0,0,462.845,156.319Z" style="fill:#b9e4f9"/><path d="M462.845,156.319c-13.9-2.65-20.5-7.345-43.86-7.345-1.187,0-2.319.015-3.423.038,16.273,24.509,31.046,60.47,29.713,109.557-2.082,76.655-77.636,138.2-130.235,171.882H345.3a98.9,98.9,0,0,0,49.853-13.273c26.078-15.209,44.8-35.658,58.2-56.38,27.521-42.566,36.912-94.238,28.108-144.155A240.518,240.518,0,0,0,462.845,156.319Z" style="fill:#8dc8e0"/><circle cx="195.285" cy="257.441" r="18.878" style="fill:#fff"/><path d="M232.651,283.6h0a18.888,18.888,0,0,1,24.785,9.1c8.8,18.345,25.808,46.243,51.262,56.311l-4.9,29.435-12.1,5.448s-44.007-12.689-68.922-76.333A18.822,18.822,0,0,1,232.651,283.6Z" style="fill:#a2b26f"/><path d="M442.033,277.787h0a19.864,19.864,0,0,0-25.7,10.51c-8.549,19.616-25.354,49.584-51.719,61.138l6.274,30.747,12.924,5.263s45.764-15.018,69.514-82.855A19.794,19.794,0,0,0,442.033,277.787Z" style="fill:#a2b26f"/><circle cx="224.809" cy="205.924" r="15.731" style="fill:#fff"/><path d="M305.272,237.668h0a21.117,21.117,0,0,1,19.206,22.412c-1.434,22.7-.083,59.2,19.247,82.925l-20.855,26.036-14.778-1.3s-36-36.412-25.538-112.1A21.041,21.041,0,0,1,305.272,237.668Z" style="fill:#cfe0aa"/><path d="M75.92,218.153h0a10.086,10.086,0,0,0-9.361,7.993c-2.489,11.907-5.832,35.976,1.144,59a10.11,10.11,0,0,0,10.2,7.16l1.31-.067a10.094,10.094,0,0,0,9.183-12.88c-3.065-10.6-5.85-27.665-2.017-49.326A10.109,10.109,0,0,0,75.92,218.153Z" style="fill:#fff"/><circle cx="88.798" cy="193.062" r="10.782" style="fill:#fff"/><path d="M343.726,343.005a78.259,78.259,0,0,1-13.3-25.124c-4.442,7.337-16.7,25.371-33.858,33.074,6.055,11.232,11.526,16.791,11.526,16.791l14.778,1.3Z" style="fill:#a2b26f"/><path d="M392.632,219.328S366.875,203.246,352.38,237.7a74.534,74.534,0,0,0-5.533,32.115c.41,9.5.923,23.8.983,36.854.1,22.07-29.959,59.812-29.959,59.812l45.816,2.9s15.285-16.218,22.426-43.778a98.073,98.073,0,0,0,2.779-29.4c-.385-7.881-.017-21.046,5.066-32.986C401.863,244.642,406.346,226.975,392.632,219.328Z" style="fill:#cfe0aa"/><path d="M345.3,430.451a98.988,98.988,0,0,0,49.948-13.328,169.168,169.168,0,0,0,46.822-40.673c-60.751-15.03-137.338-26.489-213.546-9.834C154,382.9,106.265,378.52,71.3,378.129a168.762,168.762,0,0,0,45.451,38.994A98.988,98.988,0,0,0,166.7,430.451H345.3Z" style="fill:#f4e1d4"/><path d="M393.983,366.264l-.461.5a137.431,137.431,0,0,1-100.474,43.175H200.342a25.7,25.7,0,0,0-25.168,20.517h170.3c1.571,0,3.141-.058,4.711-.13.286-.013.571-.025.857-.041q2.316-.13,4.619-.363c.275-.028.548-.062.823-.093q2.193-.242,4.373-.575c.165-.026.331-.046.5-.073,1.545-.247,3.081-.538,4.611-.856.314-.066.627-.132.94-.2,1.527-.333,3.047-.7,4.556-1.1.169-.046.336-.1.505-.143q2.143-.587,4.257-1.273c.231-.074.463-.144.694-.221q2.217-.735,4.4-1.578c.279-.108.556-.219.833-.328a96.189,96.189,0,0,0,13.1-6.354,169.168,169.168,0,0,0,46.822-40.673C426.943,372.706,410.828,369.185,393.983,366.264Z" style="fill:#ddc1af"/><path d="M149.313,87.312h.928a5.763,5.763,0,1,0,0-11.525h-.928a5.763,5.763,0,1,0,0,11.525Z" style="fill:#333"/><path d="M293,154.792l.15,0a5.763,5.763,0,0,0,.145-11.524l-1.121-.026h-.113a5.763,5.763,0,0,0-.109,11.524Z" style="fill:#333"/><path d="M170.645,257.441a24.64,24.64,0,1,0,24.64-24.641A24.667,24.667,0,0,0,170.645,257.441Zm37.754,0a13.115,13.115,0,1,1-13.114-13.115A13.13,13.13,0,0,1,208.4,257.441Z" style="fill:#333"/><path d="M235.017,288.852a13.059,13.059,0,0,1,17.224,6.337c1.8,3.75,3.714,7.434,5.692,10.95a5.763,5.763,0,1,0,10.046-5.65c-1.856-3.3-3.655-6.761-5.347-10.286a24.633,24.633,0,0,0-45.222,19.454c7.255,18.534,16.749,34.573,28.273,47.837q-9.294,1.515-18.385,3.493c-53.388,11.667-93.188,12.651-125.064,12.075a5.763,5.763,0,0,0-.208,11.524q6.487.117,13.414.128a517.771,517.771,0,0,0,114.318-12.468c56.441-12.334,119.048-10.621,191.4,5.237a5.763,5.763,0,1,0,2.467-11.258c-.555-.122-1.105-.235-1.659-.355,15.777-16.034,28.135-36.634,36.8-61.376a25.607,25.607,0,0,0-47.714-18.5c-2.386,5.473-4.992,10.765-7.748,15.728a5.763,5.763,0,0,0,10.078,5.594c2.932-5.283,5.7-10.908,8.236-16.717a14.081,14.081,0,0,1,26.27,10.086c-9.088,25.959-22.432,46.924-39.655,62.354q-5.654-1.105-11.234-2.1c26.218-22.537,40.019-57.607,40.657-59.259a5.763,5.763,0,0,0-10.749-4.16c-.161.416-16.411,41.626-45.561,60.861-.835-.126-1.667-.247-2.5-.368a121.228,121.228,0,0,0,12.847-30.969,103.925,103.925,0,0,0,2.956-31.129c-.321-6.569-.149-19.262,4.612-30.447,5.042-11.844,16.841-39.559-3.732-51.127-1.517-.9-12.792-7.215-25.465-3.195-9.775,3.1-17.511,11.284-23,24.32a80.78,80.78,0,0,0-5.978,34.6c.413,9.6.918,23.741.977,36.632.031,6.84-3.662,17-10.681,29.38a5.763,5.763,0,0,0,10.026,5.684c8.123-14.328,12.222-26.143,12.18-35.116-.059-13.074-.57-27.379-.987-37.076a69.181,69.181,0,0,1,5.087-29.632c4.092-9.728,9.393-15.706,15.755-17.77,8.217-2.666,16.084,2.019,16.133,2.048.081.05.162.1.245.145,5.758,3.211,10.121,10.069-1.17,36.6-5.378,12.636-5.97,26.291-5.519,35.523a92.431,92.431,0,0,1-2.6,27.675,109.358,109.358,0,0,1-14.2,32.18q-3.8-.466-7.571-.877c.551-.92,1.108-1.83,1.639-2.779a117.415,117.415,0,0,0,14.519-57.042c.015-6.458-.153-12.468-.5-17.863a54.358,54.358,0,0,1,.52-11.255,5.764,5.764,0,0,0-11.407-1.66,66.013,66.013,0,0,0-.615,13.649c.328,5.144.487,10.9.473,17.1a105.857,105.857,0,0,1-13.05,51.437c-1.416,2.53-2.914,4.938-4.45,7.177q-8.942-.741-17.685-1.14c-.02-.026-.032-.055-.052-.081-23.21-29.174-19.352-85.19-19.31-85.753a5.763,5.763,0,0,0-11.493-.859c-.173,2.3-3.677,52.823,16.566,86.256q-4.917-.069-9.769-.02c-9.407-15.545-22.645-47.275-15.886-96.195a15.332,15.332,0,0,1,30.464,3.282c-.759,12.032-.861,30.112,2.974,47.919a5.763,5.763,0,0,0,11.267-2.426c-3.556-16.517-3.451-33.461-2.737-44.767a26.858,26.858,0,0,0-53.385-5.585c-6.507,47.094,4.5,79.667,14.249,98.089q-3.416.138-6.805.328c-14.324-11.987-25.242-29.492-30.476-38.862a5.763,5.763,0,0,0-10.063,5.621c5.556,9.945,14.031,23.15,24.982,34.457q-4.626.456-9.2,1.017c-13-13.218-23.557-30.041-31.39-50.052A13.028,13.028,0,0,1,235.017,288.852Z" style="fill:#333"/><path d="M246.3,205.924a21.494,21.494,0,1,0-21.494,21.5A21.518,21.518,0,0,0,246.3,205.924Zm-31.463,0a9.969,9.969,0,1,1,9.969,9.969A9.98,9.98,0,0,1,214.84,205.924Z" style="fill:#333"/><path d="M373.2,249.383a5.761,5.761,0,0,0,7.674-2.746c.132-.28.216-.448.237-.49a5.763,5.763,0,0,0-10.254-5.263s-.147.285-.4.826A5.763,5.763,0,0,0,373.2,249.383Z" style="fill:#333"/><path d="M113.94,422.156A104.737,104.737,0,0,0,166.7,436.213H345.3a104.737,104.737,0,0,0,52.756-14.057c23.954-13.97,44.186-33.562,60.133-58.229,27.916-43.176,38.195-95.838,28.944-148.285-12.83-72.741-47.386-106.843-56.75-114.921V94.485a18.72,18.72,0,0,0-18.7-18.7H175.6a5.763,5.763,0,1,0,0,11.525H411.688a7.181,7.181,0,0,1,7.173,7.173v8.963a5.76,5.76,0,0,0,2.31,4.613c.251.189,15.753,12.114,30.826,39.614-8.052-2.245-16.685-4.464-33.012-4.464-17.068,0-25.729,2.424-34.106,4.77-7.977,2.233-15.513,4.343-31,4.343s-23.018-2.11-31-4.344l-.8-.223a5.763,5.763,0,1,0-3.1,11.1l.791.221c8.376,2.345,17.036,4.771,34.1,4.771s25.728-2.425,34.105-4.77c7.978-2.234,15.514-4.344,31-4.344s23.02,2.11,31,4.344c2.772.776,5.626,1.57,8.822,2.283a236.373,236.373,0,0,1,16.98,56.281c8.744,49.571-.941,99.3-27.272,140.025C433.558,380.8,414.629,399.15,392.253,412.2A93.2,93.2,0,0,1,345.3,424.688H166.7A93.2,93.2,0,0,1,119.747,412.2c-22.376-13.051-41.305-31.4-56.262-54.532-26.33-40.724-36.015-90.453-27.271-140.025a233.2,233.2,0,0,1,18.647-59.8c1.519.4,3.007.812,4.538,1.24,8.377,2.345,17.041,4.77,34.108,4.77s25.725-2.425,34.1-4.77c7.977-2.234,15.51-4.344,30.991-4.344s23.017,2.11,30.993,4.344c8.376,2.345,17.036,4.77,34.1,4.77s25.727-2.425,34.1-4.77c1.915-.537,3.831-1.074,5.859-1.579a5.763,5.763,0,1,0-2.786-11.184c-2.139.533-4.16,1.1-6.181,1.664-7.977,2.233-15.512,4.343-31,4.343s-23.016-2.11-30.993-4.343c-8.375-2.346-17.036-4.77-34.1-4.77s-25.724,2.424-34.1,4.77c-7.977,2.233-15.511,4.343-30.992,4.343s-23.022-2.11-31-4.343c-.744-.208-1.5-.419-2.257-.628,14.993-27.174,30.338-39.108,30.581-39.292a5.76,5.76,0,0,0,2.31-4.613V94.486a7.181,7.181,0,0,1,7.173-7.174h22.816a5.763,5.763,0,1,0,0-11.525H100.312a18.72,18.72,0,0,0-18.7,18.7v6.235c-9.364,8.078-43.92,42.18-56.75,114.921-9.251,52.447,1.028,105.109,28.943,148.285C69.754,388.594,89.986,408.186,113.94,422.156Z" style="fill:#333"/></svg>
