<?xml version="1.0" encoding="utf-8"?>
<!-- Generator: Adobe Illustrator 19.2.1, SVG Export Plug-In . SVG Version: 6.00 Build 0)  -->
<svg version="1.1" id="icon" xmlns="http://www.w3.org/2000/svg" xmlns:xlink="http://www.w3.org/1999/xlink" x="0px" y="0px"
	 width="512px" height="512px" viewBox="0 0 512 512" style="enable-background:new 0 0 512 512;" xml:space="preserve">
<style type="text/css">
	.st0{fill:#C6C689;}
	.st1{fill:#FFD3A4;}
	.st2{fill:#E8B282;}
	.st3{fill:#DDB6A6;}
	.st4{fill:#C69889;}
	.st5{fill:#D69D99;}
	.st6{fill:#DEE0AA;}
	.st7{fill:#BA7F7F;}
	.st8{fill:#333333;}
</style>
<title>turtle</title>
<g>
	<path class="st0" d="M80.7,307.1c0,0-39.7,15-42.7,90.7c-0.3,6.6,4.9,12.1,11.5,12.4c0.2,0,0.3,0,0.5,0h40.1
		c6.5,0,11.8-5.2,11.9-11.7c0.2-14.4,2.8-39.1,17-56L80.7,307.1z"/>
	<path class="st1" d="M58.4,282c0,0,33.8,116.1,227,112.6c0,0,127.8,4.2,171.7-108.6L58.4,282z"/>
	<path class="st2" d="M457,286l-84.6-0.8l0,0L230,283.7l0,0L58.4,282c0,0,4.3,14.8,18.7,33.7h154.5c8.5,38.5,46.5,62.8,85,54.3
		c27.2-6,48.4-27.2,54.3-54.3H442C448,306.3,453,296.4,457,286z"/>
	<path class="st3" d="M47.3,293.8h417.4c5.8,0,10.4-4.7,10.4-10.4l0,0c0-5.6-2.7-10.9-7.2-14.2l-1.2-0.9c-4-3-6.9-7.2-8.2-12
		c-8.4-31.4-50.9-154.5-202.6-154.5c0,0-153.2-3.6-195.5,148c-1.8,6.5-6.5,11.8-12.7,14.4l0,0c-6.6,2.8-10.9,9.2-10.9,16.3v2.8
		C36.9,289.1,41.5,293.8,47.3,293.8z"/>
	<path class="st4" d="M106.8,241.1c16.5-45.1,54.4-99.7,154.9-109.8c14.4-1.4,26.5-11.3,30.7-25.1l0.5-1.7
		c-12.2-1.8-24.6-2.7-37-2.6c0,0-153.2-3.6-195.5,148c-1.8,6.5-6.5,11.8-12.7,14.4l0,0c-6.6,2.8-10.9,9.2-10.9,16.3v2.8
		c0,5.8,4.7,10.4,10.4,10.4h64.1C103.5,283.4,97.5,266.5,106.8,241.1z"/>
	<path class="st5" d="M347.4,225.2c0,0,7.7-25,6.9-51.1c-0.2-6.6-3.3-12.7-8.6-16.7c-8.1-6.1-17.2-10.8-26.9-13.8
		c-6.4-2-13.3-0.8-18.7,3.1c-6.4,4.6-15,11.7-20.8,20.1c-4.2,6.2-4.9,14.3-1.6,21.1c4.1,8.8,11.2,21.6,20.4,28.9L347.4,225.2z"/>
	<path class="st5" d="M134.3,272.1c2.4-4.6,3.1-9.9,2-15c-2.2-9.5-5.1-18.9-8.5-28c-2.9-7.9-10-13.6-18.4-14.7L74.4,210
		c-6.3,12.7-11.4,26.1-15.2,39.8c-1.8,6.5-6.5,11.8-12.7,14.4c-6.6,2.8-10.9,9.2-10.9,16.3v2.8c0,5.8,4.7,10.4,10.4,10.4h77.1
		L134.3,272.1z"/>
	<path class="st5" d="M245.4,123c0.3-5.6,0.8-13.5,1.1-21c-30,1.9-59.4,9.6-86.4,22.7c4.9,8.1,13.7,21.9,22.1,31.6
		c4.7,5.4,11.6,8.4,18.7,8l6.2-0.3c6.6-0.3,12.8-3.4,17-8.5l15.8-19C243.2,132.7,245.1,128,245.4,123z"/>
	<path class="st5" d="M446.6,222.8c-9.2-20.4-23.9-45.3-46.7-67.2c-0.7,11.5-1.5,26.1-1.6,38c-0.2,10.2,6.7,19.1,16.6,21.6
		C424,217.4,435.8,220.3,446.6,222.8z"/>
	<path class="st4" d="M372.5,293.8v-6.6c0-39.4-31.9-71.3-71.3-71.3c0,0,0,0,0,0l0,0c-39.4,0-71.3,31.9-71.3,71.3c0,0,0,0,0,0v6.6
		L372.5,293.8z"/>
	<path class="st6" d="M320.6,211L320.6,211c36.8,0,66.6,29.8,66.6,66.6V290c0,36.8-29.8,66.6-66.6,66.6h0
		c-36.8,0-66.6-29.8-66.6-66.6v-12.4C254,240.8,283.8,211,320.6,211z"/>
	<path class="st6" d="M146.3,354.7l-2.3,37.8c-0.5,7.9,5.5,14.6,13.4,15.1c0.3,0,0.6,0,0.9,0h59.6c7.9,0,14.3-6.4,14.3-14.3
		c0-0.2,0-0.4,0-0.6l-1.6-37.3c-1-22.5-19.5-40.3-42.1-40.3l0,0C166.1,315.1,147.7,332.5,146.3,354.7z"/>
	<path class="st6" d="M390.7,354.7l-2.3,37.8c-0.5,7.8,5.3,14.6,13.1,15.1c0.3,0,0.6,0,0.8,0h58.5c7.8-0.1,14.1-6.5,14-14.3
		c0-0.2,0-0.4,0-0.6l-1.6-37.3c-1-22.5-19.2-40.3-41.3-40.3l0,0C410.2,315.1,392.1,332.5,390.7,354.7z"/>
	<path class="st5" d="M209.2,234.5c2.6-3.6,4.7-7.7,6-12c1.2-4-0.1-8.4-3.3-11.1l-12.6-10.7c-4.5-3.8-11.2-3.2-15,1.2c0,0,0,0,0,0
		c-4.4,5.2-8.4,10.8-11.9,16.7c-2.9,5.1-1.1,11.6,4,14.5c0.9,0.5,1.8,0.9,2.8,1.1l18.9,4.5C202.2,239.7,206.6,238,209.2,234.5z"/>
	<path class="st0" d="M308.3,334.4c-9.7-4.2-17.9-11.5-23.3-20.6c-5.4-9.2-8.2-19.7-8.1-30.3V264c0-4.8,0.5-9.6,1.7-14.2
		c5.9-22.7,24-34.8,34.4-40.1c-33.7,3.8-59.1,32.3-59.1,66.1v12.4c0,36.8,29.8,66.6,66.6,66.6l0,0c0.5,0,1,0,1.5,0
		C321.6,345.9,316.3,338,308.3,334.4z"/>
	<path class="st0" d="M194.4,403.7c0-8-6.5-14.5-14.5-14.5c0,0,0,0,0,0c-8,0-14.5-6.5-14.5-14.5v-20c-0.1-15,6.2-29.3,17.3-39.3
		c-20,2.7-35.3,19.1-36.5,39.2l-2.3,37.8c-0.5,7.9,5.5,14.6,13.4,15.1c0.3,0,0.6,0,0.9,0h36.3V403.7z"/>
	<path class="st0" d="M437.1,402.4c0-7.3-5.9-13.1-13.1-13.1c0,0,0,0,0,0h-2.7c-7.3,0-13.1-5.9-13.1-13.1v-21.3
		c-0.1-14.9,6.1-29,17.1-39c-19.1,3.4-33.4,19.5-34.4,38.9l-2.3,37.8c-0.5,7.8,5.3,14.6,13.1,15.1c0.3,0,0.6,0,0.8,0h34.7V402.4z"/>
	<path class="st7" d="M117.5,217.1c-2.5-1.4-5.3-2.3-8.1-2.7L74.5,210c-6.3,12.7-11.4,26.1-15.2,39.8c-1.8,6.5-6.5,11.8-12.7,14.4
		c-6.6,2.8-10.9,9.2-10.9,16.3v2.8c0,5.8,4.7,10.4,10.4,10.4h65.2c-7.8-10.4-13.8-27.3-4.5-52.7
		C109.8,232.8,113.4,224.8,117.5,217.1z"/>
	<path class="st7" d="M180.5,154.2c16.8-9,37-16.1,61.4-20.3c2-3.3,3.2-7,3.5-10.9c0.3-5.6,0.8-13.5,1.1-21
		c-30,1.9-59.4,9.6-86.4,22.7C164.7,132.3,172.6,144.7,180.5,154.2z"/>
	<path class="st8" d="M364.5,372.6c-40.6,17.1-78.6,16.2-78.9,16.2c-0.1,0-0.2,0-0.3,0c-15.9,0.3-31.8-0.3-47.7-1.8l-1.4-31.9
		c-1.1-26.4-23.5-46.9-49.9-45.8c-24.5,1.1-44.2,20.4-45.7,44.9l-2.3,37.8c-0.7,11,7.7,20.5,18.8,21.2c0.4,0,0.8,0,1.2,0h59.6
		c9.1,0,17-6.1,19.4-14.9c12.7,1.2,26,1.9,39.7,1.9c2.8,0,5.7,0,8.5-0.1c3.2,0.1,41.5,0.7,83.6-17.1c2.9-1.3,4.2-4.7,3-7.6
		C370.7,372.8,367.4,371.5,364.5,372.6L364.5,372.6z M223.9,399.3c-1.6,1.7-3.8,2.6-6.1,2.6h-59.6c-4.7,0-8.5-3.8-8.5-8.5
		c0-0.2,0-0.3,0-0.5L152,355c1.2-20,18.5-35.3,38.5-34.1c18.6,1.1,33.3,16.1,34.1,34.7l1.6,37.3
		C226.4,395.3,225.5,397.6,223.9,399.3z"/>
	<path class="st8" d="M129.9,354.6c-21.3-12.6-38.6-28.3-51.5-46.7c-1.8-2.6-5.4-3.2-8-1.4c-2.6,1.8-3.2,5.4-1.4,8l0,0
		c10.3,14.5,22.7,27.2,36.9,37.8c-7.7,15.8-9.5,33.6-9.7,46.1c-0.1,3.4-2.8,6.1-6.2,6.1H50c-3.4,0-6.2-2.8-6.2-6.2
		c0-0.1,0-0.2,0-0.2c1.1-28.1,7.4-50.6,18.8-67c1.8-2.6,1.1-6.2-1.5-8c-2.6-1.8-6.1-1.1-7.9,1.5c-12.6,18.2-19.6,42.9-20.8,73.1
		c-0.4,9.8,7.2,18,17,18.4c0.2,0,0.5,0,0.7,0h40.1c9.7,0,17.5-7.8,17.7-17.4c0.1-10.8,1.7-26,7.7-39.5c2.8,1.9,5.7,3.7,8.6,5.4
		c2.7,1.6,6.3,0.7,7.9-2C133.6,359.8,132.7,356.2,129.9,354.6L129.9,354.6z"/>
	<path class="st8" d="M47.3,299.5h179.2c3.2,0,5.7-2.7,5.7-5.8c0-3.1-2.6-5.6-5.7-5.7H47.3c-2.6,0-4.7-2.1-4.7-4.7v-2.8
		c0-4.8,2.9-9.2,7.3-11c7.9-3.3,13.8-10,16-18.2c3.3-12,7.7-23.8,13-35.1l30.8,4c6.3,0.8,11.6,5,13.7,10.9c3.3,8.9,6.1,18,8.3,27.2
		c0.8,3.8,0.3,7.7-1.5,11.2c-1.4,2.8-0.3,6.3,2.5,7.8c2.8,1.4,6.3,0.3,7.8-2.5l0,0c3-5.8,3.9-12.5,2.5-18.9
		c-2.3-9.8-5.2-19.4-8.8-28.8c-3.6-10-12.5-17.1-23.1-18.4l-26.7-3.4c4.5-8.2,9.6-16,15.3-23.4c1.9-2.5,1.4-6.2-1.1-8.1
		c-2.5-1.9-6.1-1.4-8,1c-7.7,10.1-14.4,20.9-20.1,32.2l0,0c-6.5,13.2-11.8,26.9-15.7,41.1c-1.3,4.8-4.8,8.7-9.4,10.6
		c-8.7,3.6-14.4,12.2-14.4,21.7v2.8C31.1,292.3,38.4,299.5,47.3,299.5z"/>
	<path class="st8" d="M112.8,150.8l-0.5,0.4c-2.3,2.2-2.4,5.9-0.1,8.1c2.1,2.2,5.6,2.4,7.9,0.3l0.5-0.4c2.3-2.2,2.5-5.8,0.3-8.1
		C118.8,148.8,115.1,148.7,112.8,150.8L112.8,150.8L112.8,150.8z"/>
	<path class="st8" d="M452,220.8c0-0.1-0.1-0.2-0.1-0.3c-9.2-20.8-21.5-40-36.5-57.1C375.9,118.7,322.2,96,256.1,96
		c-2.7-0.1-65.8-1.1-123.2,38.7c-2.6,1.8-3.2,5.4-1.4,8c1.8,2.6,5.4,3.2,8,1.4c38.4-26.7,80.6-34,102.1-36
		c-0.3,5.4-0.6,10.6-0.8,14.4c-0.2,3.8-1.6,7.3-4,10.2l-15.8,19c-3.2,3.8-7.9,6.2-12.9,6.4l-6.2,0.3c-5.4,0.3-10.6-2-14.1-6
		c-3-3.4-6.3-7.7-9.8-12.8c-1.8-2.6-5.4-3.2-8-1.4s-3.2,5.4-1.4,8c3.8,5.4,7.3,10,10.5,13.7c5.5,6.4,13.6,10.1,22,10
		c0.4,0,0.9,0,1.3,0l6.2-0.3c8.2-0.4,15.9-4.2,21.2-10.5l15.8-19c4-4.8,6.3-10.7,6.7-16.9c0.3-4.2,0.6-9.9,0.9-15.8
		c1.7,0,2.7,0,2.8,0c64,0,107.9,22.2,138,50.1c-0.6,10.5-1.3,24.5-1.5,35.9c-0.2,12.9,8.5,24.2,21,27.2c7.7,1.9,18.7,4.6,29.2,7.1
		c4.2,9.7,7.7,19.7,10.5,29.9c1.6,6.1,5.3,11.4,10.3,15.1l1.2,0.9c3,2.3,4.8,5.8,4.8,9.6c0,2.6-2.1,4.7-4.7,4.7h-52.8
		c-3.2,0-5.8,2.5-5.8,5.7c0,3.2,2.5,5.8,5.7,5.8c0.1,0,0.1,0,0.2,0h52.8c8.9,0,16.2-7.2,16.2-16.2c0-7.4-3.5-14.4-9.5-18.9l-1.2-0.9
		c-2.9-2.2-5.1-5.3-6-8.8C461,243.1,456.9,231.8,452,220.8z M416.2,209.5c-7.3-1.8-12.3-8.4-12.2-15.9c0.1-7.8,0.5-16.8,0.9-25
		c12.5,13.8,23.1,29.2,31.4,45.8C428.9,212.7,421.7,210.9,416.2,209.5L416.2,209.5z"/>
	<path class="st8" d="M248.1,275.8v12.4c-0.1,39.9,32.1,72.5,72.1,72.6c39.9,0.1,72.5-32.1,72.6-72.1c0-0.2,0-0.4,0-0.5v-12.4
		c0.1-39.9-32.1-72.5-72.1-72.6s-72.5,32.1-72.6,72.1C248.1,275.4,248.1,275.6,248.1,275.8z M372,320.4
		c-17.8,28.5-55.2,37.2-83.7,19.4c-17.8-11.1-28.6-30.6-28.6-51.6v-12.4c0-33.6,27.2-60.8,60.8-60.8c33.6,0,60.8,27.2,60.8,60.8
		v12.4c0,7.2-1.3,14.3-3.8,21.1"/>
	<path class="st8" d="M303.6,265.7c0.4,0,0.8,0,1.1-0.1c0.4-0.1,0.7-0.2,1.1-0.3c0.3-0.1,0.7-0.3,1-0.5c0.6-0.4,1.2-1,1.6-1.6
		c0.2-0.3,0.4-0.7,0.5-1c0.1-0.3,0.2-0.7,0.3-1.1c0.1-0.4,0.1-0.7,0.1-1.1c0-1.5-0.6-3-1.7-4.1c-0.3-0.3-0.6-0.5-0.9-0.7
		c-0.3-0.2-0.6-0.4-1-0.5c-0.3-0.1-0.7-0.3-1.1-0.3c-3.1-0.6-6.2,1.4-6.8,4.5c-0.6,3.1,1.4,6.2,4.5,6.8
		C302.8,265.6,303.2,265.7,303.6,265.7L303.6,265.7z"/>
	<path class="st8" d="M345.4,264.7c0.3,0.2,0.6,0.4,1,0.5c0.3,0.1,0.7,0.3,1.1,0.3c3.1,0.6,6.2-1.4,6.8-4.5c0.4-1.9-0.2-3.8-1.6-5.2
		c-0.3-0.3-0.6-0.5-0.9-0.7c-0.3-0.2-0.6-0.4-1-0.5c-0.3-0.1-0.7-0.3-1.1-0.3c-0.7-0.2-1.5-0.2-2.2,0c-0.4,0.1-0.7,0.2-1.1,0.3
		c-0.3,0.1-0.7,0.3-1,0.5c-0.3,0.2-0.6,0.5-0.9,0.7c-2.2,2.3-2.2,5.9,0,8.2C344.8,264.2,345.1,264.5,345.4,264.7z"/>
	<path class="st8" d="M432,309.4c-24.8,0-45.5,19.7-47,44.9l0,0l-2.3,37.8c-0.3,5.5,1.6,11,5.4,15c3.7,4,8.9,6.2,14.3,6.2h58.5
		c5.4,0,10.5-2.2,14.2-6.1c3.8-4,5.8-9.3,5.6-14.8l-1.6-37.3C478,329.5,457.3,309.4,432,309.4z M466.8,399.4
		c-1.5,1.6-3.6,2.5-5.9,2.5h-58.5c-2.2,0-4.4-0.9-5.9-2.6c-1.6-1.7-2.5-4.1-2.3-6.5l2.3-37.8l0,0c1.2-19.1,16.8-34.1,35.5-34.1
		c19.1,0,34.7,15.3,35.6,34.8l1.6,37.3C469.3,395.4,468.4,397.7,466.8,399.4z"/>
	<path class="st8" d="M204.1,196.3c-6.9-5.8-17.3-5-23.1,1.9c0,0,0,0,0,0.1c-4.7,5.5-8.8,11.4-12.4,17.6c-4.5,7.9-1.7,17.9,6.2,22.3
		c1.3,0.8,2.8,1.3,4.3,1.7l18.9,4.5c6.5,1.6,13.3-1,17.2-6.5l0,0c3-4.2,5.3-8.8,6.8-13.7c1.8-6.2-0.2-12.9-5.2-17.1L204.1,196.3z
		 M210.8,220.9c-1.2,3.7-2.9,7.1-5.2,10.2c-1.1,1.6-3.2,2.4-5.1,2l-18.9-4.5c-1.5-0.4-2.8-1.4-3.4-2.8c-0.6-1.4-0.5-3,0.2-4.3
		c3.3-5.6,7.1-10.9,11.3-15.9c0.8-1,2-1.6,3.3-1.7c0.1,0,0.3,0,0.4,0c1.2,0,2.3,0.4,3.1,1.2l12.6,10.7
		C210.7,217,211.3,219,210.8,220.9L210.8,220.9z"/>
	<path class="st8" d="M353.9,200.9c3.2,0.4,6-1.9,6.4-5.1c0.8-7.3,1.2-14.6,1-21.9c-0.2-8.3-4.2-16-10.8-21.1
		c-8.6-6.5-18.3-11.5-28.6-14.7c-8.1-2.5-16.9-1-23.8,3.9c-6.6,4.8-15.9,12.4-22.2,21.5c-5.4,7.9-6.2,18.1-2.1,26.8
		c1.2,2.5,2.4,5,3.7,7.3c1.5,2.8,5,3.8,7.8,2.3c2.8-1.5,3.8-5,2.3-7.8c-1.2-2.1-2.3-4.4-3.4-6.7c-2.4-5-1.9-10.8,1.1-15.4
		c5.4-7.8,13.5-14.5,19.4-18.7c3.9-2.8,9-3.7,13.6-2.3c9,2.8,17.5,7.2,25.1,12.8c3.8,2.9,6.1,7.4,6.3,12.3
		c0.2,6.8-0.1,13.5-0.9,20.2C348.4,197.7,350.7,200.5,353.9,200.9C353.9,200.9,353.9,200.9,353.9,200.9z"/>
	<g>
		<path class="st8" d="M364.6,289.1c-1.4,0-2.7,0.7-3.4,1.8c-7,11.1-19.9,18.6-34.6,18.6c-14.7,0-27.5-7.5-34.6-18.6
			c-0.7-1.2-2-1.8-3.4-1.8H287c-3.1,0-5,3.3-3.5,6.1c8.2,14.8,24.5,24.8,43.2,24.8c18.8,0,35.1-10.1,43.2-24.8
			c1.5-2.7-0.4-6.1-3.5-6.1H364.6z"/>
	</g>
</g>
</svg>
