<?xml version="1.0"?>
<svg xmlns="http://www.w3.org/2000/svg" id="icon" viewBox="0 0 512 512" width="512" height="512"><title>bird</title><path d="M79.315,209.806h0a7.53,7.53,0,0,1,4.4,3.627L112.255,266.5s15.937-7.5,31.405,18.749,43.591,38.2,43.591,38.2l-59.293,41.485s-48.335-42.866-58.38-147.192A7.544,7.544,0,0,1,79.315,209.806Z" style="fill:#98cbea"/><path d="M157.723,303c-14.128,9.624-37.3,19.453-64.734,8.341,16.483,37.187,34.969,53.592,34.969,53.592l59.293-41.486A107.425,107.425,0,0,1,157.723,303Z" style="fill:#71aec6"/><path d="M352.885,59.258S332.028,34.5,278.3,36.007c-9.642.271-15.7,10.976-12.727,20.153a23.68,23.68,0,0,0,8.1,11.4c14.715,11.657,18.687,19.526,18.687,19.526Z" style="fill:#98cbea"/><path d="M392.241,213.952s41.309,20.982,47.211,71.471,15.737,181.631-115.4,144.911Z" style="fill:#71aec6"/><path d="M330.829,57.96c-27.676,5.345-61.494,25.915-72.9,91.617l-3.893,48.67s-23.238-.83-60.517,88.7c-11.638,27.95-32.488,51.317-59.378,65.23-18.023,9.325-39.741,15.074-63.1,9.6,0,0,.974,27.255,36.989,29.2,0,0,10.707,29.2,38.936,26.282,0,0,14.6,24.335,68.137,13.627,0,0,49.838,39.87,116.122,5.482,39.827-20.662,67.794-58.654,77.2-102.524,5.311-24.759,6.477-55.2-4.488-87.762V151.018c0-7.086.266-14.167.686-21.24.5-8.4.4-22.847-4.374-35.774C389.941,66.107,360.032,52.32,330.829,57.96Z" style="fill:#ffd3a4"/><path d="M283.27,236.215l-54.6-16.153,0,0q-1.77,2.425-3.649,5.221l-.044.066q-.913,1.362-1.852,2.816l-.052.081q-.947,1.467-1.918,3.032l-.109.177q-.9,1.461-1.831,3.01l-.183.3q-.972,1.629-1.967,3.355c-.049.085-.1.174-.148.26q-.907,1.578-1.835,3.244l-.3.544c-.663,1.2-1.334,2.422-2.012,3.685-.063.118-.127.241-.191.359-.61,1.141-1.228,2.314-1.851,3.51l-.4.773c-.68,1.316-1.367,2.659-2.061,4.042-.074.148-.15.3-.225.452q-.93,1.861-1.879,3.81l-.492,1.01c-.7,1.448-1.407,2.922-2.12,4.439-.067.141-.134.288-.2.43-.651,1.387-1.308,2.809-1.97,4.254l-.551,1.208c-.724,1.6-1.453,3.215-2.19,4.882-.05.112-.1.229-.15.342-.693,1.569-1.392,3.179-2.095,4.812q-.292.679-.586,1.366c-.746,1.746-1.5,3.515-2.254,5.335l-.026.062a132.094,132.094,0,0,1-23.969,37.879q-1.881,2.076-3.85,4.069a126.994,126.994,0,0,1-10.167,9.2,125.218,125.218,0,0,1-11.6,8.432q-4.751,3.038-9.795,5.651l-.017.008q-1.563.809-3.165,1.577c-.39.188-.787.367-1.18.551-.68.318-1.361.635-2.051.942-.5.223-1.007.438-1.513.654q-.874.375-1.758.737-.862.353-1.734.691c-.519.2-1.041.4-1.565.592-.64.237-1.281.472-1.927.7-.452.157-.909.307-1.364.458-.717.24-1.433.48-2.157.7-.274.084-.552.16-.827.242-1.936.581-3.9,1.114-5.886,1.576l-5.857,28.909h.014q1.093.143,2.229.254c.851.079,1.708.154,2.6.2l.042,0s.167.456.515,1.249c.087.2.186.418.3.656a50.1,50.1,0,0,0,2.535,4.779c.46.766.97,1.572,1.532,2.4.842,1.245,1.8,2.544,2.883,3.847.721.869,1.5,1.74,2.327,2.6.792.817,1.638,1.62,2.533,2.4.636.554,1.3,1.092,1.992,1.616q1.071.816,2.231,1.567a33.008,33.008,0,0,0,9.527,4.253c.347.092.7.18,1.05.262a34.945,34.945,0,0,0,11.516.654h0A14.3,14.3,0,0,0,148.2,418.9c.3.353.654.752,1.074,1.188l.043.047,0,0c.452.467.981.977,1.581,1.514l.221.192c.6.524,1.26,1.071,2.007,1.632.542.408,1.14.823,1.764,1.24q.876.585,1.866,1.172a45.282,45.282,0,0,0,4.2,2.2,58.6,58.6,0,0,0,14.619,4.382q1.481.253,3.053.456c2.1.269,4.32.467,6.674.578a122.772,122.772,0,0,0,29.8-2.618s8.6,6.872,23.393,12.45C327.026,375.852,283.27,236.215,283.27,236.215Z" style="fill:#f2b883"/><path d="M277.118,337.114c28.854-117.87-23.079-138.867-23.079-138.867s-23.238-.83-60.517,88.7c-11.638,27.95-32.488,51.317-59.377,65.23-18.023,9.325-39.742,15.074-63.1,9.6,0,0,.974,27.255,36.989,29.2,0,0,10.707,29.2,38.936,26.282,0,0,14.6,24.334,68.137,13.627C269.039,409.88,277.118,337.114,277.118,337.114Z" style="fill:#98cbea"/><path d="M345.142,149.1h31.122s-4.222-14.716-16.7-20.711a19.271,19.271,0,0,0-21.409,2.807c-.085.077-.17.156-.254.235C331.2,137.776,335.914,149.1,345.142,149.1Z" style="fill:#999"/><path d="M327.2,198.247s-13.687,9.73-28.428,4.961a3.217,3.217,0,0,0-4.146,3.738c1.163,5.073,4.65,11.848,14.9,13.116,0,0,3.764,14.377,25.226,15.929,0,0,12.886,8.179,27.725-10.03,0,0,16.783-12.934,16.432-36.208,0,0-13.385,31.7-39.452,26.247C339.451,216,321.77,214.809,327.2,198.247Z" style="fill:#f2b883"/><path d="M378.609,333.963s-8.693,17.592-29.644,14.093c0,0-14.07,10.451-26.451,2.7a65.691,65.691,0,0,1-14.085,14.608A3.96,3.96,0,0,0,310.4,372.5c8.73.882,20.729.633,30.335-5.007,0,0,13.271,7.7,25.542-2.563A40.389,40.389,0,0,0,378.609,333.963Z" style="fill:#f2b883"/><path d="M248.011,374.846c-29.6,41.21-54.242,24.006-54.242,24.006l-18.658,10.8c-28.5-13.555,0-41.381,0-41.381-42.2,21.867-66.917,5.254-76.914-4.854a80.963,80.963,0,0,1-27.156-1.645s.974,27.255,36.989,29.2c0,0,10.707,29.2,38.936,26.282,0,0,14.6,24.334,68.137,13.627,28.894-11.253,44.624-37.358,53.006-59.176A14.283,14.283,0,0,0,248.011,374.846Z" style="fill:#71aec6"/><path d="M104.815,340.169a5.765,5.765,0,0,0,4.956-8.7c-12.78-21.628-29.13-59.009-34.455-114.268a1.767,1.767,0,0,1,.658-1.579,1.722,1.722,0,0,1,1.632-.316,1.765,1.765,0,0,1,1.036.852l28.514,53.019L123.289,300.1a5.762,5.762,0,1,0,10.217-5.332L121.543,271.84c4.487,1.316,10.673,5.338,17.152,16.331A91.433,91.433,0,0,0,152.556,306a5.763,5.763,0,1,0,8.191-8.11,79.848,79.848,0,0,1-12.122-15.566c-12.506-21.224-26.04-23.264-33.378-22.427L88.792,210.7a13.3,13.3,0,0,0-24.948,7.607c5.528,57.369,22.63,96.393,36.005,119.028A5.761,5.761,0,0,0,104.815,340.169Z" style="fill:#333"/><path d="M428.981,240.652a5.763,5.763,0,1,0-9.57,6.424,87.525,87.525,0,0,1,14.317,39.017c2.667,22.825,10.785,92.286-19.928,125.881-12.037,13.168-29.235,19.555-51.174,18.956h-.158a5.763,5.763,0,0,0-.151,11.524q1.563.041,3.1.041c23.957,0,43.087-7.644,56.891-22.742,34.266-37.481,25.688-110.879,22.869-135A98.943,98.943,0,0,0,428.981,240.652Z" style="fill:#333"/><path d="M282.8,338.128C299.658,269,289.081,231.9,277.226,212.945a5.763,5.763,0,1,0-9.773,6.111c10.7,17.109,20.09,51.24,4.068,116.688a5.588,5.588,0,0,0-.131.749c-.08.732-8.549,73.193-57.732,88.8-29.178,5.773-45.512.741-53.95-4.265a107.643,107.643,0,0,0,41.955-20.961,5.763,5.763,0,0,0-7.218-8.985c-23.9,19.2-47.325,20.4-47.69,20.417-.045,0-.086.015-.131.018-.083,0-.166,0-.25.008-15.45,1.591-24.7-8.346-29.308-15.546a139.132,139.132,0,0,0,36.914-10.349c22.851-9.934,54-31.017,72.628-75.043a5.763,5.763,0,1,0-10.614-4.491c-13.693,32.364-35.955,55.5-66.166,68.771-21.475,9.433-39.591,10.275-41.659,10.34-18.894-1.073-26.416-9.639-29.4-16.2,18.92,2.365,38.393-1.554,58.029-11.714,27.683-14.324,49.718-38.519,62.049-68.133,6.323-15.186,12.652-28.723,18.815-40.233a5.763,5.763,0,1,0-10.161-5.439c-6.337,11.838-12.829,25.713-19.294,41.242-11.29,27.113-31.428,49.247-56.7,62.326-20.272,10.49-40.167,13.552-59.14,9.106a5.762,5.762,0,0,0-7.074,5.816c.011.315,1.534,30.613,38.813,34.468,5.386,11.282,18.7,27.32,40.228,26.758,4.85,5.4,17.969,16.158,45.523,16.158a134.753,134.753,0,0,0,26.386-2.827c.063-.012.118-.041.18-.055.136-.032.272-.052.407-.094C272.044,419.153,282,344.954,282.8,338.128Z" style="fill:#333"/><path d="M221.976,229.9a5.763,5.763,0,0,0,7.985-1.634l.119-.178a5.763,5.763,0,1,0-9.561-6.436l-.176.263A5.762,5.762,0,0,0,221.976,229.9Z" style="fill:#333"/><path d="M252.188,149.117l-3.571,44.637a38.664,38.664,0,0,0-10.753,7.143,5.763,5.763,0,0,0,7.667,8.605c4.788-4.266,7.72-5.25,8.536-5.454a4.864,4.864,0,0,0,3.9-1.156,5.437,5.437,0,0,0,1.812-4.184l3.872-48.4c6.028-34.491,18.948-59.29,38.4-73.713a5.762,5.762,0,0,0-6.863-9.258,84.877,84.877,0,0,0-6.79,5.648c-1.711-1.743-3.554-3.5-5.552-5.268a5.763,5.763,0,1,0-7.631,8.639c1.888,1.669,3.612,3.32,5.192,4.943-13.779,16.348-23.228,38.884-28.159,67.3C252.224,148.765,252.2,148.941,252.188,149.117Z" style="fill:#333"/><path d="M224.585,365.658a5.765,5.765,0,0,0-8.02,1.452c-.276.4-.551.792-.83,1.184a5.762,5.762,0,1,0,9.387,6.686q.46-.644.915-1.3A5.764,5.764,0,0,0,224.585,365.658Z" style="fill:#333"/><path d="M336.593,470.458H318.036V448.511a139.388,139.388,0,0,0,15.842-7.026c41.015-21.28,70.242-60.072,80.186-106.431,6.623-30.879,5.154-61.122-4.36-89.906v-94.13c0-6.4.221-13.235.675-20.9.593-9.959.254-24.658-4.72-38.114-8.793-23.789-31.6-39.7-58.423-40.964C337,43.175,316.277,27.927,277.953,30.255c-3.37.206-13.622.832-26.283,10.327a5.763,5.763,0,0,0,6.916,9.221c8.871-6.653,15.7-7.777,20.069-8.045,34.891-2.1,52.669,11.578,62.228,18.939l.785.6c.033.025.07.042.1.066.11.08.227.147.342.22a5.661,5.661,0,0,0,.564.321c.121.058.243.108.368.158a5.6,5.6,0,0,0,.645.214c.119.032.237.064.359.088a5.737,5.737,0,0,0,.825.1c.063,0,.121.021.185.022C367.954,62.962,387.5,76.116,394.848,96c4.506,12.194,4.457,26.182,4.025,33.436-.467,7.892-.695,14.95-.695,21.58v95.066a5.781,5.781,0,0,0,.3,1.839c9.115,27.064,10.567,55.566,4.315,84.713-9.219,42.984-36.272,78.929-74.223,98.618-36,18.677-66.823,14.292-86.336,7.321a5.763,5.763,0,0,0-3.878,10.854,115.555,115.555,0,0,0,12.694,3.729v17.3H247.4a5.763,5.763,0,0,0,0,11.526h33.737a5.763,5.763,0,0,0,0-11.526H262.577V455.194a112.279,112.279,0,0,0,14.138.918,116.033,116.033,0,0,0,29.8-3.947v18.293h-3.653a5.763,5.763,0,0,0,0,11.526h33.736a5.763,5.763,0,1,0,0-11.526Z" style="fill:#333"/><path d="M268.044,65.216a10.074,10.074,0,0,1,4.886-2.837,5.763,5.763,0,0,0-2.075-11.338,21.47,21.47,0,0,0-11.391,6.477,5.764,5.764,0,0,0,8.58,7.7Z" style="fill:#333"/><path d="M313.919,361.355a5.762,5.762,0,0,0,8.143-.318,40.819,40.819,0,0,0,10.883-27.6,5.763,5.763,0,0,0-11.512.554,29.551,29.551,0,0,1-7.832,19.221A5.762,5.762,0,0,0,313.919,361.355Z" style="fill:#333"/><path d="M344.281,362.887a5.747,5.747,0,0,0,4.232-1.85,40.825,40.825,0,0,0,10.883-27.6,5.763,5.763,0,0,0-11.512.554,29.557,29.557,0,0,1-7.832,19.221,5.763,5.763,0,0,0,4.229,9.675Z" style="fill:#333"/><path d="M365.333,361.355a5.762,5.762,0,0,0,8.143-.318,40.813,40.813,0,0,0,10.883-27.6,5.762,5.762,0,1,0-11.511.554,29.562,29.562,0,0,1-7.833,19.221A5.762,5.762,0,0,0,365.333,361.355Z" style="fill:#333"/><path d="M384.3,181.143a5.763,5.763,0,0,0-11.388,1.776c.165,1.113,3.758,27.463-22.538,45.579a5.763,5.763,0,0,0,6.54,9.492C389.348,215.647,384.524,182.542,384.3,181.143Z" style="fill:#333"/><path d="M356.6,202.383a5.763,5.763,0,0,0-11.347-2.019c-.314,1.661-3.53,16.171-20.688,14.639a5.762,5.762,0,0,0-1.033,11.478c1.251.114,2.46.167,3.629.167C346.986,226.648,355.081,211.09,356.6,202.383Z" style="fill:#333"/><path d="M307.872,197.863a5.764,5.764,0,0,0-2.609,11.228,30.172,30.172,0,0,0,6.848.8,27.963,27.963,0,0,0,19.255-7.67,5.763,5.763,0,1,0-8.34-7.955A16.662,16.662,0,0,1,307.872,197.863Z" style="fill:#333"/><path d="M332.512,98.993a6.624,6.624,0,0,0-.519-.995,6.944,6.944,0,0,0-.721-.878,6.866,6.866,0,0,0-.878-.72,6.523,6.523,0,0,0-.994-.519,5.565,5.565,0,0,0-1.081-.331,5.815,5.815,0,0,0-5.2,1.57A7.212,7.212,0,0,0,322.4,98a6.619,6.619,0,0,0-.518.995,5.526,5.526,0,0,0-.332,1.081,5.541,5.541,0,0,0,0,2.246,5.484,5.484,0,0,0,.332,1.081,6.571,6.571,0,0,0,.518,1,7.3,7.3,0,0,0,.721.879,5.859,5.859,0,0,0,4.077,1.686,5.939,5.939,0,0,0,1.124-.116,5.5,5.5,0,0,0,1.081-.332,5.42,5.42,0,0,0,.994-.533,5.821,5.821,0,0,0,.878-.7,7.025,7.025,0,0,0,.721-.879,6.576,6.576,0,0,0,.519-1,5.48,5.48,0,0,0,.33-1.081,5.494,5.494,0,0,0,0-2.246A5.521,5.521,0,0,0,332.512,98.993Z" style="fill:#333"/><path d="M367.19,106.513a5.76,5.76,0,0,0,1.081.332,5.935,5.935,0,0,0,1.122.116,5.755,5.755,0,0,0,5.763-5.763,4.921,4.921,0,0,0-.115-1.124,5.49,5.49,0,0,0-.317-1.081,6.436,6.436,0,0,0-.533-.995,5.91,5.91,0,0,0-.72-.878,5.75,5.75,0,0,0-6.281-1.239,6.431,6.431,0,0,0-.994.519,7.027,7.027,0,0,0-.88.72,5.871,5.871,0,0,0-.7.878,5.552,5.552,0,0,0-.533.995,5.459,5.459,0,0,0-.332,1.081,5.938,5.938,0,0,0-.115,1.124,5.782,5.782,0,0,0,1.7,4.077,5.094,5.094,0,0,0,.864.7A5.356,5.356,0,0,0,367.19,106.513Z" style="fill:#333"/><path d="M334.3,126.921l-.353.328a15.786,15.786,0,0,0-3.8,17.406,16.079,16.079,0,0,0,15,10.212h31.122a5.763,5.763,0,0,0,5.539-7.351c-.2-.7-5.1-17.283-19.743-24.316A24.917,24.917,0,0,0,334.3,126.921Zm32.977,16.42H345.142a4.55,4.55,0,0,1-4.291-2.947,4.21,4.21,0,0,1,1.018-4.778l.176-.163a12.846,12.846,0,0,1,8.73-3.324,14.552,14.552,0,0,1,6.294,1.459A25.329,25.329,0,0,1,367.273,143.341Z" style="fill:#333"/></svg>
