<?xml version="1.0"?>
<svg xmlns="http://www.w3.org/2000/svg" id="icon" viewBox="0 0 512 512" width="512" height="512"><title>cat</title><path d="M399.852,98.994c-10.784,9.085-21.04,23.672-20.136,46.048a69.958,69.958,0,0,0,7.642,28.442A104.719,104.719,0,0,0,399.167,192a57.526,57.526,0,0,1-7.253,79.253,118.2,118.2,0,0,1-20.567,14l27.1,32.75s87.9-53.328,47.531-121.521c-1.183-2-2.485-3.924-3.8-5.839-4.726-6.887-22.707-35.835-6.956-56.868a24.354,24.354,0,0,0,1.107-28.1l-.969-1.465A24.052,24.052,0,0,0,399.852,98.994Z" style="fill:#ffbf8f"/><path d="M427.533,294.125a103.336,103.336,0,0,0-32.515-25.78c-.995,1-2.021,1.976-3.1,2.911a118.165,118.165,0,0,1-20.567,14l27.1,32.75A162.806,162.806,0,0,0,427.533,294.125Z" style="fill:#e89a64"/><path d="M313.762,41.125a14.1,14.1,0,0,1,16.955,9.095c5.238,15.269,11.23,44.906-2.018,81.811,0,0-6.516,20.479-21.409,32.114l-71.209-47.007S264.441,54.425,313.762,41.125Z" style="fill:#ffbf8f"/><path d="M113.711,34.175a14.1,14.1,0,0,0-16.955,9.094c-5.238,15.269-11.23,44.906,2.018,81.812,0,0,6.516,20.478,21.409,32.113l71.209-47.007S163.031,47.474,113.711,34.175Z" style="fill:#ffbf8f"/><path d="M147.911,108.186a51.364,51.364,0,0,0-26.845-43.294C107.2,57.27,97.424,63.1,91.147,70.687a129.319,129.319,0,0,0,7.627,54.394s6.041,18.971,19.777,30.769l19.667-17.375Z" style="fill:#e89a64"/><path d="M336.4,78.685c-6.273-7.635-16.073-13.543-29.994-5.889a51.361,51.361,0,0,0-26.846,43.293l9.693,30.29,19.116,16.887C322.5,151.51,328.7,132.031,328.7,132.031A129.529,129.529,0,0,0,336.4,78.685Z" style="fill:#e89a64"/><path d="M254.488,282.562s83.66-55.581,148.018,23.1c14.723,18,22.613,39.6,21.163,61.545-.965,14.591-2.238,26.534-15.872,42.165,0,0,14.308,3.9,18.761,18.863,3.222,10.824-3.845,22.488-15.139,22.488H340.666Z" style="fill:#ffbf8f"/><path d="M366.588,400.509a110.984,110.984,0,0,1-16.378-33.268,191.721,191.721,0,0,0-61.5-92.612l-162.1,7.22S107.783,349.585,68.5,397.018a47.951,47.951,0,0,0-11.221,30.553v3.163c0,26.271,21.511,47.569,48.048,47.569H206.621a18.252,18.252,0,0,0,15.444-8.1,17.779,17.779,0,0,0,2.8-8.465c.031-.466.045-.944.047-1.431l0-.071c0,.024,0,.047,0,.071-.018.71.062,7.167,8.294,13.888a18.542,18.542,0,0,0,11.73,4.11h81.214a49.487,49.487,0,0,0,49.607-46.252A48.841,48.841,0,0,0,366.588,400.509Z" style="fill:#ffbf8f"/><path d="M301.779,286.43c-4.047-4.011-8.391-7.96-13.071-11.8h0l-87.615,3.9-61.995,2.76-8.681,21.945s9.052,26.09,41.624,31.2c0,0,22.084,21.738,73.818,10.011a82.836,82.836,0,0,0,40.988-22.327C295.738,313.07,303.381,300.869,301.779,286.43Z" style="fill:#e89a64"/><path d="M171.307,105.5c-34.306,11.516-76.929,40.8-78.9,115.17,0,0-19.221,104.053,127.912,102.065,0,0,101.4.686,102.728-112.326,0,0,1.4-69.554-63.237-99.913A119.3,119.3,0,0,0,171.307,105.5Z" style="fill:#ffbf8f"/><path d="M435.365,104.213a24.026,24.026,0,0,0-35.4-5.31q-.284.238-.567.481c-16.489,14.154-10.749,41.253,10.055,47.535a62.45,62.45,0,0,0,18.084,2.658c.531,0,1.056-.027,1.585-.04a31.43,31.43,0,0,1,6.154-15.817,24.279,24.279,0,0,0,1.062-28.042Z" style="fill:#e89a64"/><path d="M172.041,352.144s9.071,50.075,58,29.51c0,0,23.046,16.659,40.724-5.636,0,0-2.915,27.726-36.608,24.06a14.2,14.2,0,0,0-6.377.754c-9.694,3.512-40.081,12.055-55.742-11.892C159.276,369.422,172.041,352.144,172.041,352.144Z" style="fill:#e89a64"/><path d="M261.009,281.4A57.775,57.775,0,1,0,154.8,312.892c17.142,5.735,38.933,9.117,66.617,8.743a109.406,109.406,0,0,0,26.943-4.178A57.517,57.517,0,0,0,261.009,281.4Z" style="fill:#fff"/><path d="M213.222,211.023H191.05c-6.583,0-10.047,8.73-5.629,14.189l7.057,8.694a12.157,12.157,0,0,0,19.351-.016l7.023-8.678C223.27,219.753,219.806,211.023,213.222,211.023Z" style="fill:#333"/><path d="M446.934,187.386c-3.565-5.2-20.664-32.032-7.093-50.152a30.26,30.26,0,0,0,1.3-34.738l-.969-1.463a29.813,29.813,0,0,0-44.031-6.446c-15.33,12.913-23,30.44-22.182,50.688a75.294,75.294,0,0,0,8.249,30.792,109.879,109.879,0,0,0,12.466,19.544c17.167,21.384,14.241,53.361-6.526,71.283a101.984,101.984,0,0,1-10.769,8.032,103.438,103.438,0,0,0-36.587-15.138,5.762,5.762,0,1,0-2.265,11.3c22.428,4.5,42.453,17.355,59.519,38.219,14.126,17.268,21.183,37.695,19.873,57.516-.986,14.927-2.451,24.984-14.465,38.758a5.764,5.764,0,0,0,2.827,9.348c.113.03,11.256,3.2,14.753,14.946a12.618,12.618,0,0,1-1.847,11.112,9.57,9.57,0,0,1-7.768,3.969H401.107a5.763,5.763,0,0,0,0,11.526h10.311a21.068,21.068,0,0,0,17.009-8.605,24.2,24.2,0,0,0,3.654-21.291,33.543,33.543,0,0,0-15.191-19.35c10.03-13.722,11.583-25.342,12.529-39.654,1.5-22.747-6.471-46.034-22.454-65.572a139.327,139.327,0,0,0-19.728-19.85c3.01-2.121,5.85-4.3,8.442-6.541,25.408-21.928,28.988-61.056,7.981-87.223A98.436,98.436,0,0,1,392.51,170.9a63.84,63.84,0,0,1-7.035-26.091c-.679-16.793,5.407-30.725,18.091-41.408a17.873,17.873,0,0,1,14.278-4.064,18.4,18.4,0,0,1,12.714,8.056l.97,1.463a18.711,18.711,0,0,1-.912,21.469c-17.827,23.8.709,54.684,6.815,63.583,1.2,1.753,2.472,3.623,3.591,5.514,22.023,37.2,2.465,69.959-17.819,90.893a5.762,5.762,0,1,0,8.275,8.019c23.08-23.815,45.19-61.327,19.461-104.785C449.639,191.354,448.248,189.3,446.934,187.386Z" style="fill:#333"/><path d="M225.7,475.021a35.727,35.727,0,0,0,3.853,3.636,24.342,24.342,0,0,0,15.374,5.408h81.215c29.9,0,54.222-22.747,55.366-51.787.81-20.614-16.29-31.392-25.445-34.211a5.763,5.763,0,0,0-3.414,11.008c.734.233,18,5.916,17.342,22.75-.884,22.449-20.554,40.714-43.849,40.714H244.931a12.781,12.781,0,0,1-8.084-2.811c-5.791-4.727-6.154-8.8-6.175-9.369,0-.043,0-.085,0-.125,0-25.293-13.708-38.38-25.207-44.9a58.291,58.291,0,0,0-28.745-7.352h-50.8a5.763,5.763,0,1,0,0,11.526h50.8a46.755,46.755,0,0,1,23.058,5.85c12.836,7.285,19.352,19,19.367,34.827v.057c0,.023,0,.048,0,.069v.006c0,.034,0,.063,0,.1,0,.319-.013.633-.034.945a11.967,11.967,0,0,1-1.9,5.732,12.553,12.553,0,0,1-10.592,5.449H105.328c-23.316,0-42.284-18.753-42.284-41.8V427.57a42.341,42.341,0,0,1,9.9-26.876c20.907-25.247,35.985-56.088,44.952-77.516a5.762,5.762,0,0,0-10.631-4.449c-8.667,20.706-23.2,50.459-43.2,74.613A53.9,53.9,0,0,0,51.518,427.57v3.165c0,29.406,24.139,53.33,53.81,53.33H206.621A24.007,24.007,0,0,0,225.7,475.021Z" style="fill:#333"/><path d="M114.8,281.573c-.109-.134-11-13.525-14.9-28.606a5.763,5.763,0,0,0-11.16,2.884c4.53,17.517,16.637,32.408,17.117,32.992,14.148,17.567,35.12,28.027,62.363,31.113,4.7,6.13,14.3,13.936,27.5,13.936a35.378,35.378,0,0,0,7.661-.857,5.762,5.762,0,0,0-2.488-11.253c-15.819,3.488-24.163-9.716-24.5-10.251a5.764,5.764,0,0,0-4.4-2.772C146.653,306.375,127.423,297.241,114.8,281.573Z" style="fill:#333"/><path d="M253.272,316.88a5.756,5.756,0,0,0,7.463,3.274c16.989-6.631,31.143-16.6,42.072-29.62a82.36,82.36,0,0,0,19-34.651,5.763,5.763,0,1,0-11.143-2.949,71.353,71.353,0,0,1-16.158,29.6q-.2.2-.383.417c-9.693,11.61-22.334,20.512-37.575,26.46A5.763,5.763,0,0,0,253.272,316.88Z" style="fill:#333"/><path d="M222.9,311.957A5.763,5.763,0,0,0,212.539,317c.319.66,8.013,16.171,26.805,16.171a5.763,5.763,0,1,0,0-11.525A18.783,18.783,0,0,1,222.9,311.957Z" style="fill:#333"/><path d="M213.223,205.26H191.051a13.205,13.205,0,0,0-11.893,7.759,14.991,14.991,0,0,0,1.789,15.826l7.058,8.692a18.736,18.736,0,0,0,8.368,5.932V255.8l-9.025,8.892a5.763,5.763,0,0,0,8.09,8.211l7.083-6.979,9.137,7.361a5.763,5.763,0,1,0,7.232-8.976L207.9,255.454V243.475a18.743,18.743,0,0,0,8.411-5.959l7.022-8.678a14.991,14.991,0,0,0,1.782-15.82A13.2,13.2,0,0,0,213.223,205.26Zm1.149,16.326-7.022,8.678a6.689,6.689,0,0,1-5.2,2.668h0a6.686,6.686,0,0,1-5.194-2.659l-7.052-8.687a3.431,3.431,0,0,1-.34-3.6,1.785,1.785,0,0,1,1.49-1.2h22.172a1.788,1.788,0,0,1,1.49,1.2A3.435,3.435,0,0,1,214.372,221.586Z" style="fill:#333"/><path d="M157.792,189.094a6.129,6.129,0,0,0,1.08.318,4.99,4.99,0,0,0,1.124.115,5.745,5.745,0,0,0,4.076-9.826,5.823,5.823,0,0,0-1.872-1.253,5.544,5.544,0,0,0-1.081-.331,5.7,5.7,0,0,0-3.327.331,5.428,5.428,0,0,0-1,.533,5.058,5.058,0,0,0-.864.72,4.572,4.572,0,0,0-.72.864,5.428,5.428,0,0,0-.533,1,5.74,5.74,0,0,0-.446,2.2,5.762,5.762,0,0,0,1.7,4.077,6.973,6.973,0,0,0,.864.72A6.606,6.606,0,0,0,157.792,189.094Z" style="fill:#333"/><path d="M232.838,186.963a6.349,6.349,0,0,0,.721.879,7.049,7.049,0,0,0,.879.72,6.538,6.538,0,0,0,.993.532,5.533,5.533,0,0,0,1.081.318,4.99,4.99,0,0,0,1.124.115,5.761,5.761,0,1,0-1.124-11.41,5.565,5.565,0,0,0-1.081.331,5.38,5.38,0,0,0-.993.533,5.774,5.774,0,0,0-.879.706,5.717,5.717,0,0,0-1.57,5.2,5.48,5.48,0,0,0,.33,1.081A6.05,6.05,0,0,0,232.838,186.963Z" style="fill:#333"/><path d="M56.091,203.987c.406-.055,40.752-5.469,66.285,14.459a5.763,5.763,0,1,0,7.091-9.086A79.817,79.817,0,0,0,100.7,195.582c9.6-52.924,44.488-75.236,72.444-84.62a112.782,112.782,0,0,1,84.222,4.747,106.249,106.249,0,0,1,19.257,11.619,5.753,5.753,0,0,0,2.618,2.047c25.045,20.415,33.716,47.875,36.675,66.084a80.08,80.08,0,0,0-29.223,13.9,5.763,5.763,0,1,0,7.091,9.086c25.527-19.924,65.865-14.514,66.285-14.459a5.763,5.763,0,0,0,1.624-11.411,129.826,129.826,0,0,0-34.487.574c-2.992-17.622-12.259-49.3-40.8-72.706-6.678-29.4,21.176-42.788,22.42-43.368a5.763,5.763,0,0,0-4.817-10.471c-11.558,5.3-30.142,20.716-30.177,44.923a118.9,118.9,0,0,0-11.565-6.25q-5.187-2.437-10.53-4.362c11.793-18.513,33.773-46.2,63.53-54.226a8.342,8.342,0,0,1,10,5.4c4.746,13.834,10.8,42.364-1.99,77.994-.023.06-.045.129-.065.191s-.165.5-.442,1.258a5.763,5.763,0,1,0,10.817,3.979c.306-.832.494-1.392.568-1.618,13.939-38.9,7.247-70.291,2.014-85.544a19.9,19.9,0,0,0-23.906-12.789c-34.933,9.42-59.643,41.9-71.922,61.827a123.874,123.874,0,0,0-50.45-2.339c-12.269-21.14-37.657-56.456-74.678-66.438A19.9,19.9,0,0,0,91.305,41.4c-5.232,15.251-11.924,46.639,2.013,85.538.076.233.265.8.573,1.631a5.762,5.762,0,0,0,10.811-3.993c-.272-.738-.415-1.178-.432-1.231-.022-.071-.046-.141-.072-.211-12.79-35.63-6.738-64.159-1.992-77.995a8.337,8.337,0,0,1,10-5.4c31.981,8.624,55.166,40.434,65.753,57.807-2.845.74-5.679,1.546-8.49,2.49a137.155,137.155,0,0,0-15.871,6.443c.968-25.3-18.278-41.388-30.135-46.824a5.762,5.762,0,0,0-4.819,10.469c1.217.567,29.049,13.931,22.443,43.282-22.792,14.409-44.17,38.744-51.681,79.813a129.833,129.833,0,0,0-34.944-.643,5.763,5.763,0,0,0,1.624,11.411Z" style="fill:#333"/><path d="M127.535,231.072c-38.879-11.342-62.6-1.99-73.278,4.594a5.763,5.763,0,1,0,6.047,9.812c9.053-5.58,29.4-13.433,64-3.342a5.763,5.763,0,1,0,3.227-11.064Z" style="fill:#333"/><path d="M358.871,246.336a5.764,5.764,0,0,0,3.03-10.67c-10.679-6.585-34.4-15.936-73.278-4.594a5.763,5.763,0,1,0,3.227,11.064c34.6-10.092,54.953-2.238,64,3.342A5.731,5.731,0,0,0,358.871,246.336Z" style="fill:#333"/><path d="M262.092,407.977c-1.645-.012-18,.19-27.6,15.2a5.763,5.763,0,1,0,9.708,6.213c6.2-9.694,16.836-9.89,17.667-9.89.1,0,.13,0,.189,0h40.139a5.763,5.763,0,0,0,0-11.526Z" style="fill:#333"/><path d="M172.292,347.508a5.769,5.769,0,0,0-6,5.511c-.015.341-.985,34.178,40.006,41.592a5.866,5.866,0,0,0,1.032.093,5.764,5.764,0,0,0,1.019-11.436c-30.808-5.572-30.569-28.714-30.541-29.79A5.762,5.762,0,0,0,172.292,347.508Z" style="fill:#333"/><path d="M220.419,365.064a5.763,5.763,0,0,0-11.264,2.442c.155.74,4.082,18.212,31.809,24.7a5.762,5.762,0,0,0,2.625-11.222C223.675,376.324,220.59,365.71,220.419,365.064Z" style="fill:#333"/><path d="M248.415,364.922a5.761,5.761,0,0,0-.9,8.1c.326.408,7.243,8.824,21.357,8.824a38.874,38.874,0,0,0,6.578-.578,5.763,5.763,0,0,0-1.948-11.36c-11.469,1.967-16.718-3.785-17.042-4.155A5.762,5.762,0,0,0,248.415,364.922Z" style="fill:#333"/><path d="M333.234,368.859a5.732,5.732,0,0,0-4.114,6.948,5.8,5.8,0,0,0,6.942,4.225c.547-.132,13.539-2.954,24.5,12.6a5.763,5.763,0,1,0,9.418-6.643C354.276,363.708,334.087,368.636,333.234,368.859Z" style="fill:#333"/><path d="M330.274,337.62a5.763,5.763,0,1,0-.521,11.514,23.174,23.174,0,0,1,16.685,11.038,5.763,5.763,0,0,0,9.759-6.131A34.451,34.451,0,0,0,330.274,337.62Z" style="fill:#333"/></svg>
