<?xml version="1.0"?>
<svg xmlns="http://www.w3.org/2000/svg" id="icon" viewBox="0 0 512 512" width="512" height="512"><title>rabbit</title><path d="M353.774,401.911h46.1a0,0,0,0,1,0,0v61.658a17,17,0,0,1-17,17H353.774a0,0,0,0,1,0,0V401.911A0,0,0,0,1,353.774,401.911Z" style="fill:#e6e6e6"/><circle cx="119.354" cy="386.477" r="36.299" style="fill:#e6e6e6"/><path d="M412.2,286.14l-139.25-56.049S155.8,262.381,124.478,373.71c0,0-9.448,33.694-2.685,63.752a55.4,55.4,0,0,0,54.1,43.1H286.517a85.245,85.245,0,0,0,24.813-3.646c4.276-1.3,9.352-2.988,14.95-5.12h0a8.766,8.766,0,0,0,8.766,8.766h17.259a12.948,12.948,0,0,0,12.948-12.947V452.343C407.293,425.313,447.2,375.069,412.2,286.14Z" style="fill:#fff"/><path d="M235.826,245.362c2.233,24.074,14.982,76.014,82.9,84.663,53.9,6.864,82.828-15.142,97.256-33.546-1.152-3.389-2.4-6.831-3.784-10.339l-139.25-56.049S257.253,234.424,235.826,245.362Z" style="fill:#e6e6e6"/><path d="M226.98,42.549c25.188,14.039,67.955,44.4,85.717,95.711,0,0,14.888-6.243,24.012-7.2,0,0-23.791-43.2-22.583-87.173a12.7,12.7,0,0,1,21.289-9.063c21.058,19.434,54.595,58.428,66.126,117.367,0,0,38.5,24.062,28.644,98.493a79.352,79.352,0,0,1-14.307,36.542c-11.191,15.29-31.3,31.044-65.752,27.009,0,0-92.839-9.742-92.614-113.675,0,0-64.372-75.6-55.481-145.46A16.874,16.874,0,0,1,226.98,42.549Z" style="fill:#fff"/><path d="M401.541,152.186a215.32,215.32,0,0,0-48.459-99.032c-4.595,7.549-8.947,21.133.6,39.839C368.941,122.887,401.541,152.186,401.541,152.186Z" style="fill:#e6e6e6"/><path d="M269.54,121.025s-12.031-26.829-31.926-47.2a18.644,18.644,0,0,0-30.374,5.362,62.95,62.95,0,0,0-3.9,12.546c10.3,57.288,54.173,108.824,54.173,108.824S293.775,173.407,269.54,121.025Z" style="fill:#e6e6e6"/><path d="M388.946,247.377h7.278a7.243,7.243,0,0,1,5.982,11.326l-3.639,5.332a7.242,7.242,0,0,1-11.964,0l-3.639-5.332A7.243,7.243,0,0,1,388.946,247.377Z" style="fill:#333"/><path d="M425.317,354.755s.062,26.24-29.826,15.8c0,0-11.4,8.539-26.164,0,0,0-3.335,6-12.341,9.1a3.161,3.161,0,0,0,.134,6.017,54.833,54.833,0,0,0,28.7.915c3.608-.843,7.3-.515,10.979-.111a49.872,49.872,0,0,0,23.953-2.975,114.388,114.388,0,0,0,4.745-28.772Z" style="fill:#e6e6e6"/><path d="M180.641,459.9a23.681,23.681,0,0,1-9.893-2.1c-36.9-16.966-24.533-64.847-24.533-64.847,23.089-95.11,99.859-123.958,99.859-123.958l-3.63-26.9c-36.955,17.581-96.887,56.7-117.966,131.615,0,0-9.448,33.694-2.685,63.752a55.4,55.4,0,0,0,54.1,43.1h28.695A24.216,24.216,0,0,0,180.641,459.9Z" style="fill:#e6e6e6"/><path d="M419.317,306.853a5.761,5.761,0,0,0-4.189,6.99,146.5,146.5,0,0,1,4.682,38.425c-.054.781-.884,10.749-7.783,15.79a5.763,5.763,0,0,0,6.8,9.306c11.676-8.534,12.471-23.969,12.5-24.747a157.861,157.861,0,0,0-5.023-41.574A5.764,5.764,0,0,0,419.317,306.853Z" style="fill:#333"/><path d="M419.72,387.226a5.766,5.766,0,0,0-7.5,3.194c-7.828,19.441-21.669,36.545-41.207,50.96v-26.7a5.763,5.763,0,1,0-11.525,0v52.938a7.193,7.193,0,0,1-7.184,7.184h-17.26a3.006,3.006,0,0,1-3-3V454.938a5.763,5.763,0,0,0-11.526,0v12.818c-3.618,1.306-7.253,2.551-10.864,3.649a78.64,78.64,0,0,1-16.979,3.162l.1-1.534a28.846,28.846,0,0,0-28.789-30.681H254.74c8.547-24.527-.72-43.452-10.664-55.435A91.051,91.051,0,0,0,217.3,365.386a5.762,5.762,0,0,0-5.107,10.331c2.019,1,48.085,24.522,30.176,66.635H230.877a5.763,5.763,0,0,0,0,11.526h33.105A17.323,17.323,0,0,1,281.27,472.3l-.16,2.5H175.893A49.328,49.328,0,0,1,127.416,436.2c-6.352-28.228,2.521-60.61,2.609-60.926,19.075-67.788,70.423-105.744,110.141-125.65a5.763,5.763,0,0,0-5.165-10.3c-36.3,18.191-81.83,50.8-106.428,106.119a42.245,42.245,0,0,0-9.219-1.022c-21.607,0-44.928,15.524-44.928,40.606a5.763,5.763,0,1,0,11.525,0c0-18.974,19.4-29.08,33.4-29.08a30.848,30.848,0,0,1,4.781.378c-1.911,5.106-3.668,10.368-5.206,15.836-.4,1.433-9.761,35.452-2.758,66.572a60.792,60.792,0,0,0,59.722,47.6H286.524a90.943,90.943,0,0,0,26.484-3.894c3.186-.971,6.394-2.023,9.59-3.149a14.534,14.534,0,0,0,12.448,7.043h17.26a18.73,18.73,0,0,0,18.709-18.709v-12.16a161.526,161.526,0,0,0,23.1-18.569v26.68A11.247,11.247,0,0,1,382.88,474.8h-.143a5.7,5.7,0,0,0-5.691,5.763,5.824,5.824,0,0,0,5.834,5.762,22.786,22.786,0,0,0,22.76-22.758v-39.1c0-.082-.021-.159-.025-.241a118.192,118.192,0,0,0,17.3-29.506A5.763,5.763,0,0,0,419.72,387.226Z" style="fill:#333"/><path d="M201.962,83.354a5.763,5.763,0,0,0-4.776,6.6c8.709,54.208,46.7,103.047,54.571,112.686.178,18.146,3.168,34.669,8.907,49.232l-3.97,2.108a5.763,5.763,0,1,0,5.4,10.181l8.63-4.58a5.764,5.764,0,0,0,2.55-7.464c-6.679-14.773-10.043-32.118-10-51.553a5.758,5.758,0,0,0-1.375-3.748c-.442-.521-44.319-52.578-53.335-108.691A5.768,5.768,0,0,0,201.962,83.354Z" style="fill:#333"/><path d="M201.288,61.308a5.819,5.819,0,0,0-5.85,5.674l-.011,1.174a5.763,5.763,0,0,0,5.741,5.785h.022a5.763,5.763,0,0,0,5.762-5.74l.01-1.041A5.763,5.763,0,0,0,201.288,61.308Z" style="fill:#333"/><path d="M406.745,148.833C394.306,88.666,359.266,48.99,339.324,30.585a18.467,18.467,0,0,0-30.959,13.14c-.961,34.986,13.036,68.918,19.793,83.158-4.346,1.138-8.754,2.648-12.085,3.876-19.6-50.079-62.126-79.777-86.288-93.244a22.664,22.664,0,0,0-28.595,5.462,5.763,5.763,0,1,0,8.921,7.3,11.155,11.155,0,0,1,14.063-2.693c22.862,12.741,63.132,40.82,81.344,87.84a39.277,39.277,0,0,0-8.549,6.82,5.762,5.762,0,1,0,8.409,7.881,28.459,28.459,0,0,1,9.35-6.471c.033-.013.061-.034.094-.047s.069-.017.1-.031c3.93-1.646,15.612-6.074,22.389-6.788.062-.007.123-.023.185-.032.032,0,.064,0,.1,0a53.236,53.236,0,0,1,17.239.65,5.763,5.763,0,0,0,2.586-11.233,62.1,62.1,0,0,0-17.374-1.229c-5.31-10.735-21.122-45.8-20.158-80.9a6.849,6.849,0,0,1,4.278-6.272,6.724,6.724,0,0,1,7.342,1.284c17.683,16.322,47.862,50.274,61.358,101.188-2.12-1.1-4.448-2.23-6.952-3.312a5.764,5.764,0,0,0-4.569,10.583,97.372,97.372,0,0,1,16.8,9.325c.07.051.146.086.217.134.046.031.083.072.131.1.354.221,35.247,22.906,25.985,92.851a73.793,73.793,0,0,1-13.244,33.894c-14.211,19.413-34.544,27.72-60.5,24.681A108.71,108.71,0,0,1,309.76,293.39a5.762,5.762,0,1,0-6.068,9.8,119.3,119.3,0,0,0,45.763,16.766,97.517,97.517,0,0,0,11.366.683c30.844,0,49.343-15.852,59.707-30.012a85.341,85.341,0,0,0,15.37-39.188C444.881,183.594,415.232,155.4,406.745,148.833Z" style="fill:#333"/><path d="M241.737,69.8a24.3,24.3,0,0,0-8.813-5.8,5.763,5.763,0,0,0-4.094,10.774,12.857,12.857,0,0,1,4.66,3.077c18.908,19.361,30.677,45.274,30.82,45.594,6.161,13.316,8.7,26.029,7.539,37.786a5.762,5.762,0,0,0,5.169,6.3,5.53,5.53,0,0,0,.572.028,5.764,5.764,0,0,0,5.728-5.2c1.364-13.829-1.512-28.55-8.519-43.695C274.29,117.533,262.114,90.664,241.737,69.8Z" style="fill:#333"/><path d="M378.573,119.5c-8.568-10.428-15.215-20.227-19.757-29.126a48.435,48.435,0,0,1-4.166-11.188,5.763,5.763,0,0,0-11.239,2.555,59.878,59.878,0,0,0,5.139,13.872c4.919,9.638,12.024,20.135,21.119,31.2a5.762,5.762,0,1,0,8.9-7.317Z" style="fill:#333"/><path d="M276.151,184.462a5.145,5.145,0,0,0,.865-.7,5.25,5.25,0,0,0,.72-.88,5.824,5.824,0,0,0,.865-2.075,6,6,0,0,0,.1-1.123,5.912,5.912,0,0,0-.1-1.124,5.537,5.537,0,0,0-.332-1.08,5.085,5.085,0,0,0-.533-1,5.158,5.158,0,0,0-.72-.878,5.966,5.966,0,0,0-.865-.72,6.426,6.426,0,0,0-.994-.534,5.847,5.847,0,0,0-1.08-.316,5.423,5.423,0,0,0-2.262,0,5.765,5.765,0,0,0-1.067.316,5.389,5.389,0,0,0-.994.534,6.137,6.137,0,0,0-.878.72,5.764,5.764,0,0,0-1.686,4.077,5.923,5.923,0,0,0,.1,1.123,7.245,7.245,0,0,0,.331,1.081,6.507,6.507,0,0,0,.533.994,6.049,6.049,0,0,0,.721.88,5.284,5.284,0,0,0,.878.7,4.666,4.666,0,0,0,.994.534,5.672,5.672,0,0,0,1.067.332,6.178,6.178,0,0,0,1.138.115,6.046,6.046,0,0,0,1.124-.115,6.11,6.11,0,0,0,1.08-.332A5.421,5.421,0,0,0,276.151,184.462Z" style="fill:#333"/><path d="M274.869,266.6l-8.344,5.124a5.762,5.762,0,1,0,6.031,9.82l8.345-5.124a5.762,5.762,0,1,0-6.032-9.82Z" style="fill:#333"/><path d="M278.347,297.232a5.761,5.761,0,0,0,8.142.353l7.853-7.2a5.762,5.762,0,1,0-7.787-8.5l-7.853,7.2A5.762,5.762,0,0,0,278.347,297.232Z" style="fill:#333"/><path d="M345.68,219.242a5.164,5.164,0,0,0,.721.878,5.753,5.753,0,0,0,8.14,0,5.206,5.206,0,0,0,.72-.878,5.477,5.477,0,0,0,.533-.994,5.568,5.568,0,0,0,.332-1.081,5.546,5.546,0,0,0,0-2.247,5.844,5.844,0,0,0-.865-2.075,5.206,5.206,0,0,0-.72-.878,6.742,6.742,0,0,0-.865-.72,6.463,6.463,0,0,0-2.074-.852,5.491,5.491,0,0,0-2.262,0,5.956,5.956,0,0,0-1.067.332,5.344,5.344,0,0,0-.994.52,6.071,6.071,0,0,0-.878.72,5.164,5.164,0,0,0-.721.878,5.818,5.818,0,0,0-.864,2.075,5.5,5.5,0,0,0,0,2.247,5.565,5.565,0,0,0,.331,1.081A5.477,5.477,0,0,0,345.68,219.242Z" style="fill:#333"/><path d="M392.432,219.242a5.757,5.757,0,0,0,9.58,0,6.6,6.6,0,0,0,.534-.994,6.838,6.838,0,0,0,.331-1.081,6.3,6.3,0,0,0,0-2.247,6.8,6.8,0,0,0-.331-1.08,6.66,6.66,0,0,0-.534-1,5.859,5.859,0,0,0-.72-.878,6.026,6.026,0,0,0-.879-.72,5.822,5.822,0,0,0-.994-.52,5.738,5.738,0,0,0-1.081-.332,5.419,5.419,0,0,0-2.247,0,6.071,6.071,0,0,0-1.081.332,6.44,6.44,0,0,0-.994.52,7.017,7.017,0,0,0-.879.72,5.821,5.821,0,0,0-.7.878,5.844,5.844,0,0,0-.865,2.075,5.546,5.546,0,0,0,0,2.247,5.5,5.5,0,0,0,.332,1.081A5.416,5.416,0,0,0,392.432,219.242Z" style="fill:#333"/><path d="M377.446,248.546a12.975,12.975,0,0,0,.758,13.406l3.639,5.332a12.984,12.984,0,0,0,4.979,4.31v7.923a5.763,5.763,0,1,0,11.526,0v-7.923a12.984,12.984,0,0,0,4.979-4.31l3.639-5.332a13.006,13.006,0,0,0-10.742-20.338h-7.278A12.973,12.973,0,0,0,377.446,248.546Zm20.087,5.383a1.406,1.406,0,0,1-.087,1.525l-3.639,5.333a1.48,1.48,0,0,1-2.444,0l-3.639-5.333a1.479,1.479,0,0,1,1.222-2.314h7.278A1.406,1.406,0,0,1,397.533,253.929Z" style="fill:#333"/><path d="M99.009,398.233a5.763,5.763,0,0,0-4.544-10.593c-.591.249-14.494,6.323-15.027,24.665a5.764,5.764,0,0,0,5.593,5.928l.17,0a5.762,5.762,0,0,0,5.758-5.6C91.268,401.987,98.57,398.435,99.009,398.233Z" style="fill:#333"/><path d="M99.93,404.065c-.415.491-10.072,12.192-2.256,28.8A5.763,5.763,0,1,0,108.1,427.95c-4.541-9.646.373-16.115.669-16.49a5.763,5.763,0,0,0-8.841-7.395Z" style="fill:#333"/><path d="M391.312,379.5a5.745,5.745,0,0,0,2.67-.66c13.048-6.838,12.8-22.967,12.789-23.651a5.763,5.763,0,1,0-11.523.282c0,.1.048,9.668-6.616,13.16a5.764,5.764,0,0,0,2.68,10.869Z" style="fill:#333"/><path d="M365.71,378.925a5.734,5.734,0,0,0,2.671-.66c13.047-6.84,12.8-22.968,12.788-23.65a5.763,5.763,0,0,0-11.523.281c0,.1.048,9.667-6.617,13.161a5.764,5.764,0,0,0,2.681,10.868Z" style="fill:#333"/></svg>
