<?xml version="1.0" encoding="utf-8"?>
<!-- Generator: Adobe Illustrator 19.2.1, SVG Export Plug-In . SVG Version: 6.00 Build 0)  -->
<svg version="1.1" id="Capa_1" xmlns="http://www.w3.org/2000/svg" xmlns:xlink="http://www.w3.org/1999/xlink" x="0px" y="0px"
	 width="512px" height="512px" viewBox="0 0 512 512" style="enable-background:new 0 0 512 512;" xml:space="preserve">
<style type="text/css">
	.st0{fill:#A8EEFC;}
	.st1{fill:#7EE5F2;}
	.st2{fill:#FECE00;}
	.st3{fill:#FFBB24;}
	.st4{fill:#4CE166;}
	.st5{fill:#44C868;}
	.st6{fill:#E3E0FC;}
	.st7{fill:#C7C7E2;}
</style>
<polygon class="st0" points="504.5,504.5 7.5,504.5 81.3,325.8 430.7,325.8 "/>
<polygon class="st1" points="430.7,325.8 403.8,325.8 477.6,504.5 504.5,504.5 "/>
<polygon class="st2" points="471.9,425.5 455.5,385.8 261.2,385.8 192.6,325.8 164.8,325.8 148.4,325.8 123.6,385.8 56.5,385.8 
	40.1,425.5 107.2,425.5 74.6,504.5 118.8,504.5 173.8,371.4 330.2,504.5 396.9,504.5 306.6,425.5 "/>
<polygon class="st3" points="445,425.5 471.9,425.5 455.5,385.8 428.6,385.8 "/>
<g>
	<polygon class="st4" points="123.6,385.8 56.5,385.8 81.3,325.8 148.4,325.8 	"/>
	<polygon class="st4" points="455.5,385.8 261.2,385.8 192.6,325.8 430.7,325.8 	"/>
</g>
<polygon class="st5" points="455.5,385.8 430.7,325.8 403.8,325.8 428.6,385.8 "/>
<polygon class="st4" points="173.8,371.4 118.8,504.5 330.2,504.5 "/>
<path class="st6" d="M256,7.5c-85.1,0-154,69.5-154,155.2c0,130.5,154,250.6,154,250.6s154-120.1,154-250.6
	C410,77,341.1,7.5,256,7.5z M256,224.6c-33.9,0-61.4-27.7-61.4-61.9c0-34.2,27.5-61.9,61.4-61.9s61.4,27.7,61.4,61.9
	S289.9,224.6,256,224.6z"/>
<path class="st7" d="M256,7.5c-4.5,0-9,0.2-13.5,0.6c78.8,6.9,140.6,73.5,140.6,154.6c0,106.8-103.1,206.6-140.6,239.3
	c8.3,7.3,13.5,11.3,13.5,11.3s154-120.1,154-250.6C410,77,341.1,7.5,256,7.5z"/>
<path d="M256,232.2c38,0,68.9-31.1,68.9-69.4c0-38.3-30.9-69.4-68.9-69.4c-14,0-27.5,4.2-39,12.2c-3.4,2.4-4.3,7.1-1.9,10.5
	c2.3,3.4,7,4.3,10.4,1.9c9-6.2,19.6-9.5,30.5-9.5c29.8,0,54,24.4,54,54.4s-24.2,54.4-54,54.4s-54-24.4-54-54.4
	c0-8.8,2-17.3,6.1-25.1c1.9-3.7,0.5-8.2-3.2-10.2c-3.7-1.9-8.2-0.5-10.1,3.2c-5.1,9.8-7.7,20.9-7.7,32
	C187.1,201,218,232.2,256,232.2z"/>
<path d="M511.4,501.6l-73.8-178.7l0,0l0,0l0,0c-1.2-2.8-3.9-4.6-6.9-4.6h-73.5c14.3-19.5,26.2-38.9,35.5-58
	c16.5-33.8,24.8-66.6,24.8-97.5C417.5,73,345.1,0,256,0S94.5,73,94.5,162.7c0,30.9,8.4,63.8,24.8,97.5c9.3,19.1,21.2,38.5,35.5,58
	l0,0H81.3c-3,0-5.7,1.8-6.9,4.6L24.1,444.7c-1.6,3.8,0.2,8.3,4,9.9c0.9,0.4,1.9,0.6,2.9,0.6c2.9,0,5.7-1.7,6.9-4.6l7.2-17.4H96
	l-26.4,63.9H18.7l7.6-18.5c1.6-3.8-0.2-8.3-4-9.9c-3.8-1.6-8.2,0.2-9.8,4.1l-12,28.9c-1,2.3-0.7,5,0.7,7.1c1.4,2.1,3.7,3.4,6.2,3.4
	l0,0h497l0,0l0,0l0,0c2.5,0,4.8-1.3,6.2-3.4C512.1,506.6,512.4,503.9,511.4,501.6z M109.4,162.7c0-81.4,65.7-147.7,146.6-147.7
	s146.6,66.2,146.6,147.7c0,34.1-11.8,88.7-66.2,158.2c-0.1,0.1-0.1,0.1-0.2,0.2c-2.8,3.5-5.7,7.1-8.7,10.8
	c-29.9,36.1-60.2,62.4-71.5,71.8c-11.2-9.3-41.4-35.5-71.3-71.5c-3.1-3.7-6-7.4-8.9-11c0-0.1-0.1-0.1-0.1-0.2
	C121.2,251.4,109.4,196.9,109.4,162.7z M86.3,333.3h50.9l-18.6,44.9H67.7L86.3,333.3z M130,496.9l46.7-113.1l133,113.1H130z
	 M332.9,496.9L178.6,365.6c-1.8-1.6-4.3-2.1-6.6-1.6c-2.3,0.6-4.2,2.2-5.1,4.4l-53.1,128.4h-28l28.3-68.5c1-2.3,0.7-5-0.7-7.1
	c-1.4-2.1-3.7-3.4-6.2-3.4H51.3l10.2-24.6h62.1c3,0,5.7-1.8,6.9-4.6l22.9-55.4h13c2.3,2.8,4.5,5.7,6.9,8.5
	c38.6,46.4,76.6,76.2,78.2,77.5c1.3,1.1,3,1.6,4.6,1.6c1.6,0,3.2-0.5,4.6-1.6c0.9-0.7,12.8-10,29.7-26h84.7c4.1,0,7.5-3.4,7.5-7.5
	s-3.3-7.5-7.5-7.5h-69.3c10.4-10.5,21.7-22.7,33.1-36.5c2.4-2.8,4.6-5.7,6.9-8.5h80.1l18.6,44.9h-39.5c-4.1,0-7.5,3.4-7.5,7.5
	s3.3,7.5,7.5,7.5h45.7l0,0l10.2,24.6H306.6c-3.1,0-5.9,2-7,4.9c-1.1,2.9-0.3,6.3,2.1,8.3l75.1,65.7L332.9,496.9L332.9,496.9z
	 M399.7,496.9l-73-63.9h140.3l26.4,63.9H399.7z"/>
</svg>
