<?xml version="1.0" encoding="utf-8"?>
<!-- Generator: Adobe Illustrator 19.2.1, SVG Export Plug-In . SVG Version: 6.00 Build 0)  -->
<svg version="1.1" id="Capa_1" xmlns="http://www.w3.org/2000/svg" xmlns:xlink="http://www.w3.org/1999/xlink" x="0px" y="0px"
	 width="512px" height="512px" viewBox="0 0 512 512" style="enable-background:new 0 0 512 512;" xml:space="preserve">
<style type="text/css">
	.st0{fill:#8BC34A;}
	.st1{fill:#2E7D32;}
	.st2{fill:#4CAF50;}
	.st3{fill:#F9BA06;}
	.st4{fill:#FECE00;}
	.st5{fill:#CFD8DC;}
	.st6{fill:#F5F5F5;}
</style>
<g transform="translate(0 -1)">
	<g transform="translate(1 2)">
		<path class="st0" d="M371.3,370.2h60.8c6.5-0.1,12.5,3.4,15.8,9l52.5,93.9c2.9,5.4,2.7,11.9-0.6,17.1c-3.3,5.2-9.1,8.2-15.2,8
			H25.5c-6.1,0.3-11.9-2.8-15.2-8c-3.3-5.2-3.5-11.7-0.6-17.1l52.5-93.9c3.2-5.6,9.3-9.1,15.8-9H371.3z"/>
		<path class="st1" d="M484.5,498.2H127c0,0,170.7-17.1,213.3-128h91.7c6.5-0.1,12.6,3.4,15.8,9l52.5,93.9
			c2.9,5.4,2.7,11.9-0.6,17.1C496.5,495.4,490.7,498.5,484.5,498.2z"/>
		<path class="st2" d="M450.4,498.2H127c0,0,170.7-17.1,213.3-128h57.6c6.5-0.1,12.6,3.4,15.8,9l52.5,93.9
			c2.9,5.4,2.7,11.9-0.6,17.1C462.3,495.4,456.5,498.5,450.4,498.2z"/>
		<path class="st3" d="M417.1,174.2c0,22.4-10.2,50.7-25.3,80.6c-16.5,31.2-35.1,61.2-55.7,89.8c-20.3,28.6-40.5,54.4-55.7,73
			c-4.6,5.7-8.8,10.7-12.3,14.9c-3.2,3.8-7.9,6-12.9,6.1c-5,0-9.7-2.1-13-5.8l-0.3-0.3c-3.5-4.3-7.7-9.2-12.3-14.9
			c-15.2-18.6-35.5-44.4-55.7-73c-20.7-28.6-39.3-58.6-55.7-89.8c-15.2-29.9-25.3-58.2-25.3-80.6C92.8,109,131.8,50,191.9,24.6
			c16-6.8,33-11,50.3-12.3c4.2-0.3,8.5-0.5,12.8-0.5c43,0,84.3,17.1,114.7,47.5C400.2,89.8,417.2,131.1,417.1,174.2z"/>
		<path class="st4" d="M391.5,174.2c0,22.4-10.2,50.7-25.3,80.6c-16.5,31.2-35.1,61.2-55.7,89.8c-20.3,28.6-40.5,54.4-55.7,73
			c-4.6,5.7-8.8,10.7-12.3,14.9l-0.3,0.3l-0.3-0.3c-3.5-4.3-7.7-9.2-12.3-14.9c-15.2-18.6-35.5-44.4-55.7-73
			c-20.7-28.6-39.3-58.6-55.7-89.8c-15.2-29.9-25.3-58.2-25.3-80.6C92.8,109,131.8,50,191.9,24.6c16-6.8,33-11,50.3-12.3
			c17.3,1.3,34.3,5.5,50.3,12.3C352.6,50,391.7,109,391.5,174.2z"/>
		<path class="st5" d="M331.8,165.4c-0.1,42.4-34.4,76.7-76.8,76.8c-4.3,0-8.6-0.3-12.8-1c-36.9-6.3-63.9-38.3-63.9-75.8
			s27-69.5,63.9-75.8c4.2-0.7,8.5-1,12.8-1C297.4,88.7,331.7,123,331.8,165.4z"/>
		<path class="st6" d="M306.2,165.4c-0.1,37.5-27.1,69.4-64,75.8c-36.9-6.3-63.9-38.3-63.9-75.8s27-69.5,63.9-75.8
			C279.1,96,306.1,128,306.2,165.4z"/>
	</g>
	<g>
		<path d="M168,351.5c21.1,29.7,42.1,56.3,56.1,73.4c2,2.5,3.9,4.8,5.8,7h-42.1c-4.7,0-8.5,3.8-8.5,8.5s3.8,8.5,8.5,8.5h136.5
			c4.7,0,8.5-3.8,8.5-8.5s-3.8-8.5-8.5-8.5h-42.1c1.8-2.2,3.7-4.5,5.8-7c13.9-17.1,35-43.7,56.1-73.4c20.9-28.9,39.8-59.3,56.4-90.9
			c17.4-34.2,26.3-62.6,26.3-84.4c0.1-45.3-17.9-88.8-50-120.8c-2.1-2.2-5.3-3.1-8.3-2.3s-5.3,3.1-6.1,6.1s0.1,6.2,2.3,8.3
			c28.9,28.8,45,68,45,108.8c0,19.1-8.2,44.9-24.4,76.7c-16.2,30.9-34.6,60.5-55.1,88.7c-20.8,29.3-41.6,55.6-55.4,72.5
			c-4.6,5.6-8.7,10.6-12.2,14.8c-1.6,1.9-4,2.9-6.5,2.9c-2.5,0-4.9-1.1-6.5-2.9c-3.5-4.2-7.6-9.2-12.2-14.8
			c-13.8-16.9-34.6-43.2-55.4-72.5c-20.5-28.2-38.9-57.9-55.1-88.7c-16.2-31.8-24.4-57.6-24.4-76.7c0-61.8,37-117.6,93.9-141.7
			c38.2-16,81.3-16,119.6,0c2.8,1.2,6,0.8,8.5-1c2.4-1.8,3.7-4.8,3.3-7.9s-2.3-5.6-5.1-6.8c-86.9-36.7-187.1,4.1-223.7,90.9
			c-8.9,21-13.5,43.7-13.4,66.5c0,21.8,8.8,50.2,26.3,84.5C128.2,292.2,147,322.6,168,351.5z"/>
		<path d="M256,99.2c4.7,0,8.5-3.8,8.5-8.5c0-4.7-3.8-8.5-8.5-8.5c-40.7,0-75.8,28.8-83.7,68.7c-7.9,39.9,13.4,79.9,51,95.5
			c37.6,15.6,81,2.4,103.6-31.4s18.2-79-10.6-107.7c-2.1-2.2-5.3-3.1-8.3-2.3c-3,0.8-5.3,3.1-6.1,6.1c-0.8,3,0.1,6.2,2.3,8.3
			c23,23,26.6,59.1,8.5,86.2S260,243,229.9,230.5S182.7,186,189,154.1S223.4,99.2,256,99.2z"/>
		<path d="M26.5,508.8h459.1c9.4,0.1,18.2-4.8,23-13c4.5-7.6,4.6-17.1,0.3-24.8l-52.5-93.9c-4.7-8.3-13.6-13.5-23.2-13.4h-60.8
			c-4.7,0-8.5,3.8-8.5,8.5c0,4.7,3.8,8.5,8.5,8.5h60.8c3.4-0.1,6.6,1.7,8.3,4.7l52.5,93.9c1.4,2.4,1.4,5.5-0.1,7.9
			c-1.7,2.9-4.9,4.6-8.3,4.5H26.5c-3.4,0.1-6.5-1.6-8.3-4.5c-1.5-2.4-1.5-5.4-0.1-7.9l52.5-93.9c1.7-2.9,4.9-4.7,8.3-4.7h60.8
			c4.7,0,8.5-3.8,8.5-8.5c0-4.7-3.8-8.5-8.5-8.5H78.9c-9.6-0.1-18.5,5.1-23.2,13.4L3.2,471c-4.4,7.7-4.3,17.2,0.3,24.8
			C8.3,503.9,17,508.9,26.5,508.8z"/>
		<path d="M418.1,406.4H384c-1.7,0-3.3,0.5-4.7,1.4l-25.6,17.1c-3.9,2.6-5,7.9-2.4,11.8c2.6,3.9,7.9,5,11.8,2.4l23.4-15.6h31.6
			c4.7,0,8.5-3.8,8.5-8.5S422.9,406.4,418.1,406.4z"/>
		<path d="M366.9,466.1c0,4.7,3.8,8.5,8.5,8.5h68.3c4.7,0,8.5-3.8,8.5-8.5s-3.8-8.5-8.5-8.5h-68.3
			C370.8,457.6,366.9,461.4,366.9,466.1z"/>
		<path d="M153.6,440.5c3.8,0,7.1-2.5,8.2-6.1c1.1-3.6-0.3-7.5-3.4-9.6l-25.6-17.1c-1.4-0.9-3.1-1.4-4.7-1.4H93.9
			c-4.7,0-8.5,3.8-8.5,8.5s3.8,8.5,8.5,8.5h31.6l23.5,15.6C150.3,440,151.9,440.5,153.6,440.5z"/>
		<path d="M68.3,457.6c-4.7,0-8.5,3.8-8.5,8.5s3.8,8.5,8.5,8.5h68.3c4.7,0,8.5-3.8,8.5-8.5s-3.8-8.5-8.5-8.5H68.3z"/>
	</g>
</g>
</svg>
