<svg id="Capa_1" enable-background="new 0 0 512 512" height="512" viewBox="0 0 512 512" width="512" xmlns="http://www.w3.org/2000/svg"><g><path d="m401.726 74.981c-48.351-48.353-112.638-74.981-181.018-74.981-68.381 0-132.668 26.628-181.02 74.981-5.858 5.858-5.858 15.355 0 21.213 5.857 5.858 15.355 5.858 21.213 0 42.686-42.686 99.439-66.194 159.807-66.194 60.366 0 117.12 23.508 159.806 66.194 88.117 88.118 88.117 231.495 0 319.612-42.686 42.686-99.44 66.194-159.806 66.194-46.917 0-91.64-14.219-129.283-40.587h18.824c8.284 0 15-6.716 15-15s-6.716-15-15-15h-59.954v.004c-.548.001-1.099.026-1.656.088-8.233.915-14.167 8.331-13.252 16.565l7.101 63.904c.853 7.671 7.347 13.345 14.89 13.345.553 0 1.112-.031 1.675-.093 8.233-.915 14.167-8.331 13.252-16.564l-2.906-26.159c43.621 32.121 96.12 49.497 151.309 49.497 68.38 0 132.667-26.628 181.019-74.981 48.353-48.352 74.98-112.639 74.98-181.019s-26.628-132.667-74.981-181.019z"/><path d="m220.707 101c-8.284 0-15 6.716-15 15v140c0 8.284 6.716 15 15 15h100c8.284 0 15-6.716 15-15s-6.716-15-15-15h-85v-125c0-8.284-6.716-15-15-15z"/></g></svg>