<?xml version="1.0" encoding="utf-8"?>
<!-- Generator: Adobe Illustrator 19.2.1, SVG Export Plug-In . SVG Version: 6.00 Build 0)  -->
<svg version="1.1" id="Слой_1" xmlns="http://www.w3.org/2000/svg" xmlns:xlink="http://www.w3.org/1999/xlink" x="0px" y="0px"
	 width="512px" height="512px" viewBox="0 0 512 512" style="enable-background:new 0 0 512 512;" xml:space="preserve">
<style type="text/css">
	.st0{fill:#E3E0FC;}
	.st1{fill:#C8C7E0;}
	.st2{fill:#FDF5D1;}
	.st3{fill:#444444;}
</style>
<path class="st0" d="M17.5,324.9c-2.9-12.8-4.4-26.2-4.4-39.9c0.4-99.4,81.2-178.4,180.6-176.4c96.8,1.9,174.6,81.4,173.6,178.9
	c-1,95.4-78.5,173.5-173.8,175.3c-27.8,0.5-54.3-5.4-77.8-16.4c-14.1-6.6-30.5-5.6-44.2,1.8c-14.1,7.6-29.9,11.3-43.2,13.1
	c-13.4,1.8-24.1-11-19.8-23.8C27.7,380.5,17.5,324.9,17.5,324.9z"/>
<path class="st1" d="M193.8,108.6c-46.3-0.9-88.5,15.7-120.5,43.8c-4.9,57.7,2.3,152.1,88.3,205.6c22.4,13.9,38.4,36.2,43.3,62
	c2.3,12.2,3.1,26.3,0.8,42.1c89.7-7.8,160.7-83.3,161.7-174.6C368.3,190.1,290.6,110.5,193.8,108.6z"/>
<path class="st0" d="M494.5,223.8c2.9-12.8,4.4-26.2,4.4-39.9C498.5,84.6,417.6,5.6,318.2,7.5C221.4,9.4,143.7,89,144.6,186.4
	c1,95.4,78.5,173.5,173.8,175.3c27.8,0.5,54.3-5.4,77.8-16.4c14.1-6.6,30.5-5.6,44.2,1.8c14.1,7.6,29.9,11.3,43.2,13.1
	c13.4,1.8,24.1-11,19.8-23.8C484.3,279.4,494.5,223.8,494.5,223.8z"/>
<path class="st2" d="M268.1,135.7h-23.6c-11.3,0-20.5,9.2-20.5,20.5v28.3c0,11.3,9.2,20.5,20.5,20.5c0,0,16.6-0.1,24.2,15.3
	c2.7,5.5,5,12.4,6,20.4c1.2,10.5,15.1,13.4,20.5,4.3c10.4-17.6,18.1-44.7,7.5-83C298.3,146.3,284.1,135.7,268.1,135.7z"/>
<path class="st2" d="M380,135.7h-23.6c-11.3,0-20.5,9.2-20.5,20.5v28.3c0,11.3,9.2,20.5,20.5,20.5c0,0,16.6-0.1,24.2,15.3
	c2.7,5.5,5,12.4,6,20.4c1.2,10.5,15.1,13.4,20.5,4.3c10.4-17.6,18-44.7,7.5-83C410.2,146.3,396,135.7,380,135.7z"/>
<path class="st3" d="M510.6,334c-18-53.3-9.4-105-8.8-108.7c3-13.5,4.6-27.4,4.5-41.4c-0.3-80.6-51.8-151-128.2-175.3
	c-3.9-1.3-8.2,0.9-9.4,4.9c-1.3,3.9,0.9,8.2,4.9,9.4c70.2,22.3,117.5,87,117.8,161c0,12.9-1.4,25.7-4.2,38.2c0,0.1,0,0.2-0.1,0.3
	c-0.4,2.4-10.2,58.5,9.3,116.3c1.2,3.5,0.5,7.2-1.9,10.1c-2.4,2.9-6.1,4.3-9.8,3.8c-15.8-2.2-29.5-6.3-40.7-12.3
	c-16-8.6-35-9.4-50.9-2c-23.4,10.9-48.5,16.2-74.5,15.7c-44.2-0.8-85.8-18.6-117.1-50.3c-31.4-31.6-48.9-73.4-49.3-117.6
	c-0.5-45.1,16.6-87.7,48-120c31.3-32.2,73.3-50.5,118.2-51.3c8.8-0.2,17.6,0.3,26.3,1.5c4.1,0.6,7.9-2.3,8.4-6.4s-2.3-7.9-6.4-8.4
	c-9.4-1.3-19-1.8-28.6-1.6c-48.9,1-94.6,20.8-128.7,55.9c-14,14.4-25.4,30.8-34,48.4c-41.5,7.8-79.3,29.9-106.5,62.2
	C21.2,199.5,5.8,241.6,5.6,285c-0.1,13.9,1.5,27.9,4.5,41.4c0.7,3.7,9.2,55.4-8.8,108.7c-2.9,8.4-1.2,17.6,4.5,24.5
	c5.7,6.9,14.5,10.4,23.4,9.1c17.6-2.4,33-7.1,45.8-14c11.9-6.4,25.9-7,37.4-1.6c24.4,11.4,55.3,17.1,81.1,17.1
	c29.1,0,58.1-8.1,83.7-21.9c24.8-13.4,46.6-32.6,63.1-55.6c2.4-3.4,1.6-8.1-1.7-10.5c-3.4-2.4-8.1-1.6-10.5,1.7
	c-15.1,21.1-35.2,38.8-58,51.1c-23.5,12.7-50.1,19.6-76.8,20.1c-26,0.5-51.1-4.8-74.5-15.7c-15.8-7.4-34.9-6.6-50.9,2
	c-11.2,6-24.9,10.1-40.7,12.3c-3.7,0.5-7.4-0.9-9.8-3.8c-2.4-2.9-3.1-6.6-1.9-10.1c19.5-57.7,9.8-113.6,9.3-116.3
	c0-0.1,0-0.2-0.1-0.3c-2.8-12.5-4.2-25.3-4.2-38.2c0.1-40,14.3-78.6,39.8-108.9c22.8-27.1,53.7-46.3,87.9-54.9
	c-7.5,20.6-11.3,42.6-11.1,65.2c0.5,48.1,19.6,93.6,53.7,128c34.1,34.4,79.4,54.7,127.5,54.7c29.8,0,56.7-5.7,81.1-17.1
	c11.6-5.4,25.6-4.8,37.4,1.6c12.8,6.9,28.2,11.6,45.8,14c8.9,1.2,17.7-2.2,23.4-9.1C511.8,351.6,513.5,342.5,510.6,334z"/>
<path class="st3" d="M268.1,128.2h-23.6c-15.4,0-28,12.5-28,28v28.3c0,15.4,12.5,28,28,28h0c0.2,0,12,0.1,17.4,11.1
	c2.8,5.6,4.5,11.6,5.3,17.9c0.9,8,5.8,16.4,18.5,16.4c6.5,0,12.4-3.4,15.9-9.2c10.2-17.2,19.9-46.6,8.3-88.8
	C304.7,141.2,287.5,128.2,268.1,128.2z M288.6,241c-1.2,2-3.1,1.9-3.8,1.7c-0.9-0.2-2.5-0.9-2.8-3c-0.9-8-3.2-15.6-6.7-22.8
	c-9.4-19.2-29.6-19.5-30.9-19.5c0,0,0,0,0,0c-7.1,0-13-5.8-13-13v-28.3c0-7.1,5.8-13,13-13h23.6c12.7,0,23.9,8.5,27.3,20.7
	C303.5,193.6,301.3,219.6,288.6,241z"/>
<path d="M328.4,156.1v28.3c0,15.4,12.5,28,27.9,28c0.5,0,12.1,0.3,17.5,11.1c2.8,5.6,4.5,11.6,5.3,17.9c0.9,8,6.5,16.4,18.5,16.4
	c6.5,0,12.4-3.4,15.9-9.2c10.2-17.2,19.9-46.6,8.3-88.8c-5.1-18.7-22.3-31.7-41.8-31.7h-23.6C340.9,128.2,328.4,140.7,328.4,156.1z
	 M343.4,156.1c0-7.1,5.8-13,13-13H380c12.7,0,23.9,8.5,27.3,20.7c8.2,29.8,5.9,55.7-6.8,77.2c-1.2,2-3.1,1.9-3.8,1.7
	c-0.9-0.2-2.5-0.9-2.8-3c-0.9-8-3.2-15.7-6.7-22.8c-9.4-19.2-29.6-19.5-30.9-19.5c0,0,0,0,0,0c-7.1,0-13-5.8-13-13V156.1z"/>
</svg>
