<?xml version="1.0"?>
<svg xmlns="http://www.w3.org/2000/svg" id="icon" viewBox="0 0 512 512" width="512" height="512"><title>pet medicine</title><path d="M292.617,264.79H468.226a0,0,0,0,1,0,0V413.165a22.3,22.3,0,0,1-22.3,22.3H310.811a18.194,18.194,0,0,1-18.194-18.194V264.79A0,0,0,0,1,292.617,264.79Z" style="fill:#b9e4f9"/><path d="M292.617,218.8H462.042a22.072,22.072,0,0,1,22.072,22.072V264.79a0,0,0,0,1,0,0h-191.5a0,0,0,0,1,0,0V218.8A0,0,0,0,1,292.617,218.8Z" style="fill:#ff9494"/><path d="M468.226,413.165V305.244H392.264A28.152,28.152,0,0,0,364.113,333.4V435.468h81.81A22.3,22.3,0,0,0,468.226,413.165Z" style="fill:#fff"/><path d="M51.821,133.829h240.8a0,0,0,0,1,0,0V417.1a18.372,18.372,0,0,1-18.372,18.372H70.937a19.117,19.117,0,0,1-19.117-19.117V133.829A0,0,0,0,1,51.821,133.829Z" style="fill:#b9e4f9"/><path d="M51.821,416.351a19.116,19.116,0,0,0,19.116,19.117H81.976V137.505H51.821Z" style="fill:#8dc8e0"/><rect x="51.821" y="182.74" width="240.796" height="203.818" style="fill:#fff"/><rect x="51.821" y="182.74" width="30.155" height="203.818" style="fill:#e6e6e6"/><path d="M51.1,76.532H293.342a23.209,23.209,0,0,1,23.209,23.209v34.089a0,0,0,0,1,0,0H27.886a0,0,0,0,1,0,0V99.741A23.209,23.209,0,0,1,51.1,76.532Z" style="fill:#ff9494"/><circle cx="165.721" cy="312.991" r="46.19" style="fill:#f4e1d4"/><polygon points="253.976 309.816 230.779 309.816 230.779 286.62 198.444 286.62 198.444 309.816 175.247 309.816 175.247 342.151 198.444 342.151 198.444 365.348 230.779 365.348 230.779 342.151 253.976 342.151 253.976 309.816" style="fill:#ff9494"/><circle cx="153.54" cy="225.269" r="18.678" style="fill:#f4e1d4"/><circle cx="95.837" cy="260.472" r="18.678" style="fill:#f4e1d4"/><circle cx="217.493" cy="239.082" r="18.678" style="fill:#f4e1d4"/><rect x="51.821" y="133.829" width="240.796" height="25.159" style="fill:#8dc8e0"/><path d="M468.226,264.79H292.617V417.274a18.194,18.194,0,0,0,18.194,18.194h5.74V314.532a29.884,29.884,0,0,1,29.884-29.883H468.226Z" style="fill:#8dc8e0"/><rect x="292.617" y="218.797" width="23.935" height="45.993" style="fill:#db6b6b"/><path d="M174.216,110.257h-97.8a24.6,24.6,0,0,1-24.6-24.6V76.531H51.1a23.21,23.21,0,0,0-23.209,23.21v34.088H198.763A24.578,24.578,0,0,0,174.216,110.257Z" style="fill:#db6b6b"/><path d="M70.937,441.231H274.244A24.163,24.163,0,0,0,298.38,417.1v-277.5h18.171a5.763,5.763,0,0,0,5.763-5.763V99.741a29.005,29.005,0,0,0-28.972-28.972H51.1A29.005,29.005,0,0,0,22.123,99.741v34.088a5.763,5.763,0,0,0,5.763,5.763H46.058V416.351A24.908,24.908,0,0,0,70.937,441.231Zm36.387-301.639a5.763,5.763,0,0,0,0-11.526H93.756V101.4a5.763,5.763,0,0,0-11.526,0v26.669H33.649V99.741A17.465,17.465,0,0,1,51.1,82.3H293.342a17.465,17.465,0,0,1,17.446,17.446v28.325H268.264V101.4a5.763,5.763,0,0,0-11.526,0v26.669H181.01V101.4a5.763,5.763,0,0,0-11.526,0v26.669h-11.5a5.763,5.763,0,0,0,0,11.526H286.854v37.385H77.158a5.763,5.763,0,0,0,0,11.526h209.7V417.1a12.624,12.624,0,0,1-12.61,12.609H70.937a13.369,13.369,0,0,1-13.354-13.354v-24.03H267.761a5.763,5.763,0,1,0,0-11.526H57.583v-241.2Z" style="fill:#333"/><path d="M133.429,139.59a5.964,5.964,0,0,0,1.124-.116,5.636,5.636,0,0,0,1.066-.331,5.427,5.427,0,0,0,.994-.518,6.164,6.164,0,0,0,.879-.721,5.772,5.772,0,0,0,0-8.154,5.162,5.162,0,0,0-.879-.706,4.639,4.639,0,0,0-.994-.533,5.713,5.713,0,0,0-1.066-.332,5.761,5.761,0,1,0-1.124,11.411Z" style="fill:#333"/><path d="M462.042,213.034H316.551a5.763,5.763,0,1,0,0,11.526H462.042a16.327,16.327,0,0,1,16.309,16.309v18.158h-32.6V241.793a5.763,5.763,0,1,0-11.526,0v17.234h-40.1V241.793a5.763,5.763,0,1,0-11.525,0v17.234H340.1V241.793a5.763,5.763,0,1,0-11.526,0v17.234H316.551a5.763,5.763,0,1,0,0,11.526H462.464v28.929h-70.2A33.953,33.953,0,0,0,358.35,333.4V407.59a5.763,5.763,0,1,0,11.525,0V333.4a22.415,22.415,0,0,1,22.389-22.389h70.2V413.165a16.558,16.558,0,0,1-16.54,16.54H316.551a5.763,5.763,0,0,0,0,11.526H445.923a28.1,28.1,0,0,0,28.066-28.066V305.246h0V270.553h10.125a5.764,5.764,0,0,0,5.763-5.763V240.869A27.867,27.867,0,0,0,462.042,213.034Z" style="fill:#333"/><path d="M152.021,363.116A5.763,5.763,0,0,0,155.054,352a40.436,40.436,0,1,1,26.4-76.258,5.763,5.763,0,0,0,4.491-10.616,51.964,51.964,0,1,0-33.925,97.993Z" style="fill:#333"/><path d="M169.484,309.816v32.336a5.764,5.764,0,0,0,5.763,5.763h17.434v17.433a5.763,5.763,0,0,0,5.763,5.763h32.335a5.763,5.763,0,0,0,5.763-5.763V347.915h17.434a5.764,5.764,0,0,0,5.763-5.763V309.816a5.763,5.763,0,0,0-5.763-5.762H236.542V286.62a5.764,5.764,0,0,0-5.763-5.763H198.444a5.764,5.764,0,0,0-5.763,5.763v17.434H175.247A5.763,5.763,0,0,0,169.484,309.816Zm11.526,5.763h17.434a5.763,5.763,0,0,0,5.763-5.763V292.383h20.809v17.433a5.763,5.763,0,0,0,5.763,5.763h17.434v20.81H230.779a5.763,5.763,0,0,0-5.763,5.763v17.433H204.207V342.152a5.763,5.763,0,0,0-5.763-5.763H181.01Z" style="fill:#333"/><path d="M153.54,249.71A24.441,24.441,0,1,0,129.1,225.269,24.469,24.469,0,0,0,153.54,249.71Zm0-37.356a12.916,12.916,0,1,1-12.915,12.915A12.93,12.93,0,0,1,153.54,212.354Z" style="fill:#333"/><path d="M95.837,284.913A24.442,24.442,0,1,0,90.149,236.7a5.763,5.763,0,1,0,2.673,11.212,12.918,12.918,0,1,1-9.9,12.563,5.763,5.763,0,0,0-11.526,0A24.47,24.47,0,0,0,95.837,284.913Z" style="fill:#333"/><path d="M217.493,263.523a24.441,24.441,0,1,0-24.441-24.441A24.468,24.468,0,0,0,217.493,263.523Zm0-37.357a12.916,12.916,0,1,1-12.915,12.916A12.931,12.931,0,0,1,217.493,226.166Z" style="fill:#333"/></svg>
