<svg id="Capa_1" enable-background="new 0 0 512 512" height="512" viewBox="0 0 512 512" width="512" xmlns="http://www.w3.org/2000/svg"><path d="m194.123 180.169-13.939 13.941c-12.293 12.294-32.225 12.294-44.518 0l-83.476-83.488c-12.291-12.292-12.29-32.22 0-44.512l13.939-13.94c12.293-12.294 32.225-12.294 44.518 0l83.476 83.488c12.29 12.292 12.29 32.219 0 44.511z" fill="#ffbdbc"/><path d="m459.81 445.889-13.939 13.941c-12.293 12.294-32.225 12.294-44.518 0l-83.476-83.488c-12.29-12.292-12.29-32.22 0-44.512l13.939-13.941c12.293-12.294 32.225-12.294 44.518 0l83.476 83.488c12.291 12.293 12.291 32.22 0 44.512z" fill="#ffbdbc"/><path d="m125.87 443.996-15.224 15.834c-12.293 12.294-32.225 12.294-44.518 0l-13.938-13.941c-12.291-12.292-12.291-32.22 0-44.512l83.476-83.488c12.293-12.294 32.225-12.294 44.518 0l13.939 13.941c12.291 12.292 12.291 32.22 0 44.512l-6.47 6.471" fill="#ffdede"/><path d="m445.871 52.17 13.939 13.941c12.291 12.292 12.291 32.22 0 44.512l-83.476 83.488c-12.293 12.294-32.225 12.294-44.518 0l-13.939-13.941c-12.291-12.292-12.291-32.22 0-44.512l83.476-83.488c12.293-12.295 32.225-12.295 44.518 0z" fill="#ffdede"/><path d="m55.292 398.274 80.479-80.488c3.012-3.012 6.373-5.462 9.953-7.35-16.89-34.215-16.89-74.655 0-108.87-3.58-1.888-6.941-4.338-9.953-7.35l-80.479-80.488c-60.349 84.939-60.349 199.605 0 284.546z" fill="#99ebfa"/><path d="m376.229 194.214c-3.012 3.012-6.373 5.462-9.953 7.35 16.89 34.215 16.89 74.655 0 108.87 3.58 1.888 6.941 4.338 9.953 7.35l80.479 80.488c60.35-84.941 60.35-199.607 0-284.548z" fill="#99ebfa"/><path d="m194.229 135.763c3.01 3.01 5.458 6.369 7.345 9.946 34.21-16.89 74.642-16.89 108.852 0 1.887-3.577 4.335-6.936 7.345-9.946l80.486-80.495c-84.931-60.357-199.582-60.357-284.513 0z" fill="#faf7f5"/><path d="m317.771 376.237c-3.01-3.01-5.458-6.369-7.345-9.946-34.21 16.89-74.642 16.89-108.852 0-1.887 3.577-4.335 6.936-7.345 9.946l-80.486 80.495c84.931 60.357 199.582 60.357 284.513 0z" fill="#faf7f5"/><path d="m511.971 256c0-49.907-14.905-98.286-43.17-140.361 14.221-16.272 13.581-41.096-1.919-56.6l-13.939-13.941c-7.834-7.835-18.25-12.15-29.33-12.15-10.135 0-19.715 3.611-27.271 10.223-42.069-28.266-90.442-43.171-140.342-43.171s-98.273 14.905-140.342 43.173c-7.556-6.612-17.135-10.223-27.271-10.223-11.08 0-21.496 4.315-29.33 12.15l-13.939 13.941c-15.5 15.503-16.14 40.326-1.919 56.599-28.265 42.074-43.17 90.453-43.17 140.36s14.905 98.286 43.17 140.361c-14.221 16.272-13.581 41.096 1.919 56.599l13.939 13.941c7.834 7.835 18.25 12.15 29.33 12.15 10.135 0 19.715-3.611 27.271-10.224 42.069 28.268 90.442 43.173 140.342 43.173s98.273-14.905 140.342-43.173c7.556 6.612 17.135 10.224 27.271 10.224 11.08 0 21.496-4.315 29.33-12.15l13.939-13.941c15.5-15.503 16.14-40.326 1.919-56.599 28.265-42.075 43.17-90.454 43.17-140.361zm-57.551 125.843-71.015-71.024c-1.62-1.62-3.351-3.09-5.175-4.402 14.378-33.12 14.378-67.714 0-100.834 1.824-1.312 3.555-2.781 5.175-4.402l71.014-71.024c50.225 77.488 50.225 174.197.001 251.686zm-143.614-57.083c-9.495 9.496-13.413 22.489-11.756 34.872-28.27 12.425-57.828 12.425-86.099 0 1.657-12.383-2.262-25.376-11.756-34.872l-13.939-13.941c-7.834-7.835-18.25-12.15-29.33-12.15-1.873 0-3.727.124-5.552.366-12.411-28.262-12.411-57.809 0-86.071 1.826.243 3.68.367 5.552.367 11.079 0 21.496-4.316 29.33-12.15l13.939-13.941v-.001c9.494-9.496 13.413-22.489 11.756-34.872 28.27-12.425 57.828-12.425 86.099 0-1.657 12.383 2.262 25.376 11.756 34.872l13.939 13.941c7.834 7.835 18.25 12.15 29.33 12.15 1.873 0 3.727-.124 5.552-.367 12.412 28.262 12.412 57.809 0 86.071-1.826-.243-3.679-.366-5.552-.366-11.079 0-21.496 4.315-29.33 12.15zm112.806-271.811c5.737 0 11.131 2.234 15.188 6.292l13.939 13.94c8.372 8.374 8.372 21.998 0 30.371l-83.477 83.488c-4.057 4.057-9.45 6.292-15.188 6.292s-11.131-2.234-15.188-6.292l-13.939-13.94c-8.372-8.374-8.372-21.998 0-30.371l83.477-83.488c4.057-4.057 9.451-6.292 15.188-6.292zm-41.784 4.606-71.022 71.032c-1.627 1.627-3.09 3.358-4.39 5.17-33.12-14.382-67.711-14.382-100.831 0-1.3-1.813-2.763-3.543-4.39-5.171l-71.022-71.032c77.479-50.228 174.175-50.228 251.655.001zm-322.567 15.627 13.939-13.941c4.057-4.057 9.45-6.292 15.188-6.292 5.737 0 11.131 2.234 15.188 6.292l83.477 83.487c8.372 8.374 8.372 21.998 0 30.371v-.001l-13.939 13.941c-4.057 4.057-9.45 6.292-15.188 6.292-5.737 0-11.131-2.234-15.188-6.292l-83.477-83.487c-8.372-8.373-8.372-21.997 0-30.37zm-1.681 56.975 71.014 71.024c1.62 1.62 3.351 3.09 5.175 4.402-14.378 33.12-14.378 67.714 0 100.834-1.824 1.312-3.555 2.781-5.175 4.402l-71.014 71.024c-50.224-77.489-50.224-174.197 0-251.686zm72.3 324.097 3.199-3.328c3.827-3.981 3.703-10.312-.278-14.139-3.98-3.827-10.313-3.705-14.14.278l-15.149 15.757c-4.049 4.017-9.417 6.229-15.124 6.229-5.737 0-11.131-2.234-15.188-6.292l-13.94-13.941c-8.372-8.373-8.372-21.997 0-30.371l83.477-83.488c4.057-4.057 9.45-6.291 15.188-6.291 5.737 0 11.131 2.234 15.188 6.291l13.939 13.941c8.372 8.374 8.372 21.997-.001 30.371l-6.47 6.471c-3.904 3.906-3.903 10.237.002 14.142 3.907 3.905 10.237 3.904 14.143-.002l6.469-6.471c1.627-1.627 3.09-3.358 4.39-5.17 16.56 7.191 33.487 10.787 50.415 10.787s33.855-3.596 50.415-10.787c1.3 1.813 2.763 3.543 4.39 5.171l71.022 71.032c-77.576 50.293-174.419 50.23-251.947-.19zm322.859-15.435-13.939 13.94c-4.057 4.057-9.45 6.292-15.188 6.292s-11.131-2.234-15.188-6.292l-83.477-83.487c-8.372-8.374-8.372-21.998 0-30.371l13.939-13.941c4.057-4.057 9.45-6.291 15.188-6.291s11.131 2.234 15.188 6.291l83.477 83.487c8.372 8.374 8.372 21.998 0 30.372z"/><path d="m157.71 422.16c-4.182 0-8.006-2.705-9.415-6.636-1.387-3.867-.201-8.335 2.943-10.986 3.292-2.776 8.082-3.123 11.745-.864 3.5 2.158 5.331 6.408 4.527 10.436-.92 4.61-5.094 8.05-9.8 8.05z"/></svg>