<?xml version="1.0"?>
<svg xmlns="http://www.w3.org/2000/svg" id="icon" viewBox="0 0 512 512" width="512" height="512"><title>love pet</title><path d="M475.322,148.636c-11.614-28.666-33.608-52.185-62.108-64.2C329.971,49.338,256,136.727,256,136.727S182.029,49.338,98.786,84.435c-28.5,12.016-50.494,35.535-62.108,64.2C19.7,190.53,12.02,263.444,97.443,348.382c0,0,60.443,57.45,143.216,84.964a48.614,48.614,0,0,0,30.682,0c82.773-27.514,143.216-84.964,143.216-84.964C499.98,263.444,492.3,190.53,475.322,148.636Z" style="fill:#fff"/><ellipse cx="172.318" cy="248.847" rx="16.26" ry="20.123" transform="translate(-119.789 169.525) rotate(-40.106)" style="fill:#ff9494"/><ellipse cx="220.753" cy="211.73" rx="16.26" ry="20.123" transform="translate(-49.125 67.759) rotate(-15.726)" style="fill:#ff9494"/><ellipse cx="256" cy="310.515" rx="61.004" ry="53.234" style="fill:#ff9494"/><ellipse cx="339.682" cy="248.847" rx="20.123" ry="16.26" transform="translate(-69.475 348.343) rotate(-49.894)" style="fill:#ff9494"/><ellipse cx="291.247" cy="211.73" rx="20.123" ry="16.26" transform="translate(8.502 434.687) rotate(-74.274)" style="fill:#ff9494"/><path d="M473.5,144.333a115.358,115.358,0,0,0-55.232-57.619c-49.416-23.724-96.038-3.162-126.52,18.329a49.277,49.277,0,0,0,57.142,13.873q.469-.2.934-.39a66.586,66.586,0,0,1,68.541,10.642c17.584,14.863,25.691,33.882,28.956,51.85,5.118,28.159-1.312,57.17-16.776,81.253C375.372,348.2,297.282,384.431,267.843,395.6a32.984,32.984,0,0,1-22.56.333l-8.6-2.994a35.921,35.921,0,0,0-42.119,14.638l-3.209,5.043a362.169,362.169,0,0,0,49.3,20.723,48.5,48.5,0,0,0,30.608.025c82.813-27.5,143.292-84.989,143.292-84.989C502.983,260.458,491.641,185.419,473.5,144.333Z" style="fill:#e6e6e6"/><path d="M67.927,96.417l-.483.4a5.763,5.763,0,0,0,7.363,8.868l.416-.342a5.763,5.763,0,0,0-7.3-8.923Z" style="fill:#333"/><path d="M415.454,79.125c-35.809-15.1-75.588-10.477-115.043,13.362A222.01,222.01,0,0,0,256,128.175a222.04,222.04,0,0,0-44.411-35.688C172.135,68.65,132.352,64.028,96.547,79.125c-1.857.782-3.724,1.628-5.548,2.514a5.763,5.763,0,1,0,5.032,10.369c1.643-.8,3.323-1.559,4.994-2.262,32.641-13.764,67.746-9.576,104.336,12.444a208.1,208.1,0,0,1,46.24,38.26,5.765,5.765,0,0,0,8.8,0c.712-.842,72.139-83.781,150.576-50.7,26.266,11.074,47.773,33.327,59.006,61.054,17.7,43.688,21.749,112.721-59.393,193.4-.6.566-60.548,56.91-141.064,83.674a42.562,42.562,0,0,1-27.048,0C161.96,401.114,102.007,344.77,101.506,344.3,20.27,263.521,24.318,194.487,42.019,150.8a116.763,116.763,0,0,1,13.6-24.594,5.762,5.762,0,1,0-9.336-6.757,128.3,128.3,0,0,0-14.943,27.024,151.113,151.113,0,0,0-8.332,87c7.854,40.339,31.531,80.376,70.468,119.09,2.507,2.382,62.33,58.653,145.369,86.256a54.738,54.738,0,0,0,34.318,0c83.039-27.6,142.862-83.874,145.462-86.346,38.844-38.624,62.521-78.661,70.375-119a151.113,151.113,0,0,0-8.332-87C468.289,115.928,444.52,91.381,415.454,79.125Z" style="fill:#333"/><path d="M197.5,282.043a53.8,53.8,0,0,0-8.266,28.472c0,32.531,29.952,59,66.768,59s66.767-26.465,66.767-59-29.951-59-66.767-59a73.621,73.621,0,0,0-33.751,8.074,5.763,5.763,0,1,0,5.3,10.234A62.052,62.052,0,0,1,256,263.044c30.46,0,55.241,21.3,55.241,47.471S286.46,357.985,256,357.985s-55.242-21.3-55.242-47.47a42.273,42.273,0,0,1,6.519-22.37,5.763,5.763,0,0,0-9.779-6.1Z" style="fill:#333"/><path d="M155.642,229.048c-9.287,7.823-9.362,23.069-.168,33.986A28.4,28.4,0,0,0,171.6,272.8a23.8,23.8,0,0,0,4.512.441,19.722,19.722,0,0,0,12.886-4.591,20.415,20.415,0,0,0,7.046-16.439,28.392,28.392,0,0,0-6.878-17.546C179.967,223.742,164.93,221.224,155.642,229.048ZM181.57,259.83a9.145,9.145,0,0,1-7.784,1.648,16.851,16.851,0,0,1-9.5-5.869c-5.014-5.954-5.574-14.08-1.223-17.745A8.372,8.372,0,0,1,168.56,236c3.961,0,8.5,2.175,11.786,6.08h0a16.857,16.857,0,0,1,4.17,10.355A9.138,9.138,0,0,1,181.57,259.83Z" style="fill:#333"/><path d="M222.638,237.356a18.916,18.916,0,0,0,5.131-.709,20.42,20.42,0,0,0,13.2-12.065,29.388,29.388,0,0,0-9.677-34.365,20.412,20.412,0,0,0-17.559-3.4c-11.689,3.291-18.052,17.146-14.182,30.885C202.861,229.442,212.584,237.356,222.638,237.356Zm-5.778-39.448a7.566,7.566,0,0,1,2.056-.281,9.959,9.959,0,0,1,5.714,1.992,16.859,16.859,0,0,1,6.227,9.266h0a16.859,16.859,0,0,1-.477,11.153,9.135,9.135,0,0,1-5.735,5.514c-5.482,1.541-11.887-3.485-14-10.977S211.383,199.45,216.86,197.908Z" style="fill:#333"/><path d="M323.006,268.645a19.713,19.713,0,0,0,12.885,4.591,23.811,23.811,0,0,0,4.513-.441,28.4,28.4,0,0,0,16.122-9.761c9.194-10.917,9.119-26.163-.168-33.986s-24.326-5.305-33.52,5.612h0a28.4,28.4,0,0,0-6.878,17.547A20.415,20.415,0,0,0,323.006,268.645Zm8.647-26.56h0c3.289-3.905,7.825-6.08,11.786-6.08a8.374,8.374,0,0,1,5.492,1.859c4.352,3.666,3.792,11.792-1.222,17.746a16.851,16.851,0,0,1-9.5,5.869,8.431,8.431,0,0,1-10.731-9.038A16.857,16.857,0,0,1,331.653,242.085Z" style="fill:#333"/><path d="M284.231,236.647a18.877,18.877,0,0,0,5.131.709c10.054,0,19.778-7.916,23.083-19.657,3.869-13.739-2.493-27.594-14.182-30.885s-24.346,5.208-28.214,18.948a28.391,28.391,0,0,0,.978,18.82A20.42,20.42,0,0,0,284.231,236.647Zm-3.088-27.761h0c1.853-6.578,7.019-11.256,11.96-11.256a7.508,7.508,0,0,1,2.037.279c5.476,1.542,8.321,9.175,6.211,16.668s-8.524,12.519-14,10.977a9.135,9.135,0,0,1-5.735-5.514A16.852,16.852,0,0,1,281.143,208.886Z" style="fill:#333"/></svg>
